<?xml version="1.0" encoding="UTF-8"?><svg id="Calque_1" xmlns="http://www.w3.org/2000/svg" viewBox="0 0 639.75 599.37"><defs><style>.cls-1{stroke:#000;stroke-miterlimit:10;stroke-width:2px;}</style></defs><path class="cls-1" d="m334.24,131.2c-63.9,2.12-113.99,29.1-148.87,83.23-11.34,17.61-19.89,36.56-23.77,57.19-8.01,42.55,3.83,79.15,34.47,109.67,15.08,15.01,32.21,26.95,52.35,34.18,4.32,1.55,8.95,2.25,13.42,3.4,1.8.46,4.05.59,5.2,1.76,1.61,1.62,3.43,4.17,3.23,6.13-.22,2.13-2.26,5.09-4.2,5.8-2.98,1.1-6.67,1.26-9.85.67-14.22-2.63-27.08-8.78-39.27-16.33-23.15-14.34-42.23-32.82-55.93-56.5-16.67-28.82-21.52-60.02-13.98-92.06,14.51-61.71,50.13-107.77,107.97-134.66,46.76-21.73,95.16-23.41,143.95-6.13,34.67,12.28,65.81,30.4,91.78,56.7,18.71,18.94,31.92,41.02,36,67.78,3.39,22.26-1.37,43.32-10.34,63.58-13.5,30.5-33.71,56.39-56.66,80.19-13.28,13.77-27.3,26.82-41.07,40.11-1.86,1.8-4.08,3.34-6.38,4.53-3.01,1.57-5.94.73-8.17-1.73-2.16-2.39-2.39-5.32-.76-8.01,1.21-1.99,2.9-3.75,4.63-5.34,23.15-21.26,45.71-43.08,65.12-67.91,12.61-16.12,23.6-33.21,31.32-52.29,15.53-38.4,8.43-72.85-18.32-103.61-19.44-22.36-43.63-38.4-70.33-50.87-25.83-12.07-52.71-19.57-81.56-19.45Z"/><path class="cls-1" d="m311.65,598.2c-7.92-1.55-16.08-2.37-23.71-4.82-9.74-3.13-14.66-10.98-15.77-20.95-1.6-14.29-2.82-28.62-4.28-42.93-1.29-12.69-2.73-25.37-3.96-38.07-.32-3.34-.41-6.77-.06-10.1.46-4.42,3.27-7.12,6.81-7.27,3.72-.15,6.7,2.51,7.46,7.03.5,2.95.59,5.97.89,8.96,2.47,25.01,4.97,50.03,7.41,75.05,1.19,12.2,3.87,15.34,16.03,16.44,6.81.62,13.73.16,20.6.06,2.61-.04,4.34-.71,2.94-4.14-1.51-3.7-.36-6.87,3.42-9.37,2.78-1.84,5.91-3.32,9.08-4.35,15.09-4.94,30.24-9.71,45.4-14.44,6.01-1.87,6.4-2.18,6.02-8.3-.21-3.49-.61-6.98-.9-10.47-.23-2.7-1.59-3.93-4.26-3.12-18.28,5.57-36.89,10.22-54.07,18.93-4.61,2.34-8.52,1.91-10.82-1.27-2.31-3.22-1.6-8.01,2.56-10.84,4.08-2.77,8.64-5.11,13.31-6.71,14.66-5.02,29.43-9.72,44.23-14.32,6.9-2.14,6.97-1.92,6.14-9.24-.34-2.98-.64-5.97-1.01-8.95-.51-4.17-1.24-4.76-5.34-3.88-15.65,3.37-31.28,6.84-46.93,10.19-10.03,2.15-20.05,4.34-30.15,6.11-3.86.68-7.97.64-11.87.15-3.51-.44-5.76-2.95-5.85-6.76-.09-3.71,2.19-5.85,5.41-6.78,2.61-.75,5.44-.71,8.12-1.26,18.86-3.91,37.7-7.88,56.55-11.84,7.83-1.65,15.7-3.16,23.46-5.12,2.19-.55,4.45-2.11,5.95-3.84,3.03-3.51,5.98-4.09,10.21-1.98,2.06,1.02,4.74,1.61,6.99,1.31,7.06-.94,14.03-2.54,21.08-3.58,2.39-.35,5.08-.29,7.34.46,5.27,1.76,6.39,8.28,1.96,11.65-1.98,1.5-4.68,2.32-7.18,2.83-6.98,1.42-14.01,2.63-21.06,3.7-3.39.51-4.44,2.28-3.99,5.43.54,3.84,1.09,7.68,1.51,11.53.3,2.8,1.69,3.67,4.34,2.99,3.27-.83,6.54-1.73,9.86-2.3,5.15-.87,8.88,1.26,9.77,5.3.89,4.02-1.55,7.62-6.46,9.1-3.71,1.12-7.5,1.96-11.27,2.86-2.91.69-4.19,2.36-3.8,5.42.5,3.97.86,7.96,1.15,11.95.24,3.27,1.82,4.02,4.79,3.08,3.7-1.16,7.44-2.2,11.2-3.13,6.04-1.5,9.97.05,11.27,4.28,1.35,4.4-1.21,8.25-7.05,10.11-4.52,1.44-9.12,2.68-13.73,3.83-3.55.89-5.4,2.64-5.84,6.62-1.46,13.31-7.46,20.63-20.95,23.56-23.96,5.21-48.09,9.59-72.73,10.17-.07.34-.14.68-.21,1.03Zm35.14-21.13c.17.62.35,1.23.52,1.85,12.18-2.45,24.39-4.82,36.53-7.45,1.67-.36,3.3-1.82,4.49-3.18.74-.85.63-2.45.9-3.71-1.16-.06-2.41-.44-3.46-.13-6.7,1.98-13.37,4.05-20.01,6.2-6.35,2.06-12.64,4.27-18.96,6.42Z"/><path class="cls-1" d="m9.9,339.26c-1.5-.47-3.82-.79-5.69-1.86-4-2.3-4.33-7.97-.62-10.77,1.62-1.23,3.75-1.95,5.76-2.46,16.33-4.15,32.68-8.19,49.02-12.26,1.45-.36,2.91-.82,4.38-.88,3.61-.16,6.37,1.34,7.6,4.86,1.21,3.46-.39,6.12-3.1,8.1-1.39,1.01-3.01,1.89-4.66,2.32-15.82,4.14-31.66,8.18-47.5,12.21-1.44.37-2.96.44-5.18.75Z"/><path class="cls-1" d="m573.12,70.47c4.57.39,7.35,1.58,8.33,5.12,1,3.64-.67,6.2-3.56,8.31-9.28,6.75-18.57,13.5-27.73,20.42-3.28,2.48-6.14,5.49-9.26,8.18-3.73,3.22-8.05,3.53-10.8.88-2.75-2.65-2.76-7.12.16-10.9,1.37-1.77,2.86-3.53,4.6-4.9,10.43-8.14,20.88-16.25,31.49-24.14,2.2-1.64,5.14-2.28,6.77-2.97Z"/><path class="cls-1" d="m113.89,131.49c.16,6.62-5.14,10.01-10.21,7.55-1.97-.95-3.72-2.51-5.31-4.06-8.59-8.34-17.11-16.76-25.64-25.16-4.59-4.52-5.45-8.8-2.43-12.07,3.09-3.35,7.79-3.29,12.29.96,9.62,9.07,19.01,18.38,28.33,27.75,1.58,1.58,2.36,3.96,2.97,5.04Z"/><path class="cls-1" d="m295.62,44.63c-.24,3.84-1.37,6.66-4.87,7.72-3.4,1.03-6.14-.25-8.14-3.07-.78-1.11-1.54-2.33-1.91-3.62-3.18-10.91-6.42-21.8-9.32-32.78-1.66-6.28.41-10.62,4.84-11.66,4.56-1.07,7.98,1.79,9.76,8.1,2.94,10.45,5.91,20.9,8.84,31.36.4,1.43.6,2.92.81,3.94Z"/><path class="cls-1" d="m630.8,381.09c-.52-.13-1.52-.28-2.45-.62-9.95-3.62-19.96-7.07-29.78-11.01-2.99-1.2-5.81-3.42-8.03-5.8-2.27-2.44-2.43-5.8-.3-8.65,2.11-2.84,5.13-3.48,8.38-2.27,10.5,3.9,21.07,7.66,31.4,11.99,3.01,1.26,6.03,3.77,7.76,6.52,2.91,4.61-1.09,10.22-6.98,9.84Z"/></svg>