<?xml version="1.0" encoding="UTF-8"?><svg id="Calque_1" xmlns="http://www.w3.org/2000/svg" viewBox="0 0 491.52 683.43"><path d="m11.65,604.5c3.31-17.53,6.3-23.73,4.57-25.65-39.94-44.23,3.67-64.56,25.94-89.95,79.01-90.07,160.13-178.32,237.38-269.87,32.27-38.24,56.4-83.31,85.02-124.73,27.83-40.28,72.03-51.95,103.72-28.52,30.07,22.24,32.04,71.14-.53,107.04-122.24,134.74-244.88,269.17-370.32,400.89-16.65,17.49-50.28,18.72-85.78,30.79Z"/><path d="m200.63,132.3c-37.13,1.25-79.56-34.51-81.48-68.66C117.59,35.8,148.25,1.66,176.26.07c34.58-1.97,91.44,40.9,92.6,69.82,1.23,30.54-32.3,61.21-68.23,62.42Z"/><path d="m257.67,683.42c-27.52.16-57.63-30.09-57.05-57.33.58-27.41,48.18-77.6,72.22-76.16,30.69,1.84,74.06,44.31,74.96,73.41,1.08,34.54-36.75,59.76-90.13,60.08Z"/></svg>