<?xml version="1.0" encoding="UTF-8"?><svg id="Calque_1" xmlns="http://www.w3.org/2000/svg" viewBox="0 0 684.57 634.79"><path d="m475.99,110.32c-109.2,12.49-218.41,24.88-327.59,37.56-17.4,2.02-34.62,5.56-51.98,8.01-27.52,3.88-63.9,6.89-62.62-27.94.79-21.65,30.72-56.67,52.36-60.83C260.61,33.62,434.9-5.73,614.18.7c20.61.74,46.82,17.06,58.25,34.25,6.36,9.57-7.23,44.06-21.04,52.84-25.98,16.5-57.95,26.63-88.71,31.65-27.75,4.53-57.19-1.29-85.89-2.55-.27-2.19-.53-4.37-.8-6.56Z"/><path d="m0,357.31c19.84-89.15,86.17-70.52,132.59-75.77,142.38-16.09,285.76-23.39,428.77-33.82,14.32-1.05,28.81.37,43.18-.3,30.63-1.43,66.31,2.83,66.04,36.9-.14,18.08-33.23,47.9-55.04,51.67-81.41,14.07-164.15,21.89-246.7,27.69-100.38,7.05-201.05,11.12-301.66,13.15-22.58.46-45.45-12.85-67.19-19.51Z"/><path d="m34.25,601.48c186.1-77.52,384.16-89.18,583.02-93.55,21.4-.47,43.22,17.8,64.84,27.37.82,6.94,1.64,13.89,2.46,20.83-34.04,16.06-66.8,41.6-102.35,46.37-97.74,13.1-196.58,18.46-295.11,24.97-66.31,4.38-132.82,6.74-199.26,7.32-17.73.15-35.55-9.57-53.32-14.76-.09-6.18-.18-12.36-.27-18.54Z"/></svg>