<?xml version="1.0" encoding="UTF-8"?>
<svg id="Calque_1" data-name="Calque 1" xmlns="http://www.w3.org/2000/svg" viewBox="0 0 800 800">
  <path d="m202,489.94c-.91-23.96,7.65-47.24,1.84-70.82-1.71-6.96,3.15-8.79,8.4-10.88,19.5-7.76,40.23-5.99,60.38-7.48,51.2-3.8,102.39-9.11,153.89-6.82,3.31.15,8.9,1.35,8.78-3.64-.11-4.28-3.45-8.5-5.49-12.69-1.86-3.82-4.81-2.92-7.95-1.76-12.7,4.69-21.63-.25-26.86-13.92-3.26-8.53-2.49-17.45-3.57-27.7-13.75,7.8-27.57,13.23-41.21,19.06-8.27,3.53-16,.61-16.68-5.44-1.39-12.35-8.75-10.64-16.4-10.53-5.49.08-10.74-.31-12.4-6.84-1.46-5.76-2.48-12.65,3.58-15.58,11.66-5.63,7.58-12.01,2.99-19.78-7.86-13.29-5.68-30.24,4.71-30.03,17.35.35,24.71-10.24,35.81-18.85,10.08-7.8,23.18-3.14,31.18,5.93,7.77,8.8,9.55,6.23,12.66-2.58,1.28-3.64,4.87-6.52,7.63-9.55,7.21-7.91,16.71-9.12,26.01-6.35,9.89,2.95,10.05,12.16,9.99,20.8-.02,3.06.33,6.13.58,10.42,8.92-3.72,16.92-7.22,25.05-10.38,8.07-3.14,15.7-4.8,22.93,2.94,6.71,7.18,8.13,13.79,3.12,22.55-1.46,2.56-6.63,7.83-1.21,10.17,5.48,2.37,7.15-1.64,7.34-7.78.19-6.28,6.78-5.1,11.35-5.1,32,0,64.01.66,95.92-2.79,6.7-.72,13.49.64,20.05-2.57,6.79-3.32,13.81.75,16.94,5.11,16.23,22.6,39.47,38.58,55.96,60.8,2.54,3.42,8.87,6.63,3.74,11.33-4.1,3.75-8.65.25-12.13-3.45-14.9-15.83-30.12-31.37-44.75-47.45-7.47-8.21-15.53-12.27-27.13-11.96-31.45.86-62.94.47-94.42.59-2.54,0-5.19-.16-6.57,2.37.26.92.27,1.68.55,1.8,12.56,5.3,27.4,10.84,25.27,27.05-2.31,17.59-18.53,23.55-33.7,28.32-5.43,1.71-11.12,2.59-17.81,4.1,6.29,10.32,12.11,19.87,17.93,29.43,3.87,6.36,8.9,9.28,16.89,8.27,44.45-5.64,89.29-8.25,133.13-18.51,9.58-2.24,19.71-2.29,29.62-2.88,3.57-.21,7.94.62,8.95,4.78,1.37,5.65-3.49,7.53-7.47,8.1-13.44,1.9-26.99,3.01-40.46,4.67-42.46,5.24-84.89,10.7-127.37,15.76-5.78.69-6.71,3.61-6.72,8.28-.03,27.85-.06,55.7-.23,83.55-.04,6.04,1.43,7.8,8.26,6.91,38.78-5.06,77.75-8.59,116.32-15.29,11.81-2.05,23.83-2.94,35.76-4.21,4.53-.49,8.97.53,9.12,5.96.12,4.33-3.63,5.71-7.61,6.19-43.49,5.26-87.04,10.19-130.44,16.13-12.43,1.7-26.62.26-35.67,12.48-1.35,1.82-3.33,2.92-5.25,1.17-11.73-10.68-24.72-4.59-36.64-1.73-18.05,4.33-36.47,4.24-54.6,5.72-61.1,4.98-122.28,9.93-183.72,7.31-4.13-.18-9.68.78-10.52-4.41-1.1-6.9,6.01-6.79,9.83-7.14,10.94-1.01,22.04-1.39,33.02-.87,55.68,2.63,110.92-5.17,166.42-6.56,11.51-.29,18.29-3.44,17.22-18.26-1.81-25.09-1.03-50.42-.36-75.63.32-12.1-3.22-17.3-16.03-16.47-51.25,3.33-102.55,5.91-153.8,9.17-15.62.99-31.43-1.71-46.92,3.11-7.59,2.36-10.75,5.74-10.83,14.26-.22,22.57-1.87,45.12-2.63,67.68-.2,5.86-.58,9.82-8.21,10.13-5.71.23-10.32,2.69-13.94-4.81-13.79-28.58-35.08-52.81-48.09-81.96-2.44-5.48-10.12-11.36-1.87-15.31,6.35-3.05,9.42,6.11,12.34,11.17,14.33,24.86,28.18,50,46.18,73.18Zm300.39-39.73c0-7.87-.04-15.74,0-23.61q.16-23.99-22.97-23.45c-4.71.11-9.49.6-14.14.05-8.81-1.02-10.62,3.22-10.25,11.01,1.34,27.76,2.2,55.55,3.36,83.33.17,3.95-.87,9.1,5.17,9.81,12.34,1.46,24.41-1.14,34.94-6.87,7.46-4.06,3.05-13.46,3.62-20.39.82-9.9.21-19.92.25-29.89Zm-62.33-127.85c27.01,13.76,52.39,23.25,79.54,6.44,4.97-3.08,12.43-5.4,10.89-13.62-1.37-7.33-7.28-8.88-13.91-10.27-27.26-5.69-51.2,2.56-76.52,17.45Zm30.15,21.76c6.59,32.02-13.2,27.41-29.97,24.82,2.41,20.98,14.13,25.75,31.76,22.31,6.08-1.19,12.57-.45,18.86-.27,7.4.21,9.89-1.95,5.36-8.96-7.61-11.77-13.8-24.49-26.01-37.9Zm-45.89-31.47c7.34-.76,11.7-6.8,18.57-7.87,14.58-2.27,24.28-12.27,33.45-23.35,3.98-4.8,5.58-9.34,3.39-13.91-2.83-5.89-7.92-1.78-12.3-.81-24.44,5.43-37.6,21.4-43.11,45.93Zm-18.28-.72c.73-11.62,6.87-20.19,14.25-27.56,7.21-7.21,8.22-16.26,9.46-25.22.84-6.1.66-13.96-6.41-15.87-6.38-1.72-10.72,3.89-14.84,9.09-15.27,19.29-2.1,39.57-2.46,59.56Zm-23.03-5.95c.91-8.2,2.33-16.39,2.62-24.62.45-12.96-8.63-23.26-20.99-25.06-5.04-.74-10.42.29-12.4,4.32-2.38,4.83-3.9,11.61,1.45,15.87,10.55,8.42,19.52,18.12,29.31,29.49Zm-35.99-6.6c-2.08-4.79-4.93-8.49-5.13-12.33-.56-10.78-9.61-9.46-15.8-11.92-3.76-1.5-8.12.39-8.92,4.18-1.53,7.17,4.75,11.24,8.88,15.45,4.1,4.19,8.32,9.78,15.86,7.84,2.51-.65,5.25-.75,5.11-3.21Zm113.01,59.59c-7.96-20.41-33.94-21.15-40.92-41.14-.05-.13-2.9.15-3.56.96-.81,1-1.16,2.85-.9,4.17,3.02,15.53,26.33,34.45,45.38,36.01Zm-55.57-18.75c.19,10.47.78,18.91,8.3,25,.45.37,3.24-.87,3.54-1.8,3.17-9.97-1.7-16.56-11.84-23.2Zm-58.4-15.94c-10.85-13.36-18.8-10.13-28.05,0h28.05Z"/>
  <path d="m159.37,333.64c-1.26,15.68-2.52,30.04-3.52,44.41-.31,4.5-.85,9.1-6.33,8.88-4.66-.19-5.36-4.81-4.73-8.39,3.28-18.78.81-37.67,1.53-56.49.21-5.43-.22-9.61,7.86-10.15,40.05-2.66,80.03-6.23,120.06-9.19,4.69-.35,12.22-2.32,12.46,5.2.2,6.11-7.37,5.37-11.29,5.47-34.41.87-68.12,9.42-105.97,7.99,14.55,21.32,26.83,40.78,36.98,61.43,1.13,2.3,2.28,4.59,3.44,6.88,1.81,3.59,5.54,7.71-.52,10.36-4.69,2.05-7.15-1.01-9.48-5.35-8.63-16-18.01-31.6-26.79-47.53-3-5.44-6.6-9.82-13.69-13.52Z"/>
  <path d="m707.1,422.6c1.01-14.8-1.89-32.13,2.94-49.16,1.23-4.33.87-8.26,7.05-7.56,6.24.71,6.12,5.25,5.38,9.27-5.37,29.01-.93,58.62-5.65,87.66-.6,3.72-.57,8.38-5.1,8.32-4.63-.05-4.63-4.72-4.62-8.46,0-12.58,0-25.15,0-40.09Z"/>
</svg>