<?xml version="1.0" encoding="UTF-8"?>
<svg id="Calque_1" data-name="Calque 1" xmlns="http://www.w3.org/2000/svg" viewBox="0 0 800 800">
  <path d="m457.87,221.15c16.73,3.62,32.93,7.25,45.87,19.1,7.55,6.91,14.93,14.92,12.32,25.15-2.96,11.63-11.86,17.95-24.89,20.27-18.58,3.31-36.44.11-54.39-2.52-7.65-1.12-15.9.87-23.05-3.68-3.69-2.35-7.3-4.81-6.05-9.84,1.32-5.34,6.02-2.95,9.21-3.1,15.78-.73,30.13,8.54,46.25,6.6,7.77-.93,15.72-.52,23.58-.33,7.13.17,12.92-2.43,14.53-9.33,1.4-6.01-2.73-10.29-7.58-14.18-16.86-13.53-35.84-15.21-54.3-6.7-49,22.59-44.47,11.59-24.76,62.66,6.21,16.07,15.09,31.26,20.51,48.56,5.96-1.15,6.04-11.63,13.31-8.18,5.82,2.77,4.54,9.29,4.76,13.88,2.37,49.26,7.42,98.5,2.52,147.89-1.3,13.05-1.47,26.23-3.24,39.2-2.45,17.94-10.45,23.47-27.85,25.99-19.03,2.75-37.69-1.01-56.52-.4-2.58.08-5.84.47-7.68-.85-30.78-21.95-69.22-24.51-102.33-40.65-13.07-6.37-26.21-12.63-38.02-20.94-8.08-5.68-13.02-14.38-14.35-24.97-2.87-22.88-.94-46.76,2.08-68.23,4.25-30.27,3.62-60.92,9.35-90.87,1.17-6.09-1.15-16.24,9.38-14.49,8.7,1.45,3.19,10.39,4.19,15.84.93,5.08.33,10.48.14,15.73-.91,25.44.63,27.52,24.94,37.48,14.22,5.83,28.17,12.31,44.39,19.44-2.24-24.81,3.08-46.65,7.05-70.49-9.42,4.92-17.1,8.48-24.33,12.8-10.68,6.39-15.49,1.98-17.14-8.69-.48-3.08-.11-6.3-.07-9.45.23-17.27-11.56-24.74-28.61-17.81-3.04,1.24-5.83,3.18-8.41.29-2.08-2.33-3.17-5.48-1.94-8.79,1.99-5.36,4.45-10.29,8.49-14.67,13.59-14.74,28.7-27.34,46.31-37.09,4.17-2.31,7.58-7.25,11.22-.8,2.46,4.37,1.14,8.68-3.79,12-9.9,6.66-19.55,13.75-28.84,21.23-3.73,3-12.12,5.23-9.15,10.72,3.1,5.73,13.66,4.6,16.88,1.77,16.88-14.82,37.93-14.41,57.81-18.53,2.42-.5,4.56-2.37,8.47-4.5-20.01-15.18-38.64-30.31-55.72-47.34-14.01-13.97-15.97-21.65-6.9-39.45,6.75-13.23,15.06-24.56,28.67-31.48,33.01-16.8,50.68-11.71,70.99,18.87,11.39,17.15,24.35,33.29,37.19,49.41,6.93,8.7,15.17,3.71,22.18-.43,17.85-10.56,36.11-19.51,56.55-24.49,17.11-4.17,30.94-.5,42.6,11.78,15.95,16.79,26.53,36.56,32.61,59.09,2.3,8.5,2.14,15.34-3.93,21.37-2.29,2.27-3.61,3.76-.85,6.04,19.79,16.39,17.22,40.47,19,61.8,2.53,30.27.71,60.9.72,91.38,0,2.1-.05,4.23-.42,6.28-.99,5.43-2.97,10.97-9.44,10.53-6.61-.44-5.51-6.45-5.51-11.05-.05-33.11-.31-66.22.06-99.32.13-11.7-1.09-22.93-5.17-33.87-2.34-6.27-1.2-16.17-13.36-11.37-8.13,3.21-17.24.1-16.29,17.01,2.22,39.72-.93,79.74-1.59,119.64-.35,21.22-.06,42.46-.06,64.31,10.86-6.3,19.01-16.51,28.19-25.48,4.09-3.99,7.92-9.77,14.25-3.7,6.73,6.45-1.46,9.62-4.21,12.36-26.58,26.44-53.49,52.54-85.35,72.84-3.82,2.43-7.14,5.78-10.24.95-2.16-3.36-1.84-8.17,1.05-11.84.58-.74,1.94-.81,2.77-1.43,12.58-9.3,30.49-16.22,36.13-28.69,5.26-11.63,2.65-29.06,2.7-43.88.17-49.39,1.99-98.7,3.94-148.03.18-4.52,3.77-12.75-6.24-12.57-8.72.16-9.44,6.64-9.46,13.39-.12,56.22-.51,112.43-3.6,168.58-.4,7.32-.84,14.64-1.67,21.92-.4,3.51-.88,7.7-6.14,7.46-4.73-.22-5.81-3.84-6.62-7.52-.33-1.51-.33-3.14-.2-4.7,4.53-51.41.85-102.96,2.67-154.41.31-8.9,1.55-17.76,2.47-26.63.97-9.4-3.07-9.99-9.88-5.7-1.32.83-2.49,1.9-3.64,2.97-4.33,4-10.15,6.08-13.54.97-3.6-5.41,2.14-9.49,6.14-12.81,12.31-10.22,28.25-12.37,42.39-18.49,6.27-2.71,10.99-3.59,10.74-12.21-.23-8.01,7.22-7.12,12.94-7.66,16.55-1.56,18.76-5.53,15.31-21.49-4.12-19.06-15.74-33.69-27.69-47.74-10.64-12.51-30.88-10.78-53.27,2.42-2.64,1.56-4.89,3.8-7.49,5.86Zm-15.98,254.86c.87-9.6.37-15.45-11.96-19.1-14.21-4.2-28.73-8.67-42.94-12.78-52.07-15.09-102.16-34.71-150.47-59.13-2.67-1.35-5.33-3.79-8.13-.45-8.4,10.05-3,34.19,8.88,39.83,22.16,10.52,43.63,21.91,67.51,29.28,40.88,12.62,81.32,26.09,123.45,34.52,14.55,2.91,14.98-1.87,13.65-12.18Zm-39.68,83.51c10.13.67,18.77-.49,27.55-2.37,5.89-1.26,9.85-2.15,9.37-9.23-.97-14.54,8.68-29.33-1-43.61-.65-.96-2.9-.93-4.43-1.19-21.39-3.6-42.55-8.13-63.15-15.04-5.81-1.95-8.74-.9-11.44,5.85-6.41,16.04-4,33.07-7.39,49.35-.71,3.42,1.45,6.23,5.02,6.73,15.78,2.23,29.8,12.94,45.47,9.49Zm-71.12-406.65c-16.49-.18-44.67,20.67-48.9,36.25-1.57,5.77-.93,9.73,6.56,7.01,14.02-5.1,25.89-.72,38.32,6.4,18.35,10.5,33.49,24.83,48.4,39.11,11.92,11.41,15.42-1.56,21.67-5.1,9.53-5.41.72-11.2-2.18-14.76-15.32-18.81-30.14-37.97-44.89-57.22-4.15-5.42-9.54-12.97-18.98-11.68Zm-45.05,373.39c6.98-17.43,3.74-34.64,7.79-50.89,1.65-6.6-.73-11.43-8.71-13.93-19.26-6.03-37.33-15.2-54.89-25.04-8.23-4.61-8.72-1.11-8.7,5.47.03,13.12.52,26.27-.22,39.34-.63,10.98,4.54,16.9,13.41,22.21,16.1,9.63,33.83,15.12,51.33,22.84Zm154.87-151.45c-11.51,10.46-23.81,8.93-35.62,7.53-12.84-1.53-29.96-10.22-37.21-4.89-9.21,6.77-3.75,25.36-6.25,38.65-.1.51-.36.98-.55,1.47-1.51,3.93.35,5.49,4,6.52,25.17,7.1,50.3,14.36,75.63,21.62v-70.88Zm-84.82-47.55c-2.6-7.29-13.7-5.49-23.34-8.07-10.75-2.87-12.53,1.82-13.76,10.32-3.34,23-.11,46.99-10.17,69.02-.51,1.11-.13,3.85.47,4.07,12.03,4.32,24,9.01,36.37,12.1,3.53.88,4.4-5.28,4.68-8.77,1.92-24.39,3.61-48.79,5.77-78.68Zm26.52-66.11c-2.84,12.05-2.99,23.76-5.54,35.28-2.7,12.16-3.77,24.67-6.26,36.89-4.86,23.81-3.48,26.31,19.5,31.65,6.09,1.41,12.07,3.35,18.2,4.5,14.83,2.77,17.12.34,12.86-14.25-9.51-32.58-31.14-60.17-38.75-94.06Zm-37.84,231.22c1.12-9.08-2.21-14.07-11.64-14.89-3.5-.3-7.12-1.54-10.26-3.18-12.26-6.41-16.59-.2-16.18,10.84.39,10.61-1.02,21.03-3.84,30.83-4.08,14.19.65,20.38,14.41,22.03,4.05.49,8.16,1.69,11.91,3.31,6.51,2.82,8.53,1.21,10.03-5.96,2.99-14.29,1.03-29.07,5.57-42.98Zm25.11-238.84c-2.73-2.04-5.21-3.65-7.42-5.57-16.94-14.68-33.79-29.5-54.13-39.46-4.58-2.24-10.36-5.14-13.79.71-2.75,4.7,1.8,7.91,4.95,11.7,12.53,15.11,29.41,24.33,45.07,35.25,8.35,5.82,16.51,8.55,25.32-2.62Zm-26.1,28.46c-8.85,1.4-14.82,1.97-20.6,3.36-6.54,1.57-12.81,4.34-19.37,5.8-22.65,5.03-25.74,9.97-20.35,35.11,21.58-11.36,41.67-24.1,60.32-44.26Zm-2.46,22.88c20.42,8.3,22.46,6.6,21.16-16.92-9.08,3.31-14.38,10.52-21.16,16.92Z"/>
</svg>