<?xml version="1.0" encoding="UTF-8"?>
<svg id="Calque_1" data-name="Calque 1" xmlns="http://www.w3.org/2000/svg" viewBox="0 0 1492.58 1812.97">
  <path d="m589.94,622.28c-14.24-19.88-22.89-36.41-35.59-48.78-27.46-26.75-56.45-52.01-85.79-76.73-61.24-51.59-120.39-105.59-157.49-177.65-19.61-38.09-36.64-79.19-45.23-120.91-15.08-73.19,18.32-144.37,74.91-176.93,60.35-34.72,146.09-26.62,206.39,21.85,95.74,76.95,161.1,172.97,181.61,296.44,3.92,23.62,10.64,46.78,16.07,70.15,1.84.12,3.69.23,5.53.35,5.78-19.89,11.91-39.69,17.27-59.7,27.86-103.99,83.63-189.37,171.24-252.4,65.53-47.15,168.5-45.62,235.09.49,31.56,21.85,48.04,51.65,50.52,89.43,5.9,90.15-19.55,169.44-86.86,231.35-64.74,59.56-131.88,116.51-198.07,174.49-5.19,4.54-11.19,8.15-16.82,12.19,1.05,1.73,2.11,3.47,3.16,5.2,7.46.35,14.93.93,22.4,1.02,140.12,1.64,280.24,3.06,420.36,4.95,31.98.43,63.94,2.61,95.92,3.75,11.7.42,21,2.97,22.26,17.06,7.28,80.93,12.37,161.51-15.03,240.52-6.83,19.69-19.28,27.01-37.59,28.08-31.92,1.87-63.88,3.96-95.82,4.02-15.01.03-19.81,5.1-20.11,19.41-.7,33.41-3.16,66.79-3.84,100.2-4.76,234.65-9.17,469.3-13.87,703.95-.96,48.11-3.76,51.34-52.47,51.9-62.5.72-125.03-.47-187.54.04-109.43.89-218.87,1.75-328.27,4.01-66.05,1.37-132.03,5.45-198.05,8.16-122.87,5.04-245.74,10.12-368.62,14.75-18.22.69-42.17-26.29-42.46-48.66-.27-20.52,3.66-41.08,3.66-61.63-.02-84.51-1.05-169.01-1.29-253.52-.33-117.34-.16-234.68-.45-352.01-.11-46.13-.38-92.28-1.63-138.39-.52-19.32-10.04-29.28-31.69-25.64-13.85,2.33-28.4,1.24-42.59.67-36.76-1.46-50.74-15.22-49.02-51.48,2.22-46.85,5.57-93.68,10.07-140.36,3.4-35.31,9.46-70.37,14.12-105.56,1.9-14.32,9.54-21.15,24.1-21.26,34.11-.26,68.23-1.89,102.32-1.27,136.52,2.46,273.02,5.58,409.53,8.42,7.48.16,14.96.02,29.66.02Zm75.63,1124.16c0-7.84-.06-12.73,0-17.62,2.31-167.06,2.54-334.19,7.84-501.15,2.68-84.34,14.76-168.38,22.18-252.59,3.88-44.12,11.25-45.86-41.54-45.63-153.53.67-307.07,1.62-460.6,2.53-5.49.03-10.98.89-17.34,1.44-.64,4.38-1.53,7.76-1.56,11.15-1.85,221.81-13.44,443.59-.88,665.46,2.28,40.25-1.44,80.84-2.28,121.27-.23,11.01-.03,22.03-.03,37.68,165.76-7.56,328.85-15,494.21-22.54Zm602.45-830.55c-4.84-.39-10.36-1.28-15.87-1.21-130.08,1.61-260.15,3.55-390.23,4.71-15.17.14-17.02,6.93-17.36,19.45-6.94,253.68-22.58,507.27-4.95,761.16,3.38,48.74,1.47,50.38,50.98,49.08,110.07-2.89,220.12-7.08,330.14-11.55,34.52-1.41,37.85-5.94,38.53-41.18,1.35-70.28,2.52-140.56,3.47-210.85,1.47-108.02,2.66-216.04,4.05-324.06.12-9.24,1.17-18.47,1.18-27.7.1-71.69.06-143.39.06-217.83Zm-633.43-27.7c5.53-76.73,10.71-148.45,16.11-223.31H51.02c-4.75,73.64-9.55,148.08-14.41,223.31h597.97Zm824.01-218.85c-11.54-1.33-16.38-2.29-21.23-2.39-161.34-3.45-322.68-6.87-484.03-10.1-14.2-.28-28.63-.43-42.55,1.81-5.38.86-13.89,8.59-13.83,13.09.84,65.78,2.89,131.55,4.67,197.85,9.46.86,13.58,1.61,17.68,1.56,168.55-2.18,337.09-4.61,505.64-6.33,15.06-.15,20.84-6.88,21.75-19.74,4.13-57.9,7.88-115.83,11.9-175.75Zm-750.2-49.42c-1.09-11.15-.95-20.47-3.02-29.26-21.65-91.79-41.39-184.12-66.27-275.04-19.58-71.57-50.56-139.43-98.98-196.54-20.58-24.28-46.87-46.03-74.75-61.26-38.53-21.05-77.91-6.46-100.84,31.02-6.96,11.38-13.3,23.9-16.41,36.75-18.04,74.5-14.18,145.46,38.31,206.99,13.82,16.19,27.83,32.38,43.19,47.06,47.75,45.66,97.14,89.64,143.92,136.24,20.93,20.85,45.44,43.88,53.54,70.44,11.22,36.79,31.96,38.75,61.13,34.99,5.54-.72,11.16-.78,20.18-1.38Zm108.24,1130.11c-13.36-278.34-2.87-552.58,3.71-828.85-31.71,2.97-59.29,4.94-86.62,8.69-4.72.65-11.21,8.36-12.11,13.62-5.52,32.21-11.13,64.53-14.05,97.04-17.63,196.47-21.51,393.47-20.72,590.59.13,31.95,3.25,63.93,6.07,95.8.49,5.55,6.02,14.88,9.89,15.24,37.31,3.47,74.77,5.39,113.83,7.86ZM1151.39,230.95c-.18-94.15-68.61-138.48-140.75-103.69-15.19,7.32-29.59,17.11-42.68,27.8-40.48,33.05-69.95,75.08-89.16,123.09-31.12,77.76-60.32,156.32-88.79,235.1-9.61,26.58-15.29,54.68-21.08,82.44-1.3,6.23,2.68,18.25,7.3,20.16,15.19,6.26,31.4,5.49,41.92-9.95,35.44-52,83.92-90.38,132.95-128.12,68.32-52.59,124.82-116.15,172.14-187.69,14.11-21.33,22.31-46.57,28.16-59.15Zm-479.91,434.56c-3.34,68.45-6.34,134.42-9.92,200.37-.86,15.81,7.36,19.87,20.73,19.26,43.31-1.98,86.63-3.74,129.92-6.14,21.66-1.2,43.26-3.61,62.16-5.24,0-27.93-.15-52.59.03-77.24.29-39.83.97-79.66,1.07-119.48.02-9.14-.01-18.93-14.23-18.37-61.73,2.45-123.48,4.5-189.76,6.85Z"/>
  <path d="m210.19,993.32c57-4.75,110.63-9.54,164.32-13.57,29.01-2.17,58.12-4.05,87.19-3.97,11.59.03,23.17,5.7,34.75,8.8-.24,2.44-.48,4.88-.71,7.32-5.64,1.38-11.22,3.64-16.93,4.02-77.97,5.15-155.94,10.24-233.94,14.8-12.15.71-25.83,1.9-34.67-17.4Z"/>
  <path d="m478.76,1712.62c6.03-11.08,7.91-18.28,10.38-18.49,43.93-3.73,87.47-16.51,137.11-7.74-5.89,6.88-8.78,13.54-12.32,13.91-42.99,4.47-86.07,8.01-135.16,12.32Z"/>
  <path d="m255.72,1051.45c44.89-3.72,84.06-6.97,125.11-10.37-9.68,22.71-99.1,31.12-125.11,10.37Z"/>
  <path d="m246.92,1108.72c16.57-11.54,34.17-14.92,53.18-7.29.39,2.57.77,5.15,1.16,7.72-17.58,2.7-35.15,5.4-52.73,8.11-.54-2.84-1.07-5.69-1.61-8.53Z"/>
  <path d="m408.54,1715.97c13.31-21.16,24.01-21.72,44.05-2.81-14.68.94-29.37,1.87-44.05,2.81Z"/>
  <path d="m1235.26,965.2c-17.63,2.89-35.17,6.57-52.9,8.52-52.14,5.74-104.36,10.81-156.55,16.11-12.81,1.3-25.66,2.54-34.59-16.35,19.33-3.63,36.87-8.33,54.69-10.01,53.69-5.08,107.47-9.36,161.28-12.99,9.24-.62,18.81,3.47,28.22,5.38-.05,3.12-.11,6.23-.16,9.35Z"/>
  <path d="m1210.8,1024.42c-29.24,2.26-58.46,4.8-87.73,6.41-3.55.2-7.37-4.64-11.07-7.14,3.18-3.26,6.13-9.09,9.57-9.38,26.56-2.31,53.21-3.86,79.86-4.76,3.56-.12,7.28,4.69,10.93,7.21-.52,2.55-1.04,5.11-1.56,7.66Z"/>
  <path d="m1130.65,1074.44c15.29-13.14,67.29-13.65,89.86,0h-89.86Z"/>
  <path d="m910.62,1620.56c-9.91,5.95-15.05,11.41-19.97,11.22-3.82-.15-10.47-7.51-10.25-11.34.25-4.4,6.55-11.66,10.48-11.83,4.84-.21,9.94,5.62,19.74,11.95Z"/>
  <path d="m969.61,1632.67c-1.15,6.38-2.3,12.77-3.45,19.15-7.25-1.95-14.5-3.91-21.75-5.86-.04-2.17-.08-4.34-.12-6.51,6.21-3.15,12.43-6.3,18.64-9.45,2.23.89,4.45,1.78,6.68,2.66Z"/>
  <path d="m604.94,722.91c-2.1,8.37-4.19,16.74-6.29,25.12-4.43-2.23-12.91-5.52-12.64-6.51,2.02-7.66,5.73-14.87,8.91-22.23,3.34,1.21,6.68,2.41,10.02,3.62Z"/>
  <path d="m580.97,803.83c3.77-6.89,7.53-13.78,11.3-20.67,4.24,3.63,8.47,7.26,12.71,10.89-4.98,5.37-9.97,10.74-14.95,16.11-3.02-2.11-6.04-4.22-9.06-6.33Z"/>
  <path d="m1361.23,725.12c23.87-21.34,28.91-20.74,37.35,5.58-16.03,2.37-31.58,5.7-47.26,6.46-6.17.3-13.77-4.02-18.39-8.58-1.94-1.92,1.98-14.36,3.5-14.42,6.72-.24,13.69,1.84,20.22,4.09,2.11.73,3.14,4.57,4.59,6.87Z"/>
  <path d="m1398.29,797.86h-26.78c-1.37-1.72-2.73-3.44-4.1-5.16,5.77-5.56,11.63-15.59,17.29-15.48,6.38.12,12.58,9.39,18.85,14.67-1.76,1.99-3.51,3.98-5.27,5.97Z"/>
  <path d="m1344.96,790.71c-8.5-1.79-17-3.59-32.11-6.77,8.89-8.2,16.67-17.26,18.08-16.36,6.99,4.47,12.3,11.57,18.21,17.74-1.39,1.8-2.79,3.59-4.18,5.39Z"/>
  <path d="m1245.68,812.12c-8.77-2.06-15.76-3.7-22.76-5.34-.8-2.57-1.6-5.14-2.41-7.72,8.07-4.12,16.13-8.24,29.9-15.27-2.34,13.99-3.39,20.3-4.74,28.33Z"/>
</svg>