<?xml version="1.0" encoding="UTF-8"?>
<svg id="Calque_1" xmlns="http://www.w3.org/2000/svg" viewBox="0 0 762.9 476">
  <path d="m762.9,218v30.7c-1.7,13.1-4.4,26.2-4.9,39.3-.6,15.2-9.2,21.3-22.4,21.6-47.7,1.2-95.4,1.8-143.1,2.2-8.9.1-18.8-1.6-17.8-13.9,1-11.7,10.5-10.1,18.8-10.1,42.6-.4,85.1-1.2,127.7-1.5,9.4-.1,14-2.8,13.9-13.1-.1-26.6.3-53.2,1.3-79.7.5-12.1-5.1-17.3-16.1-19.8-17-3.9-33.7-8.7-50.5-13.2-14.2-3.8-20.9-12.4-21.1-27.7-.3-30.7-2-61.3-3.2-92-.5-12-5.3-17.9-19-17.1-34.8,2-69.7,3.1-104.5,3.2-5.8,0-15.3-5.7-16.6-10.5-2.7-9.6,6.4-12.9,14.5-13.2C558.8,1.8,597.8.1,636.7,0c22.8-.1,28.1,4.6,30.5,27.7,3.2,30.4,4.6,61.1,5.2,91.7.3,13.6,4.2,19.9,18.2,22.2,16.1,2.7,31.7,8.2,47.5,12.6,15.4,4.3,22.4,14.3,22,30.5-.1,11.1,1.8,22.2,2.8,33.3h0Z"/>
  <path d="m199.4,476h-6.2c-25.1-8.3-45.8-21.7-57.6-46.7-10.5-22.1-5.4-51.6,13.7-65.3,4.6-3.3,12.6-1.7,19.1-2.4-.6,6.3,1.2,14.4-2.1,18.6-18.3,23.9-12.9,49.8,14.5,64.5,16.7,9,41.1,2.1,46.4-13.1,8.9-25.5-4.3-54.8-29-66.3-3.9-1.8-8.4-8.5-7.9-12.3.6-3.9,6.5-9.1,10.8-10,4.9-1,12.4.4,15.7,3.7,10.8,11.1,23.3,22.2,29.3,35.9,16.8,38,9.4,80-39.8,90.6-2.3.6-4.6,1.9-6.9,2.8h0Z"/>
  <path d="m106.4,193.4c18.9,0,35.8-.2,52.7.1,8.6.1,17.8,1.6,17.7,12.5-.1,11.1-9.4,11.8-18,11.8-16.8.1-33.5,0-49.6,0v85.6c23,0,44,.6,64.9-.1,71.8-2.5,143.5-5.5,215.3-8.1,8.9-.3,18.8-.4,19.2,12,.3,11.6-8.8,11.9-17.4,12.2-84.1,3.1-168.1,6.7-252.2,9.1-13.4.4-32.5,8.8-36.8-15.3-.1-.5-1.8-1-2.7-1.2-13.6-2.5-14.2-12.8-14.2-23.5v-68.6c-26,1.6-47.9,3.6-69.8,3.9-5.1.1-10.3-5.8-15.5-8.9,4.2-4.9,7.7-11,13-14.3,3.8-2.4,10-1,15.1-1.4,17.7-1.2,35.4-2.5,54.3-3.8-1.3-8-2.2-13.9-3.1-19.5-18.1,0-35,.8-51.8-.5-5.3-.4-10.2-6.3-15.3-9.6,4.5-4.6,8.4-10.3,13.8-13.3,4-2.2,10-1,15.1-1.2,10.5-.5,21.1-.9,34.1-1.5-8.9-33.6-17.5-65-25.6-96.6-5.3-20.8.9-29,22.3-29.2,42.1-.5,84.2.1,126.2-.8,41-.9,81.9-3,122.9-4.8,33.8-1.5,67.5-3.8,101.3-4.4,5.2-.1,10.5,7.1,15.7,11-5,4.1-9.7,11.3-15,11.8-47,3.9-94,8-141.1,9.4-52.3,1.6-104.6.5-156.9.5h-51.1c8.2,32.8,16,61.9,22.4,91.3,2.3,10.8,7.4,12.3,16.9,12.1,21-.5,42.1-.6,63.1.8,4.7.3,9,7.4,13.4,11.3-4.1,3.9-7.5,9.3-12.4,11.3s-11.1.7-16.7.7h-56.3c.8,7.2,1.4,12.5,2.1,19.2h0Z"/>
  <path d="m456.1,138.2c.6,0,1.3-.1,1.9-.1,0-36.8.1-73.7-.1-110.5,0-8.8.5-17.6,11.4-18.2,12.4-.7,12.9,9.2,13.1,18.2.2,6.1-.1,12.3,0,18.4.9,62.4,1.6,124.8,2.8,187.2.3,15.8,3.3,31.6,3,47.4-.1,4.8-6.9,9.4-10.7,14.1-4.1-3.7-8.7-7.1-12.1-11.4-1.6-2.1-1.2-5.9-1.4-9-2.5-45.3-5.2-90.7-7.9-136.1h0Z"/>
  <path d="m552.4,436.4c-25.8-.1-48.9-21.5-55-51-4-19,4.9-38,22.6-45.3,4.6-1.9,11.1.9,16.8,1.5-1,5.9,0,13.6-3.5,17.3-16.2,17.1-14.6,38.2,6.7,48.7,7.4,3.6,20.8,3.9,26.6-.6,6.6-5,9.9-16.9,10.8-26.2,1-10.5-8.6-12.9-17.6-15.4-4.4-1.2-10.5-8.5-9.9-11.9.8-4.3,8.1-11.1,11.8-10.6,9.2,1.1,19.3,3.9,26.6,9.3,15.2,11.3,18.5,33.3,10.5,54.6-6.6,17.5-25.7,29.7-46.4,29.6h0Z"/>
  <path d="m607.2,130.9c-4.2-23.8-8.8-44.7-11-65.8-.6-5.6,5.9-12,9.2-18,4.6,4.5,11.8,8.4,13.2,13.8,5.1,19.2,8.3,38.9,12.2,58.4,3.6,18.2-1.1,28.6-19,34.7-16.9,5.7-34.4,10.1-52,12.9-6.2,1-17.3-2.8-19.6-7.6-6.1-12.5-9.4-26.6-12-40.4-.6-3.3,5.3-10.7,8.9-11.2,4-.5,10.5,3.7,12.8,7.6,2.9,5,1.8,12.2,4.2,17.7,1.6,3.7,6.9,9,9.6,8.5,14.7-2.8,29.3-7.1,43.5-10.6h0Z"/>
</svg>