<?xml version="1.0" encoding="UTF-8"?><svg id="Calque_1" xmlns="http://www.w3.org/2000/svg" viewBox="0 0 643.46 766.23"><path d="m518.99,391.94c-17.39,1.26-31.85,2.31-48.29,3.5-3.13,19.78-4.75,39.57-9.96,58.36-2.15,7.74-11.59,18.3-18.45,18.87-14.18,1.19-16.7-11.55-15.77-23.54,1.23-15.98,2.97-31.92,4.8-51.19-29.27,1.61-56.09,3.08-85.5,4.69,0,14.98,2.2,29.21-.76,42.28-2.02,8.9-11.24,16.17-17.24,24.17-6.31-7.51-15.79-14.14-18.14-22.74-3.15-11.54-.78-24.58-.78-40.4-27.15,1.99-51.46,3.78-77.63,5.7,4.09,20.26,6.82,37.63,11.27,54.55,3.65,13.88.4,25.96-13.27,26.96-7.24.53-19.6-10-22.28-18.02-6.18-18.47-7.85-38.45-11.87-60.67-29.16,4.11-56.48,7.97-86.13,12.15,8.03,27.85,15.49,53.58,22.86,79.35,3.37,11.77,6.44,24.93-8.51,29.94-15.91,5.34-21.08-6.56-25.69-19.6-24.48-69.16-49.5-138.13-74.58-207.08-11.01-30.26-9.63-35.61,13.57-45.01-1.57-46.97,42.62-23.21,61.99-42.25C70.68,167.68,41.87,111.59,12.9,55.6,8.85,47.78.91,40.65.23,32.73-.63,22.71.75,7.72,7.17,2.92c10.81-8.08,19.21,2,24.9,13.07,32.19,62.69,65.18,124.97,96.95,187.87,5.47,10.83,10.32,15.47,23.02,13.77,45.17-6.05,90.63-9.98,135.74-16.41,85.16-12.14,171.15-10.98,256.66-17.36,12.92-.96,27.32.06,28.74,16.57,1.48,17.28-13.1,19.3-25.92,19.75-19.03.67-38.09.17-55.36.17-6.12,47.89-11.76,91.97-17.64,138.03,19.78-1.49,37.41-1.56,54.45-4.77,6.09-1.15,12.73-8.93,15.76-15.29,20.86-43.75,40.96-87.86,60.99-132,5.48-12.08,11.51-24.73,27.16-18.05,15.51,6.63,11.4,19.79,5.85,32.04-18.72,41.34-37.29,82.75-57.43,127.48,13.66-.9,25.28-3.8,35.92-1.69,8.41,1.66,15.61,9.47,23.34,14.55-7.02,6.87-13.08,15.44-21.35,20.07-6.53,3.66-15.97,4.12-23.75,3.14-29.51-3.73-41.84,13.29-49.68,37.93-6.67,20.96-13.57,42.02-22.77,61.92-3.34,7.22-13.63,11.22-20.76,16.69-4.49-8.16-14.21-17.66-12.53-24.26,6.27-24.76,16.25-48.58,24.88-72.75.96-2.68,2.13-5.28,4.64-11.47ZM47.76,272.24c15.44,40.33,30.57,79.83,46.02,120.15,31.76-4.79,62.03-9.35,94.56-14.25-3.1-21.97-6.51-42.86-8.87-63.87-2.32-20.65-3.58-41.43-5.45-63.99-39.39,6.85-81.76,14.22-126.25,21.96Zm297.5-39.89v133.94c32.43-2.07,62.05-3.96,91.9-5.87,6.22-46.05,12.07-89.46,18.33-135.78-37.33,2.61-73.6,5.15-110.22,7.71Zm-139.05,14.31c2.67,13.97,5.44,25.79,7.1,37.77,3.51,25.38,5.88,50.93,10.06,76.19.87,5.25,7.68,13.68,11.55,13.57,23.83-.65,47.6-3.33,70.97-5.3v-132.68c-34.57,3.62-67.06,7.02-99.68,10.44Z"/><path d="m137.91,687.83c2.03-27.11,8.14-56.31,39.52-71.91,12.59-6.26,27.01-9.44,34.53,6.03,7.06,14.51-5.3,19.9-16.4,25.7-21.36,11.17-29.84,45.3-17.37,65.84,9.29,15.3,26.31,20.51,42.01,12.86,27.57-13.43,33.76-53.16,13.02-75.45-4.73-5.09-7.94-19.6-5.12-22.06,5.84-5.1,18.72-9.36,24.14-6.17,10.69,6.29,21.49,16.42,26.53,27.56,15.63,34.54-5.75,89.47-39.51,107.1-49.77,25.99-101.28-7.29-101.35-69.5Z"/><path d="m171.43,561.04c-3.57-4.01-9.57-10.74-15.57-17.47,7.44-6.57,14.26-17.87,22.42-18.94,56.67-7.46,113.56-13.44,170.49-18.59,37.23-3.37,74.64-4.69,111.99-6.68,12.02-.64,24.9,2.82,22.92,16.53-1.06,7.32-13.32,17.81-21.36,18.62-93.35,9.38-186.85,17.19-280.32,25.42-1.46.13-2.92.3-10.59,1.11Z"/><path d="m461.44,618.7c17.86-13.73,37.19-7.6,47.31,19.76,11.4,30.82.35,57.86-19.01,81.57-18.34,22.46-43.07,29.83-71.14,23.12-30.6-7.32-48.84-34.02-46.18-65.82,2.87-34.31,27.78-64.38,56.86-66.23,9.17-.58,18.68,4.23,32.16,7.6Zm-2,17.08c-10.24,4.13-21.69,5.59-28.07,12.06-9.5,9.64-18.17,22.06-21.67,34.82-1.72,6.28,8.43,22.31,14.17,22.8,12.22,1.05,28.02-1.58,37.07-9.09,22.68-18.81,20.16-42.15-1.5-60.59Z"/></svg>