<?xml version="1.0" encoding="UTF-8"?>
<svg id="Calque_1" data-name="Calque 1" xmlns="http://www.w3.org/2000/svg" viewBox="0 0 1465.41 1158.72">
  <path d="m703.72,276.27c133.3-83.71,248.49-185.73,382.89-233.71,220.56-78.73,389.4,63.26,378.28,297.67-3.47,73.14-18.47,151.22-49.88,216.58-131.6,273.86-332.15,483.87-618.84,592.7-57,21.64-151.35,2.92-204.29-32.98C324.55,935.2,128.15,689.02,23.91,383.14-7.76,290.22-12.24,150.85,36.74,76.13,111.31-37.63,257.09-5.07,365.21,52.31c125.69,66.71,238.98,156.88,338.51,223.97Zm-400.4-7.26c-14.26,13.9-28.52,27.81-42.79,41.71,95.48,260.6,262.52,464.27,496.66,623.97,197.39-192.29,450.77-325.72,467.68-653.05-189.84-10.2-261.29,113.02-327.39,242.18-78.85,154.08-165.16,164.6-286.54,40.37-99.28-101.59-204.84-197.02-307.62-295.18Z"/>
</svg>