<?xml version="1.0" encoding="UTF-8"?>
<svg id="Calque_1" xmlns="http://www.w3.org/2000/svg" viewBox="0 0 527.16 755.9">
<path d="m467.99,112.7c2.29,15.82-7.74,28.08-11.84,41.87-1.15,3.88-3.28,7.57-3.86,11.51-5.06,34.68-23.17,61.78-48.61,84.69-37.7,33.95-82.16,55.55-130.3,69.81-9.87,2.92-20.91,2.72-31.4,2.6-23.89-.28-47.04-4.48-69-14.59-11.35-5.22-18.4-14.65-25.63-23.96-12.08-15.54-15.47-33.8-15.89-52.93-.19-8.81-2.07-17.88-.61-26.38,2.87-16.63,6.62-33.23,11.74-49.3,5.3-16.62,11.74-33.03,19.41-48.69,5.38-10.98,13.48-20.67,20.7-30.69,13.82-19.15,32.91-31.88,52.48-44.56,23.46-15.2,49.04-22.9,75.99-27.93C333.49,0,355.84-1.91,378.16,2.6c20.95,4.23,41.75,10.17,56.29,27.19,11.7,13.69,22.56,28.22,25.48,47.06,1.06,6.84,4.35,13.31,5.98,20.1,1.23,5.12,1.43,10.49,2.09,15.75Zm-109.43-66.72c-37.68,1.38-68.68,11.8-97.99,27.79-29.02,15.83-46.48,42.64-62.58,69.74-8.35,14.05-13.11,30.77-16.77,46.89-3.11,13.68-3.88,28.37-2.8,42.39,1.13,14.67,7.91,27.58,22.93,33.82,20.28,8.42,41.9,11.22,62.59,5.68,21.99-5.89,43.2-15.41,63.93-25.08,19.52-9.1,35.6-23.6,50.36-39.21,13.08-13.84,25.59-28.17,23.84-49.39-.21-2.5,1.41-5.15,2.14-7.74,1.97-6.94,4.89-13.79,5.63-20.87,1.03-9.79,4.96-16.44,13.72-21.22,3.36-1.83,7.23-6.89,7.01-10.22-.41-6.08-2.71-12.58-5.97-17.82-8.55-13.74-19.25-25.98-35.52-30.28-11.12-2.94-22.89-3.43-30.51-4.49Z"/><path d="m28.15,755.9c-4.52-.58-11.23.53-13.48-2.13-4.73-5.6-7.37-13.08-10.44-19.98-7.4-16.65-3.72-33.57.59-49.88,7.96-30.17,16.3-60.29,26.23-89.85,5.73-17.06,14.76-33.02,22.49-49.38,6.78-14.34,13.32-28.84,20.9-42.76,8.22-15.11,17.56-29.61,26.34-44.42,13.77-23.22,31.39-43.38,50.88-61.77,17.4-16.42,36.99-30.28,58.58-40.65,16-7.69,32.44-15.22,49.49-19.81,29.23-7.87,59.16-8.97,89.16-2.76,32.2,6.66,61.88,18.92,88.15,38.82,4.89,3.71,9.12,8.44,13.12,13.15,12.8,15.05,28.31,27.2,38.47,45.29,11.99,21.34,22.99,42.95,29.91,66.1,7.26,24.3,13.01,49.43,4.02,75.05-1.2,3.41,0,7.58-.64,11.28-1.37,7.87-2.43,15.95-5.26,23.32-1.07,2.8-6.44,4.65-10.18,5.6-9.3,2.35-26.19.25-33.1-9.67-1.75-2.51-2.49-6.52-2.05-9.61,1.46-10.39,3.25-20.77,5.66-30.98,4.7-19.9.12-38.87-4.16-58.15-9.32-41.94-34.71-72.52-67.19-98.52-17.2-13.77-36.05-24.25-57.47-29.65-21.87-5.52-43.61-5.27-65.47,1.08-39.24,11.39-73.45,30.79-103.95,58.28-21.54,19.41-36.58,43.07-52.07,66.74-8.34,12.75-16.8,25.5-24.03,38.88-7.79,14.43-14.11,29.65-21.25,44.44-6.98,14.47-14.57,28.67-21.11,43.33-2.81,6.3-3.53,13.51-5.36,20.26-5.5,20.28-9.49,41.16-17.12,60.6-6.06,15.43-5.4,31.34-9.66,47.78Z"/></svg>