<?xml version="1.0" encoding="UTF-8"?><svg id="Calque_1" xmlns="http://www.w3.org/2000/svg" viewBox="0 0 477.82 734.13"><path d="m392.66,280.94c-78.02-20.35-161.04-20.23-244.54-3.13-38.07,7.8-38.12,7.59-64.2-23.01,21.57-32.37,58.41-28.94,88.39-30.45,62.86-3.15,126.12,1.66,189.22,3.21,10.53.26,21.06.6,34.18-6.78-25.45-19.1-52.21-36.72-76.05-57.66-32.41-28.46-63.22-58.84-93.5-89.59-16.3-16.55-26.15-18.45-36.85,5.27-31.57,69.95-86.98,120.66-143.16,169.99-5.99,5.26-24.55,2.67-32.4-3.02-4.81-3.49-4.76-23.97.66-29.71,55.91-59.26,113.79-116.38,148.43-192.43,13.1-28.76,39.96-32.24,62.81-5.1,63.47,75.41,143.72,130.56,219.28,191.63,13.67,11.05,23.57,30.36,28.56,47.75,9.11,31.75,6.35,33.16-32.62,35.2-6.26,101.37-12.14,203.22-19.14,304.98-1.47,21.4-4.7,43.34-11.72,63.43-3.53,10.11-17.4,23.69-26.57,23.67-104.27-.26-204.59,23.14-305.38,45.57-42.08,9.36-48.73.84-51.64-46.45-.07-1.11.66-2.88.17-3.27-48.46-37.95-14.97-89.21-19.27-133.5-5.89-60.66.69-122.53,1.91-183.88.07-3.42-1.45-8.01.23-10.04,6.13-7.43,13.3-14.01,20.07-20.92,5.74,6.98,15.78,13.54,16.53,21.01,5.51,55.15,11.98,110.45,12.62,165.77.63,55.22-5.18,110.51-8.38,169.83,8.69-.96,17.12-1,25.09-2.91,86.06-20.61,171.15-47.14,261.14-43.87,19.42.71,27-8.65,28.22-25.93,4.93-70.01,9.17-140.08,14.71-210.05,3.17-40.06,8.34-79.95,13.22-125.63Z"/></svg>