<?xml version="1.0" encoding="UTF-8"?><svg id="Calque_1" xmlns="http://www.w3.org/2000/svg" viewBox="0 0 462.85 522.77"><path d="m382.75,187.71c-1.19,17.77-2.27,35.55-3.61,53.31-1.71,22.58-3.73,45.13-5.45,67.71-2.04,26.87-3.83,53.77-5.83,80.65-1.64,22.06-3.47,44.1-5.15,66.15-.77,10.12-1.38,20.25-2.07,30.37-.26,3.72-4.57,7.41-9.48,8-1.64.2-3.33.11-4.99.04-3.56-.16-5.32.94-5.61,5.04-.56,8.01-7.13,13.99-15.44,15.14-12.93,1.78-25.84,1.73-38.83.48-8.42-.81-16.94-.73-25.41-.84-14.28-.2-28.58-.71-42.84-.18-9.56.36-19.06,2.27-28.58,3.52-14.33,1.89-28.62,4.13-42.99,5.56-6.18.61-11.68-1.17-15.85-7.2-4.01-5.79-8.92-10.69-8.08-18.52.12-1.13-1.01-3.04-2.06-3.55-6.76-3.27-7.91-9.85-8.6-15.9-1.39-12.17-1.65-24.47-2.54-36.7-.83-11.44-1.73-22.87-2.84-34.28-2.35-24.13-5.05-48.2-10.95-71.81-4.31-17.24-8.42-34.54-12.08-51.92-5.21-24.74-10.25-49.53-14.76-74.41-4.45-24.56-8.18-49.24-12.16-73.88-.84-5.2-3.17-8.7-8.87-9.02-10.59-.59-21.17-1.47-31.77-1.67-6.78-.13-11.8-3.92-12.77-10.51-.74-5.06-1.74-10.1-2.92-15.07-1.3-5.46,3.35-11.87,9.71-11.9,7.63-.03,15.28.71,22.91,1.36,15.4,1.31,30.76,3,46.17,4.12,8.72.64,17.5.39,26.24.73,1.94.08,3.87.88,5.76,1.46,6.24,1.92,9.37-.76,8.62-7.12-2.26-19.14-1.82-38.15,2.84-56.97.71-2.87,1.02-5.92,1.03-8.88.04-11.04,4.5-16.66,14.91-20.08,4.52-1.49,7.85-1.31,12,1.2,3.57,2.16,8.15,2.69,12.31,3.81,14.71,3.96,29.35,8.25,44.2,11.6,6.73,1.52,13.94.76,20.86,1.64,15.12,1.91,30.84.53,45.24,6.17,8.57,3.35,18.36,5.38,24.24,13.8.37.53.92,1.11,1.5,1.29,10.24,3.14,9.59,11.82,11,20.06,2.24,13.07,5.5,25.98,8.86,38.83.47,1.78,3.91,3.86,6.06,3.95,19.28.84,38.58,1.58,57.88,1.7,13.62.08,27.25-1.26,40.87-1.16,8.75.07,17.78.53,26.14,2.8,7.67,2.08,11.51,9.42,12.85,17.05,1.79,10.19-1.74,16.66-9.44,18.84-2.02.57-4.38.88-6.38.42-14.75-3.42-29.53-.17-44.29-.43-.82-.01-1.65.29-2.48.28-13.59-.17-11.35,1.65-13.48,11.85-2.26,10.83-2.98,21.99-4.37,33,.26.03.53.06.79.1Zm-240.78,287.16c.16,3.16.3,6.48.52,9.8.21,3.22,1.57,4.71,5.18,4.22,13.17-1.8,26.32-4.01,39.56-4.87,20.41-1.33,40.98-3.31,61.29-2.01,23.46,1.5,46.77,2.1,70.17.4,1.26-.09,3.28-1.78,3.44-2.93.95-7.2,1.53-14.44,2.11-21.68.96-11.94,1.65-23.9,2.78-35.83,2.67-28.14,5.68-56.26,8.26-84.41,1.15-12.6,1.3-25.29,2.44-37.89,1.91-21.05,4.59-42.03,6.32-63.09,1.71-20.87,2.47-41.82,3.97-62.72.63-8.78,2.2-17.48,3.2-26.23.58-5.06-.91-6.74-5.95-6.93-18.44-.7-36.88-1.3-55.31-2.04-18.3-.73-36.59-1.58-54.88-2.4-14.78-.67-29.56-1.42-44.34-2.06-14.8-.65-29.62-.99-44.41-1.87-16.44-.98-32.85-2.48-49.28-3.6-4.8-.33-6.74,2.09-5.81,6.82.57,2.93,1.69,5.76,2.16,8.69,2.46,15.43,4.5,30.93,7.24,46.3,4.56,25.52,9.34,51,14.43,76.42,3.94,19.69,8.82,39.2,12.69,58.91,4.01,20.36,7.77,40.79,10.81,61.31,4.3,29.01,6.02,58.2,3.42,87.69Zm8.84-400.96c.38.04.76.08,1.13.12,0,4.33-.3,8.68.07,12.97.52,6.08,3.15,8.56,9.13,9.19,4.14.44,8.29.76,12.45.92,18.8.73,37.62,1.17,56.4,2.13,16.12.83,32.2,2.31,48.32,3.18,1.29.07,3.16-2.12,3.92-3.68.52-1.06-.32-2.88-.76-4.29-1.96-6.28-5.05-12.43-5.75-18.84-1.09-9.94-6.72-18.04-16.55-20.34-3.39-.8-6.88-1.27-10.36-1.53-10.6-.81-21.29-.91-31.82-2.29-12.16-1.6-24.19-4.19-36.25-6.51-6.36-1.22-12.61-2.97-18.97-4.15-4.09-.76-6.63.99-7.19,5.48-1.14,9.23-2.51,18.43-3.78,27.64Z"/><path d="m240.23,381.39c.15,3.33.36,6.65.45,9.98.25,8.61-4.07,16.19-9.98,17.6-7.02,1.68-15.84-3.18-20.18-10.03-6.51-10.28-5.51-21.58-5.85-32.86-.34-11.11-1.01-22.25-2.28-33.29-1.51-13.04-3.54-26.04-5.87-38.96-2-11.11-4.74-22.08-7.17-33.11-3.36-15.24-6.75-30.48-10.11-45.73-1.17-5.29-.47-10.19,4.51-13.16,4.96-2.95,10.42-3.63,15.72-.78,6.88,3.71,11.84,9.17,13.71,16.93,4.34,17.95,8.67,35.89,12.8,53.89,2.9,12.63,5.76,25.27,8.05,38.02,1.79,9.97,2.91,20.09,3.91,30.18,1.35,13.71,2.3,27.47,3.42,41.2-.38.03-.75.06-1.13.09Z"/><path d="m295.52,348.98c.28,15.08,1.07,32.7.68,50.29-.15,6.58-2.28,13.42-4.92,19.53-2.44,5.66-7.43,7.02-13.04,4.66-5.04-2.12-8.13-5.99-10.1-11.5-4.8-13.39-4.29-27.4-5.76-41.15-1.27-11.87-.83-23.92-2.02-35.8-2.03-20.18-4.39-40.35-7.3-60.43-2.12-14.63-5.4-29.09-8.09-43.64-.73-3.96-2.65-7.88.65-11.87,5.83-7.04,17.06-7.91,24.38-2.31,7.74,5.92,9.94,13.98,11.3,22.96,1.85,12.15,4.65,24.16,6.55,36.3,1.54,9.83,2.47,19.77,3.49,29.67,1.4,13.58,2.63,27.17,4.18,43.3Z"/><path d="m180.4,304.49c1,9.26,2.04,18.52,2.97,27.79.9,8.92,1.62,17.86,2.56,26.78,1.06,10.04,2.46,20.05,3.32,30.11.34,3.92.23,8.1-.86,11.82-.67,2.3-3.25,4.95-5.54,5.7-8.78,2.9-17.23-1.44-22.08-9.61-11.8-19.86-8.39-41.72-11.74-62.62-3.02-18.88-4.89-37.94-7.63-56.87-1.44-9.98-3.62-19.86-5.56-29.77-.28-1.44-.96-2.82-1.57-4.18-2.68-5.98-1.68-11.87,2.86-16.57,3.86-4,6.72-4.54,11.4-1.48,9,5.86,16.58,13.41,19.7,23.75,4.06,13.45,6.78,27.31,10.03,41,1.1,4.64,2.06,9.31,3.08,13.97-.32.06-.64.13-.95.19Z"/></svg>