<?xml version="1.0" encoding="UTF-8"?><svg id="Calque_1" xmlns="http://www.w3.org/2000/svg" viewBox="0 0 674.33 777.11"><path class="cls-1" d="m673.33,662.89c-1.17,3.27-1.46,7.45-3.7,9.59-3.62,3.46-8.79,8.02-12.81,7.58-3.93-.43-10.09-6.32-10.38-10.18-2.22-29.39-3.55-58.86-4.44-88.33-.26-8.68,4.16-17.43,14-14.97,4.88,1.22,10.4,9.94,11.15,15.84,3.01,23.7,4.27,47.62,6.18,71.45,0,3.01,0,6.01,0,9.02Z"/><path class="cls-1" d="m36.55,414.11c-7.96,5.82-12.27,10.75-17.56,12.31-4.9,1.45-13,1.23-15.75-1.82-2.81-3.12-2.98-12.02-.45-15.78,4.3-6.38,11.04-11.71,17.8-15.73,55.02-32.76,110.35-65,165.35-97.79,5.92-3.53,10.04-9.94,15.52-14.37,4.72-3.83,10.11-9.48,15.32-9.62,31.24-.81,62.54.43,93.79-.32,53.54-1.27,107.06-3.44,160.58-5.35,21-.75,41.99-1.7,62.98-2.77,9.01-.46,18.25-.55,19.34,11.07,1.07,11.42-8.1,14.21-16.87,14.93-18.45,1.5-36.96,2.3-55.47,3.04-80.51,3.21-161.07,5.5-241.49,10.16-14.51.84-29.05,10.1-42.57,17.36-39.53,21.23-78.54,43.41-117.76,65.22.47,1.43.93,2.87,1.4,4.3,7.92-.9,15.81-2.1,23.75-2.64,71.4-4.91,142.76-10.36,214.21-14.29,45.43-2.5,90.99-2.65,136.49-3.95,9.25-.27,18.28.88,18.59,12.22.31,11.19-8.83,13.58-17.85,13.74-35.52.62-71.09-.1-106.55,1.58-45.48,2.15-90.88,6.1-136.31,9.39-4.33.31-8.6,1.4-11.81,1.95,4.72,78.4,9.37,155.63,14.08,233.97h53.13c.56-5.82,1.66-12.04,1.68-18.25.21-50.61.21-101.21.29-151.82,0-4.51-1.46-9.84.44-13.34,3.18-5.87,7.91-14.16,13.06-15.01,9.76-1.61,12.99,6.97,12.97,16.02-.12,54.11-.22,108.23-.32,162.34-.01,6.41,0,12.82,0,18.37,68.69,1.66,135.86,3.28,201.5,4.87,0-36.02.66-72.41-.21-108.76-.7-29.53-3.28-59.01-4.92-88.52-.53-9.57-2.1-21.05,11.79-21.41,13.14-.34,14.01,11.28,14.42,20.68,2.84,65.54,5.26,131.1,7.85,196.65.05,1.31.42,2.6,1.22,7.39,19.99-22.85,38.19-43.87,56.64-64.68,15.58-17.58,31.71-34.68,46.99-52.51,3.78-4.4,7.84-11.05,7.35-16.24-4.62-48.82-9.76-97.6-15.79-146.27-1.82-14.68-6.87-28.96-10.67-44.36-27.28,15.98-54.11,29.65-78.53,46.77-13.89,9.74-24.3,24.74-35.36,38.13-5.69,6.9-10.48,15.21-20.36,9.33-10.34-6.15-7.99-16.28-1.62-23.38,15.55-17.33,30.59-35.82,48.95-49.73,24.59-18.64,52.12-33.4,78.39-49.83,10.99-6.87,19.15-3.32,21.71,9.55.38,1.93-.54,4.93.5,5.79,27.36,22.7,22.96,56.45,27.77,85.88,6.68,40.89,8.16,82.67,10.98,124.13.47,6.85-1.54,15.76-5.85,20.73-27.17,31.32-53.04,64.34-83.8,91.81-28.19,25.17-36.39,52.41-27.84,87.28,1.3,5.31,1.48,10.91,2.03,16.4.99,9.91,1.38,20.94-11.48,22.1-12.96,1.16-14.11-9.61-14.95-19.67-1.56-18.46-3.84-36.86-5.37-55.33-.84-10.09-4.05-14.24-15.71-14.15-23.98.2-47.98-3.41-71.97-3.36-96.58.22-193.16,1.18-289.74,2-18.52.16-37.03,1.32-55.55,1.35-22.16.04-31.96-10.85-33.31-32.54-4.58-73.91-9.85-147.77-15.09-225.16Zm25.62,2.3c6.2,77.6,12.21,152.67,18.11,226.53,27.73,0,55.6.53,83.43-.16,23.27-.58,24.25-1.27,23.15-24.84-3.25-69.61-7.37-139.18-11.23-210.36-37.71,2.93-74.42,5.79-113.46,8.83Z"/><path class="cls-1" d="m340.79,133.08c15.61-1.61,27.2,4.05,31.01,18.45,4.97,18.81,2.3,36.99-11.83,51.76-14.25,14.91-41.39,19.46-60,10.58-23.69-11.3-26.52-54.82-1.29-71.44,21.59-14.22,18.15-32.6,17.16-51.09-1.17-21.87-7.54-42.74-26.72-56.39-16.24-11.56-35.04-10.72-51.76,1.61-21.59,15.92-35.47,37.86-46.31,61.82-23.98,53.02-35.77,109.15-41.64,166.72-.46,4.48.59,10.09-1.72,13.18-3.92,5.25-9.96,8.91-15.11,13.23-3.37-5.34-9.81-10.85-9.55-16.01.98-19.42,2.16-39.24,6.91-57.99,10.78-42.54,22.15-85.07,36.33-126.56,9.94-29.09,28.18-54.14,52.9-73.45,37.64-29.39,87.12-18.43,109.41,24.05,12.83,24.45,16.07,47.68,12.21,91.52Zm-24.41,58.67c20.9.11,31.23-8.91,31.58-23.14.33-13.05-10.86-11.65-18.17-12.25-12.22-1-23.18,10.4-21.93,23.2.52,5.26,6.84,9.95,8.52,12.19Z"/><path class="cls-1" d="m394.72,593.26c-2.28-43.98-4.78-87.96-6.62-131.96-.31-7.27.73-15.44,4-21.71,2.1-4.02,10-7.97,14.23-7.05,3.91.85,8.89,8.1,9.14,12.75,2.42,44.9,4.05,89.85,5.63,134.79.48,13.5.4,27.04,0,40.55-.26,8.95-4.13,16.17-14.37,15.41-10.27-.76-12.52-8.34-11.87-17.37.61-8.47,1.02-16.95,1.52-25.43-.55,0-1.11.01-1.66.02Z"/><path class="cls-1" d="m49.79,737.29c-1.8-16.33-3.13-32.74-5.57-48.97-1.33-8.87-1.26-16.85,8.7-19.11,10.79-2.45,15.9,5.14,16.74,14.44,2.31,25.78,4.53,51.62,4.9,77.47.07,4.76-8.68,9.66-13.35,14.49-4.22-5.24-10.31-9.9-12.18-15.88-2.13-6.82-.49-14.81-.49-22.3.42-.04.84-.09,1.26-.13Z"/></svg>
