<?xml version="1.0" encoding="UTF-8"?><svg id="Calque_1" xmlns="http://www.w3.org/2000/svg" viewBox="0 0 602.49 696.76"><defs><style>.cls-1{fill:#fff;}.cls-1,.cls-2{stroke:#1d1d1b;stroke-miterlimit:10;}</style></defs><path class="cls-1" d="m189.23.58c-4.49,2.25-8.98,4.5-13.47,6.75,8.28,27.1,15.21,54.54,25.17,81.23,13.19,35.35,2,54.7-39.87,75.71-47.03,23.61-97.01,57.09-119.94,96.3-68.68,117.45-45.15,235.64,32.33,345.58,44.89,63.7,125.9,91.26,209.91,90.07,164.65-2.32,308.61-147.51,317.73-272.64,9.97-136.92-61.9-238.48-189.27-319.05-12.8-8.1-33.94-7.42-51.22-10.82,7.54,12.37,11.57,27.93,23.29,36.49,31.1,22.73,77.19,36.91,96.69,64.28,109.41,153.51,106.5,327.32-113.58,439.67-72.22,36.87-175.97,24.69-229.76-28.76-100.01-99.38-106.76-276.85-.04-383.28,17.11-17.06,48.97-24.28,74.01-36.05,10.58,21.77,23.74,42.97,31.14,65.43,11.37,34.5,16.17,70.55,29.43,104.47,4.08,10.43,26.69,16.03,40.81,23.84,7.35-10.89,17.42-21.2,21.23-32.86,3.3-10.12,1.07-22.02-1.43-32.71-14.68-62.86-24.97-126.84-47.03-187.97-17.23-47.75-46.56-93.52-96.14-125.7Z"/><path class="cls-2" d="m189.23.58c49.58,32.18,78.91,77.95,96.14,125.7,22.06,61.13,32.35,125.11,47.03,187.97,2.5,10.69,4.73,22.59,1.43,32.71-3.8,11.66-13.88,21.97-21.23,32.86-14.12-7.81-36.74-13.42-40.81-23.84-13.26-33.92-18.07-69.97-29.43-104.47-7.4-22.46-20.56-43.66-31.14-65.43-25.04,11.77-56.9,18.99-74.01,36.05-106.72,106.42-99.97,283.89.04,383.28,53.78,53.45,157.53,65.63,229.76,28.76,220.08-112.35,222.98-286.16,113.58-439.67-19.5-27.36-65.59-41.54-96.69-64.28-11.72-8.56-15.75-24.12-23.29-36.49,17.27,3.4,38.41,2.72,51.22,10.82,127.37,80.57,199.24,182.13,189.27,319.05-9.11,125.14-153.08,270.32-317.73,272.64-84.01,1.18-165.02-26.37-209.91-90.07C-4.04,496.21-27.57,378.03,41.11,260.57c22.93-39.21,72.91-72.69,119.94-96.3,41.87-21.02,53.06-40.36,39.87-75.71-9.96-26.69-16.89-54.13-25.17-81.23,4.49-2.25,8.98-4.5,13.47-6.75Z"/></svg>