<?xml version="1.0" encoding="UTF-8"?><svg id="Calque_1" xmlns="http://www.w3.org/2000/svg" viewBox="0 0 717.83 634.18"><path d="m702.33,197.4c5.22-6.54,17.42-21.88,15.24-27.87-2.28-6.26-12.82-12.9-28.2-17.78-7.93-2.53-18.69.01-27.19,2.49l-3.17.92c-41.72,12.15-84.84,24.71-126.68,38.71-53.63,17.96-55.18,17.45-83.32-25.86l-4.14-6.35c-30.21-46.26-64.69-90.9-98.04-134.07l-10.75-13.93c-7.39-9.58-22-14.97-36.29-13.39-10.34,1.13-18.14,5.76-21.39,12.68l-1.76,3.74c-17.27,36.75-35.11,74.76-42.5,113.92-10.52,55.83-22.62,96.51-82.91,111.56-35.84,8.95-70.62,25.29-104.27,41.09-7.04,3.31-14.07,6.61-21.12,9.85-7.31,3.36-13.14,10.33-19.3,17.7-2.13,2.54-4.31,5.15-6.58,7.62,2.5,2.25,4.93,4.67,7.31,7.02,6.83,6.78,13.27,13.18,20.77,15.48,60.47,18.58,114.5,33.43,165.18,45.39,23.43,5.52,31.45,16.99,28.6,40.91-3.66,30.72-6.93,62.02-10.08,92.29-1.2,11.52-2.41,23.03-3.62,34.53l1.46.15-.02,5.75c-.02,1.99-.04,3.97.04,5.95.17,4.27.13,8.63.08,12.99-.23,19.92-.44,38.73,21.38,49.26,31.63,15.29,56.24-1.49,71.28-18.24,21.64-24.09,49.45-56.31,72.61-91.97,29.07-44.79,58.1-54.2,103.54-33.61,4.71,2.14,9.37,4.42,14.02,6.7,5.14,2.52,10.28,5.04,15.52,7.36,9.12,4.06,18.23,8.19,27.33,12.32,26.47,12.02,53.84,24.45,81.43,34.72,6.59,2.46,15.08.69,24.06-1.17,3.09-.64,6.24-1.29,9.36-1.77-.32-1.89-.61-3.8-.89-5.71-.95-6.42-1.83-12.49-4.4-17.6l-9.26-18.56c-15.15-30.48-30.82-62-48.83-91.32-19.51-31.76-17.28-54.6,7.96-81.5,29.99-31.95,57.67-67.16,84.44-101.22,7.67-9.76,15.33-19.51,23.06-29.2Zm-83.61,25.9c-4.8,6.2-9.36,12.23-13.81,18.12-9.66,12.78-18.78,24.85-28.64,36.36-15.04,17.56-31.02,34.78-46.48,51.44l-11.25,12.15c-11.61,12.57-12.22,23.35-2.2,38.47,14.18,21.36,26.66,44.27,38.72,66.43,3.32,6.1,6.64,12.21,10,18.28,1.68,3.04,1.91,6.51,2.19,10.92.14,2.23.3,4.79.69,7.74l.72,5.54-5.13-2.2c-11.65-5-22.89-10.02-33.9-14.94-23.56-10.53-45.81-20.48-68.75-28.68-63.88-22.83-82.06-16.96-121.59,39.28-13.89,19.77-27.53,40.25-40.7,60.05-6.11,9.19-12.23,18.37-18.39,27.52l-1.24,1.83-15.94-3.78.22-2.73c.62-7.7,1.19-15.41,1.77-23.11,1.28-17.2,2.6-34.98,4.43-52.44,1.14-10.81,2.66-21.75,4.15-32.32,2.17-15.5,4.42-31.53,5.42-47.31,1.63-25.78-8.6-40.78-32.18-47.21-55.09-15.03-98.11-30.22-139.46-49.24l-6.82-3.13,36.13-14.08c22.77-8.86,45.55-17.72,68.26-26.74,3.92-1.56,7.87-3.09,11.82-4.62,14.94-5.79,30.4-11.79,44.54-19.43,5.56-3.01,10.18-12.32,11.87-19.98,4.59-20.75,8.77-41.98,12.82-62.51,3.83-19.41,7.79-39.47,12.08-59.14,1.51-6.92,4.64-13.4,8.97-22.37,2.41-4.99,5.23-10.84,8.41-18.07l2.27-5.16,3.25,4.6c9.74,13.8,19.43,26.72,28.81,39.22,19.6,26.12,38.1,50.79,52.39,77.5,45.45,85.03,62.91,91.04,155.64,53.63,5.95-2.4,11.86-4.88,17.77-7.37,8.56-3.6,17.12-7.2,25.78-10.54,2.38-.9,4.73-.18,8.28.92,1.86.58,4.22,1.32,7.29,2.05l4.8,1.15-3.02,3.9Z"/></svg>