<?xml version="1.0" encoding="UTF-8"?><svg id="Calque_1" xmlns="http://www.w3.org/2000/svg" viewBox="0 0 662.12 590.77"><path d="m107.34,390.99c-28.16,0-52.19,3-74.86-1.22-12.04-2.24-21.73-17.02-32.48-26.14,11.95-8.83,22.8-20.59,36.18-25.56,10.61-3.94,24.48-.58,36.63,1.32,32.62,5.1,48.98-7.41,46.86-44.42-18.21,0-38.19,4.01-55.32-1.23-14.38-4.4-25.46-19.58-38-29.99,12.93-7.52,26.48-22.34,38.67-21.29,51.37,4.42,82.75-13.06,119.79-53.82C301.57,60.2,450.15-8.15,627.86.78c12.36.62,32.87,16.2,34.04,26.56,2.64,23.43-18.55,26.65-37.91,25.6-147.08-7.95-268.34,51.73-377.18,143.59-10.21,8.62-18.66,19.36-27.67,29.34-2.73,3.03-4.58,6.84-8.49,12.82,94.51,3.42,185.98,6.67,277.45,10.12,14.56.55,30.55-1.29,43.14,4.22,9.67,4.23,19.73,17.86,20.61,28.08.55,6.44-15.19,20.01-24.17,20.5-33.58,1.83-67.39-.27-101.11-1.17-71.89-1.93-143.77-4.42-215.67-5.9-35.59-.73-35.61.05-39.82,42.67,4.92.99,10.06,2.83,15.23,2.95,128.13,2.84,256.27,5.35,384.39,8.35,22.27.52,55.55-7.89,56.04,25.08.53,35.68-34.38,28.1-57.36,27.78-122.53-1.72-245.03-4.76-367.55-7.28-12.05-.25-24.11-.03-35.76-.03-5.48,47.78,12.02,82.75,54.64,103.83,69,34.14,141.92,52.21,218.73,34.52,46.51-10.71,91.48-28,137.51-41.02,8.41-2.38,22.42-1.79,27.05,3.43,5.93,6.69,9.13,21.1,5.93,29.19-4.06,10.26-14.25,22.07-24.37,25.38-103.31,33.79-206.77,59.43-316.64,25.26-91.11-28.34-159.36-73.29-161.6-183.63Z"/></svg>