<?xml version="1.0" encoding="UTF-8"?><svg id="Calque_1" xmlns="http://www.w3.org/2000/svg" viewBox="0 0 511.52 769.49"><path class="cls-1" d="m447.04,32.6c-23.89,7.46-39.82,22.04-52.74,40.35-34.24,48.5-55.75,102.67-70.64,159.8-2.37,9.09-2.27,22.62-16.19,19.99-13.37-2.52-7.78-14.86-7.1-23.58,4.25-54.9,7.02-109.75-8.22-163.58-3.29-11.63-8.15-23.02-13.86-33.66-2.48-4.63-9.14-10-13.56-9.72-4.09.26-10.23,7.16-11.14,11.95-5.46,28.9-12.79,57.97-13.44,87.12-.65,29.63,5.68,59.42,9.01,89.13.31,2.78,2.12,5.87,1.36,8.21-1.64,5.07-4.48,9.76-6.84,14.6-4.18-3.6-11.06-6.56-12.09-10.91-4.83-20.49-9.95-41.22-11.44-62.11-2.95-41.35-.09-82.63,10.9-122.81,4.53-16.57,9.17-34.96,31.45-36.29,21.74-1.29,30.85,14.34,38.87,30.96,19.06,39.51,21.75,82.03,22.79,128.23,2.75-4.96,4.05-7.31,5.34-9.66,17.38-31.49,33.95-63.48,52.44-94.3,11.34-18.9,29.38-31.38,49.62-40.06,21.65-9.29,36.27-.66,37.74,23.02,1.95,31.36-2.69,62.07-15.85,90.61-21.37,46.34-44.04,92.08-66.22,138.17,31.15,19.52,40.55,48.49,30.93,92.22-5.84,26.55-21.35,45.87-42.74,60.43-31.87,21.7-66.94,35.43-106.08,36.71-68.93,2.25-113.45-50.98-97.12-117.86,10.17-41.65,34.64-73.32,73.14-93.3.83-.43,1.71-1.43,2.43-1.31,6.14,1.03,12.25,2.25,18.37,3.42-3.03,4.96-4.88,12.3-9.28,14.48-29.76,14.75-49.19,38.49-61.4,68.57-27,66.52,25.53,110.54,77.27,105.47,37.63-3.68,71.16-16.37,100.09-40.08,25.06-20.55,34.85-62.58,23.36-92.78-1.29-3.4-3.74-6.44-5.99-9.39-6.98-9.17-15.02-17.69-20.71-27.58-2.06-3.58.21-10.9,2.47-15.56,19.81-40.86,40.77-81.18,59.94-122.33,13.86-29.75,19.31-61.48,15.12-96.55Z"/><path class="cls-1" d="m57.39,659.11c17.71,15.38,35.47,29.85,52.15,45.47,32.71,30.64,73.81,36.95,115.58,40.7,61.31,5.5,121.74,1.53,179.37-22.5,13.23-5.52,25.14-14.18,38.18-20.26,5.01-2.34,11.47-1.52,17.27-2.14-1.58,6.03-1.25,14.22-5.12,17.63-8.28,7.31-18.2,13.37-28.38,17.82-89.07,38.91-181.07,41.33-273.44,16.37-22.76-6.15-42.65-24.23-62.87-38.26-21.48-14.9-41.66-31.67-62.72-47.18-3.91-2.88-9.78-2.98-13.98-5.59-4.44-2.76-7.98-6.98-11.91-10.57,4.9-4.17,10.21-12.34,14.65-11.89,62.97,6.33,103.31-25.78,133.03-76.7,13.22-22.66,25.43-45.96,39.5-68.06,7.16-11.26,17.02-20.95,26.54-30.46,3.27-3.26,9.27-5.31,13.93-5.15,3.6.12,8.58,3.87,10.07,7.27,1.04,2.37-1.87,8.94-4.55,10.12-17.69,7.75-26.15,23.65-35.19,38.84-11.26,18.92-21.57,38.4-32.4,57.58-22.52,39.9-53.79,69.39-98.42,82.97-3.86,1.18-7.62,2.68-11.29,3.99Z"/><path class="cls-1" d="m509.9,711.6c-4.4,1.92-7.93,4.79-11.33,4.63-4.63-.21-10.39-1.44-13.53-4.46-19.21-18.51-38.35-37.15-56.52-56.68-37.19-39.98-67.49-84.95-93.25-133.05-2.65-4.94-6.29-9.95-6.88-15.21-.51-4.51,2.7-9.44,4.27-14.18,4.3,1.83,9.92,2.56,12.61,5.75,4.42,5.25,7.02,12.06,10.27,18.28,35.34,67.71,83.98,124.87,139.24,176.83,4.28,4.03,7.63,9.05,15.13,18.08Z"/><path class="cls-1" d="m309.84,355.01c-9.12,1.84-21.88,7.49-24.5,4.42-11.42-13.37,7.65-17.48,11.37-29.49-2.42-3.7-7.1-8.62-9.01-14.45-1.6-4.88.04-10.83.24-16.31,5.15,1.49,10.85,2.07,15.29,4.75,3.7,2.23,5.92,6.93,9.4,11.3,5.18-4.87,9.23-10.37,14.67-13.19,3.62-1.87,9.21.09,13.92.33-.29,4.64.73,9.96-1.21,13.76-2.46,4.81-7.95,7.97-10.94,12.61-1.83,2.84-2.92,7.74-1.74,10.64,3.03,7.43,11.89,15.5.93,21.34-4.28,2.28-13.02-3.87-18.41-5.73Z"/><path class="cls-1" d="m255.26,343.92c-8.41,7.66-13.47,14-20.04,17.16-1.87.9-10.44-6.75-11.91-11.68-2.52-8.48,7.86-22.1,14.76-20.14,5.39,1.53,9.44,7.76,17.19,14.67Z"/><path class="cls-1" d="m360.02,348.05c7.43,7.49,15.46,11.84,16.13,17.13,1.1,8.62-5.94,14.53-15.4,14.17-10.29-.39-15.83-7.22-14.63-16.65.54-4.28,7.1-7.79,13.9-14.64Z"/></svg>
