<?xml version="1.0" encoding="UTF-8"?><svg id="Calque_1" xmlns="http://www.w3.org/2000/svg" viewBox="0 0 480.69 726.36"><path d="m85.68,726.36c-28.24-5.38-55.46,0-74.71-23.48-14.39-17.56-15-40.82.37-57.46,43.11-46.69,93.22-84.74,146.88-118.35,55.35-34.67,111.55-68.08,165.89-104.28,40.2-26.78,42.1-94.24,5.03-125.95-36.42-31.15-74.1-60.81-110.73-91.72-39.15-33.03-78.33-65.84-124.3-89.44-8.54-4.38-16.36-10.78-23.32-17.49-19.68-18.97-22.99-41.14-6-58.36,5.25-5.32,8.57-12.5,13.32-18.38,21.08-26.11,46.3-27.98,73.42-7.8,41.55,30.92,84.12,60.46,125.88,91.11,22.17,16.27,43.6,33.56,65.25,50.55,25.4,19.93,52.72,37.99,75.33,60.72,18.44,18.54,34.96,41.08,45.51,64.87,14.17,31.94,18.53,67.24,16.85,102.77-1.82,38.64-15.1,72.77-46.58,95.42-49.29,35.46-100.68,68.01-151.18,101.79-55.73,37.28-114.17,70.8-160.07,121.36-9.92,10.93-25.38,16.83-36.84,24.12Z"/></svg>