<?xml version="1.0" encoding="UTF-8"?><svg id="Calque_1" xmlns="http://www.w3.org/2000/svg" viewBox="0 0 516.64 767.33"><path d="m345.77,34.72c23.96-8.35,55.42-19.51,87.01-30.27,26.71-9.09,35.98-4.99,49.94,19.45,3.5,6.13,8.77,11.69,14.32,16.15,28.48,22.87,25.99,48.61-7.79,62.28-23.42,9.47-47.71,17.59-72.34,23.06-37.65,8.36-69.04,28.76-100,49.33-34.34,22.82-68.37,46.8-99.09,74.16-30.66,27.31-60.59,56.91-84.31,90.16-22.95,32.17-30.81,77.47,12.54,117.42,36.37,33.51,79.34,54.74,121.21,78.9,28.26,16.3,53.8,37.24,81.33,54.91,44.27,28.42,81.15,65.11,114.38,104.98,10.18,12.21,11.35,32.37,15,49.24.8,3.71-4.69,12.05-8.51,12.93-19.05,4.39-38.41,8.64-57.85,9.85-29.7,1.84-44.35-24.19-65.04-38.86-40.06-28.39-79.33-57.92-119.81-85.7-47.27-32.44-97.42-61.01-142.71-95.93-39.82-30.71-68.95-71.86-80.72-122.32-8.87-38.05.98-73.07,17.73-107.92,25.85-53.77,65.75-96.05,109.15-134.4,44.77-39.56,93.18-75.19,141.69-110.21,19.84-14.32,44.1-22.51,73.87-37.19Z"/></svg>