<?xml version="1.0" encoding="UTF-8"?>
<svg id="Calque_1" xmlns="http://www.w3.org/2000/svg" viewBox="0 0 447.73 776.29">
<path class="cls-1" d="m446.94,324.89c.16-9.7.25-19.77.25-30.32v-42.17c.45-54.89.22-86.58-.67-95.06-2.68-38.83-11.16-68.95-25.44-90.37C391.17,21.45,348.55-.87,293.22.03L0,.38c22.13,1.62,39.99,4.03,53.55,7.23,61.74,14.86,108.61,47.45,140.63,97.75,26.3,41.54,39.44,86.51,39.44,134.91,0,37.73-12.2,77.93-36.59,120.62,30.49,29.73,51.26,56.4,62.31,80.03,15.62,33.54,23.44,68.79,23.44,105.76,0,69.36-26.3,127.48-78.89,174.35-28.2,25.15-56.97,41.54-86.32,49.16-11,2.75-25.3,4.78-42.77,6.11l175.44-.21c42.84,0,70.29-1.12,82.34-3.35,25.44-4.46,48.87-16.74,70.29-36.82,29.9-28.12,44.85-70.96,44.85-128.53v-240.32c0-15.26-.28-29.23-.79-42.18Z"/>
</svg>