<?xml version="1.0" encoding="UTF-8"?>
<svg id="Calque_1" xmlns="http://www.w3.org/2000/svg" viewBox="0 0 613.92 778.24">
<path class="cls-1" d="m528.41,362.14c30.4,29.64,51.11,56.24,62.13,79.8,15.58,33.44,23.37,68.59,23.37,105.45,0,69.16-26.22,127.11-78.66,173.85-28.12,25.08-56.81,41.42-86.07,49.02-21.28,5.32-54.72,7.98-100.32,7.98h-204.63c-49.02,0-85.5-12.73-109.44-38.19-17.1-18.24-27.55-38.19-31.35-59.85-1.9-10.26-2.85-33.63-2.85-70.11L.02,131.29C-.74,84.17,18.26,47.88,57.02,22.42,75.26,10.26,100.91,3.04,133.97.76,141.19,0,168.17-.19,214.91.19h35.91c62.32,0,107.16,3.23,134.52,9.69,61.56,14.82,108.3,47.31,140.22,97.47,26.22,41.42,39.33,86.26,39.33,134.52,0,37.62-12.16,77.71-36.48,120.27Z"/>
</svg>