<?xml version="1.0" encoding="UTF-8"?><svg id="Calque_1" xmlns="http://www.w3.org/2000/svg" viewBox="0 0 288.5 301.13"><path d="m139.67.41c21.05-2.18,40.15,4.6,58.45,13.67,13.35,6.62,26.74,13.57,38.84,22.16,14.06,9.99,25.72,22.68,30.23,40.29.28,1.08.86,2.22,1.63,3.02,10.15,10.52,14.04,23.82,16.89,37.62,3.89,18.84,3.25,37.74.9,56.67-.2,1.65-.64,3.26-.99,4.89-1.69,7.93-2.62,16.13-5.25,23.74-4.1,11.88-8.16,24.05-14.45,34.8-6.05,10.34-14.68,19.23-22.62,28.37-8.71,10.03-19.28,17.76-31.96,22.05-12.88,4.36-25.81,8.72-38.97,12.08-6.31,1.61-13.23,1.49-19.83,1.16-16.25-.8-32.19-3.44-47.89-8.12-24.54-7.31-45.07-21.38-63.73-38.01-8.24-7.35-14-17.61-20.38-26.9C8.49,210.33,1.31,191.19.28,169.48c-.71-14.89-.18-29.61,2.91-43.98,2.81-13.06,6.86-26.05,11.99-38.39,7.62-18.32,18.74-34.82,32.99-48.62,12.15-11.77,25.49-22.3,41.51-28.79C103.66,4.03,117.88-.21,133.18.4c2.16.09,4.33.01,6.5.01Zm2.84,28c-10.21-.66-24.5,2.29-37.17,8.72-23.55,11.96-41.23,30.82-53.19,54.26-6.14,12.03-10.39,25.13-14.5,38.07-5.63,17.72-5.67,36.01-2.83,54.26.94,6.05,2.12,12.26,4.51,17.84,6.01,14.06,13,27.66,23.89,38.78,9.57,9.77,19.35,19.58,32.09,24.86,23.28,9.67,47.23,13.89,72.53,7.55,21.31-5.34,40.98-12.9,54.55-31.21,7.01-9.45,14.96-18.66,19.73-29.22,11.26-24.92,16.42-51.22,14.51-78.94-1.66-24.13-9.66-44.87-27.17-61.79-2.23-2.15-3.66-5.11-5.57-7.6-2.48-3.23-4.7-6.79-7.71-9.43-3.33-2.93-7.34-5.13-11.22-7.38-17.98-10.42-36.65-18.77-62.45-18.78Z"/><path d="m117.39,145.28c.67-20.39-3.73-37.86-9.73-55.01-.75-2.14-1.86-4.43-3.46-5.95-4.8-4.57-7.47-9.86-8.16-16.54-.63-6.12,2.08-11.68,8.07-13.47,7.72-2.31,15.05-.99,22.11,2.81,9.57,5.16,14.09,13.4,15.99,23.81,3.1,16.94,6.7,33.79,10,50.7.5,2.58.54,5.27.69,7.91.22,3.95,1.88,5.88,6.21,5.98,11.94.3,23.88.9,35.8,1.57,11.38.65,22.95.49,34.04,2.68,7.74,1.53,14.67,6.71,19.36,13.68,1.66,2.47-1.55,7.43-5.44,9.52-10.31,5.55-20.9,6.15-32.45,4.26-10.24-1.67-20.87-1-31.33-1.15-3.97-.06-8.01.17-11.92.85-4.32.75-8.87,1.51-12.71,3.46-6.53,3.31-12.34,4.58-18.25-1.01-1.37-1.29-3.54-1.74-5.35-2.55-4.13-1.84-6.52-4.82-8.33-9.18-3.29-7.9-6.99-15.49-5.12-22.38Z"/></svg>