<?xml version="1.0" encoding="UTF-8"?><svg id="Calque_1" xmlns="http://www.w3.org/2000/svg" viewBox="0 0 755.82 479.04"><defs><style>.cls-1{fill:#fff;}</style></defs><path class="cls-1" d="m644.26,441.08c1.72,2.86,3.43,5.72,5.15,8.58,9.13-10.56,22.95-19.83,26.29-31.97,5.08-18.44-13.82-17.67-25.61-19.68-19.33-3.29-38.88-6.98-58.38-7.31-53.72-.92-107.88-4.34-161.13.8-91.53,8.83-182.66,22.38-273.58,36.42-18.1,2.8-35.12,15.7-51.25,26.09-4.43,2.85-3.82,13.48-5.52,20.53,6.87,1.57,14.06,5.29,20.57,4.35,28.66-4.17,56.94-11.27,85.68-14.42,96.61-10.59,193.21-22.22,290.13-28.82,48.87-3.33,98.41,3.3,147.65,5.43Zm-494.1-88.88c17.61-5.52,33.46-11.76,49.88-15.44,126.53-28.33,253.88-49.62,384.38-41.75,32.47,1.96,64.94,3.79,97.41,5.77,18.29,1.11,33.9-12.68,33.25-30.64-.65-17.96-13.68-17.98-27.41-18.48-24.81-.91-49.63-5.39-74.32-4.6-75.22,2.41-150.9,2.39-225.44,11.33-73.31,8.79-145.61,26.64-218.02,42.03-27.13,5.77-33.5,23.73-19.73,51.79Zm507.53-181.86c.25,2.28.5,4.56.75,6.84,21.43,0,43.37,2.74,64.06-1.15,10.39-1.96,18.5-16,27.64-24.57-8.86-5.29-17.18-13.43-26.71-15.23-15.83-2.99-32.43-2.46-48.71-2.45-122.48.03-243.99,12.27-364.76,31.36-45.27,7.15-90.17,18.06-134.13,30.99-9.22,2.71-13.6,21.8-20.21,33.34,9.49,1.68,19.45,6.11,28.39,4.58,45.26-7.76,89.93-19.6,135.41-25.32,112.59-14.15,225.49-25.75,338.27-38.38Zm41.86-133.35c.14,1.07.27,2.15.41,3.22,10.24.92,21.97,5.37,30.33,1.86,10.21-4.29,22.79-14.08,24.99-23.63,3.41-14.78-10.1-19.28-23.82-18.32-76.64,5.37-153.71,7.33-229.79,17.05-72.39,9.24-143.8,26.25-215.51,40.46-36.75,7.28-73.2,16.1-109.85,23.87-18.49,3.92-23.2,17.91-20.12,32.6.88,4.19,18.17,8.67,26.75,6.99,98.49-19.3,196.32-42.33,295.22-59.08,73.11-12.38,147.54-16.97,221.39-25.03ZM30.83,466.02c10.95-12.47,22.74-23.53,21.62-25.02-8.27-11.1-18.09-22.06-29.86-28.85-2.85-1.64-14.82,12.45-22.6,19.31,8.91,9.99,17.82,19.98,30.83,34.56Zm23.19-93.9c12.58-12.4,25.16-19.12,25.32-26.13.36-15.78-11.07-28.27-27.78-26.35-8.2.95-22.49,14.04-21.36,18.16,2.98,10.79,12.92,19.67,23.81,34.31Zm41.44-136.63c.28-4.56.56-9.12.84-13.68-14.41-6.21-28.5-13.59-43.49-17.6-2.86-.77-14.54,13.7-13.03,17.79,3.38,9.16,11.76,21.79,19.46,22.81,11.46,1.52,24.09-5.77,36.23-9.32Zm.45-137.29c-17.34-26.85-30.61-33.32-43.69-19.87-5.49,5.65-9.47,20.19-6.05,25.63,10.54,16.77,30.35,13.93,49.74-5.77Z"/><path d="m644.26,441.08c-49.24-2.13-98.79-8.76-147.65-5.43-96.92,6.6-193.52,18.23-290.13,28.82-28.74,3.15-57.02,10.25-85.68,14.42-6.51.95-13.69-2.77-20.57-4.35,1.7-7.06,1.09-17.68,5.52-20.53,16.13-10.39,33.14-23.3,51.25-26.09,90.92-14.04,182.05-27.59,273.58-36.42,53.25-5.14,107.4-1.72,161.13-.8,19.51.34,39.05,4.02,58.38,7.31,11.79,2,30.69,1.24,25.61,19.68-3.34,12.14-17.16,21.41-26.29,31.97-1.72-2.86-3.43-5.72-5.15-8.58Z"/><path d="m150.16,352.2c-13.77-28.06-7.4-46.02,19.73-51.79,72.42-15.39,144.71-33.24,218.02-42.03,74.54-8.93,150.21-8.92,225.44-11.33,24.69-.79,49.52,3.7,74.32,4.6,13.73.5,26.76.53,27.41,18.48.65,17.96-14.96,31.75-33.25,30.64-32.47-1.98-64.94-3.81-97.41-5.77-130.5-7.87-257.85,13.41-384.38,41.75-16.43,3.68-32.28,9.92-49.88,15.44Z"/><path d="m657.69,170.34c-112.78,12.63-225.69,24.22-338.27,38.38-45.47,5.72-90.15,17.56-135.41,25.32-8.94,1.53-18.9-2.9-28.39-4.58,6.61-11.54,10.99-30.63,20.21-33.34,43.96-12.92,88.86-23.83,134.13-30.99,120.76-19.08,242.28-31.33,364.76-31.36,16.28,0,32.88-.54,48.71,2.45,9.53,1.8,17.85,9.94,26.71,15.23-9.14,8.58-17.24,22.61-27.64,24.57-20.69,3.9-42.63,1.15-64.06,1.15-.25-2.28-.5-4.56-.75-6.84Z"/><path d="m699.55,36.99c-73.84,8.06-148.28,12.65-221.39,25.03-98.9,16.74-196.73,39.77-295.22,59.08-8.58,1.68-25.87-2.79-26.75-6.99-3.08-14.7,1.62-28.68,20.12-32.6,36.66-7.77,73.1-16.59,109.85-23.87,71.72-14.21,143.13-31.22,215.51-40.46C577.75,7.46,654.82,5.49,731.46.12c13.72-.96,27.23,3.54,23.82,18.32-2.2,9.56-14.79,19.34-24.99,23.63-8.36,3.51-20.09-.94-30.33-1.86-.14-1.07-.27-2.15-.41-3.22Z"/><path d="m30.83,466.02C17.82,451.44,8.91,441.45,0,431.46c7.78-6.86,19.74-20.95,22.6-19.31,11.78,6.78,21.59,17.74,29.86,28.85,1.11,1.49-10.68,12.55-21.62,25.02Z"/><path d="m54.02,372.12c-10.89-14.64-20.83-23.52-23.81-34.31-1.14-4.12,13.16-17.21,21.36-18.16,16.71-1.93,28.14,10.56,27.78,26.35-.16,7-12.75,13.72-25.32,26.13Z"/><path d="m95.46,235.5c-12.13,3.54-24.77,10.84-36.23,9.32-7.7-1.02-16.08-13.65-19.46-22.81-1.51-4.09,10.17-18.55,13.03-17.79,15,4.01,29.09,11.39,43.49,17.6-.28,4.56-.56,9.12-.84,13.68Z"/><path d="m95.91,98.21c-19.39,19.7-39.2,22.54-49.74,5.77-3.42-5.44.56-19.99,6.05-25.63,13.08-13.45,26.36-6.98,43.69,19.87Z"/></svg>