<?xml version="1.0" encoding="UTF-8"?><svg id="Calque_1" xmlns="http://www.w3.org/2000/svg" viewBox="0 0 768.57 480.07"><path class="cls-1" d="m1,219.92c.97-11.13,2.92-22.27,2.69-33.37-.33-16.31,6.7-26.32,22.15-30.67,15.83-4.45,31.51-9.96,47.66-12.63,14.06-2.32,18.01-8.67,18.3-22.31.64-30.74,2.09-61.56,5.27-92.13,2.41-23.19,7.77-27.88,30.65-27.82,39.12.11,78.25,1.82,117.35,3.24,8.12.29,17.32,3.59,14.59,13.25-1.37,4.87-10.89,10.58-16.71,10.56-35.01-.11-70.05-1.17-105.01-3.2-13.77-.8-18.6,5.08-19.08,17.15-1.23,30.79-2.89,61.59-3.21,92.39-.16,15.4-6.84,24.03-21.17,27.81-16.9,4.45-33.7,9.32-50.72,13.23-11.12,2.55-16.67,7.74-16.21,19.92,1.02,26.67,1.4,53.38,1.33,80.07-.03,10.34,4.55,13.09,13.98,13.15,42.75.29,85.5,1.08,128.25,1.51,8.34.08,17.93-1.52,18.91,10.19,1.03,12.36-8.92,14.04-17.85,13.96-47.9-.41-95.8-1.08-143.69-2.23-13.3-.32-21.95-6.43-22.52-21.74-.49-13.2-3.22-26.32-4.96-39.47,0-10.28,0-20.57,0-30.85Z"/><path class="cls-1" d="m566.92,479.07c-2.36-.93-4.64-2.22-7.09-2.74-49.36-10.59-56.8-52.79-39.92-90.96,6.07-13.72,18.67-24.85,29.47-36.03,3.26-3.37,10.85-4.75,15.75-3.72,4.37.92,10.29,6.07,10.87,10.03.55,3.76-3.96,10.48-7.91,12.33-24.73,11.53-38.03,40.98-29.09,66.61,5.33,15.27,29.77,22.17,46.58,13.16,27.51-14.76,32.87-40.78,14.52-64.82-3.26-4.27-1.5-12.36-2.07-18.69,6.49.67,14.59-.89,19.19,2.41,19.17,13.73,24.27,43.32,13.76,65.57-11.85,25.1-32.63,38.56-57.87,46.86h-6.18Z"/><path class="cls-1" d="m660.26,195.31c.75-6.77,1.34-12.15,2.15-19.5-19.77,0-38.18.02-56.59-.01-5.66-.01-11.93,1.33-16.8-.67-4.87-2-8.35-7.4-12.43-11.32,4.48-3.97,8.76-11.05,13.48-11.37,21.04-1.4,42.22-1.34,63.33-.83,9.56.23,14.67-1.34,16.99-12.15,6.35-29.53,14.27-58.72,22.48-91.66-17.64,0-34.47.01-51.29,0-52.54-.04-105.11,1.11-157.6-.49-47.29-1.44-94.53-5.52-141.7-9.48-5.3-.45-10.03-7.71-15.02-11.8,5.25-3.85,10.57-11.1,15.75-11.01,33.94.61,67.85,2.96,101.77,4.45,41.13,1.8,82.26,3.88,123.42,4.77,42.24.92,84.5.33,126.75.83,21.51.25,27.63,8.5,22.24,29.48-8.16,31.69-16.73,63.28-25.69,97.01,13.07.58,23.66,1.03,34.25,1.53,5.14.24,11.17-1.02,15.21,1.23,5.43,3.03,9.32,8.8,13.87,13.39-5.11,3.38-10.04,9.28-15.38,9.68-16.84,1.26-33.84.47-52.03.47-.9,5.66-1.84,11.54-3.12,19.59,19.02,1.34,36.79,2.61,54.55,3.85,5.14.36,11.33-1.02,15.16,1.38,5.28,3.31,8.77,9.45,13.03,14.38-5.17,3.15-10.38,9.02-15.51,8.97-22-.25-43.99-2.25-70.07-3.87,0,24.03-.03,46.45.01,68.87.02,10.76-.51,21.07-14.21,23.57-.99.18-2.64.62-2.74,1.16-4.24,24.2-23.44,15.77-36.93,15.38-84.46-2.45-168.88-6.02-253.32-9.18-8.62-.32-17.78-.66-17.47-12.28.33-12.46,10.3-12.43,19.25-12.1,72.09,2.67,144.16,5.67,216.25,8.16,21,.72,42.04.11,65.15.11v-85.99c-16.12,0-32.96.05-49.8-.02-8.6-.04-17.97-.76-18.07-11.87-.1-10.9,9.16-12.43,17.75-12.57,16.96-.26,33.93-.08,52.94-.08Z"/><path class="cls-1" d="m309.05,139.77c-2.68,45.6-5.35,91.21-8.07,136.81-.18,3.06.25,6.91-1.39,8.99-3.41,4.31-8.02,7.67-12.14,11.43-3.78-4.73-10.68-9.41-10.76-14.21-.26-15.85,2.73-31.72,3.05-47.61,1.23-62.66,1.93-125.32,2.8-187.99.09-6.16-.14-12.34.01-18.5.23-9.07.75-18.97,13.18-18.3,10.97.59,11.54,9.4,11.49,18.27-.19,37-.08,73.99-.08,110.99.63.04,1.27.07,1.9.11Z"/><path class="cls-1" d="m212.35,439.29c-20.78.12-39.98-12.11-46.51-29.61-7.98-21.39-4.69-43.49,10.56-54.87,7.3-5.45,17.47-8.26,26.69-9.37,3.75-.45,11.09,6.32,11.86,10.68.61,3.49-5.55,10.75-9.93,11.98-9.06,2.54-18.72,4.91-17.7,15.46.9,9.31,4.22,21.23,10.85,26.28,5.87,4.48,19.32,4.23,26.72.59,21.38-10.53,22.93-31.71,6.7-48.92-3.44-3.64-2.43-11.46-3.48-17.36,5.66-.65,12.22-3.45,16.83-1.56,17.82,7.31,26.67,26.35,22.69,45.46-6.17,29.61-29.34,51.1-55.27,51.24Z"/><path class="cls-1" d="m157.32,132.43c14.33,3.6,28.97,7.85,43.9,10.53,2.73.49,8-4.81,9.62-8.51,2.4-5.5,1.23-12.75,4.16-17.76,2.33-3.97,8.87-8.19,12.9-7.64,3.63.5,9.6,7.94,8.97,11.27-2.63,13.87-5.93,28.04-12.07,40.6-2.34,4.8-13.42,8.62-19.69,7.64-17.69-2.76-35.31-7.19-52.28-12.94-18.03-6.11-22.79-16.51-19.12-34.84,3.92-19.6,7.09-39.4,12.24-58.68,1.44-5.4,8.69-9.27,13.27-13.84,3.26,6.04,9.79,12.44,9.19,18.07-2.28,21.25-6.87,42.24-11.09,66.1Z"/></svg>
