<?xml version="1.0" encoding="UTF-8"?>
<svg id="Calque_1" xmlns="http://www.w3.org/2000/svg" viewBox="0 0 786.79 137.29">
<defs>
<style>.cls-1{letter-spacing:.17em;}.cls-1,.cls-2,.cls-3,.cls-4,.cls-5,.cls-6,.cls-7{fill:#ed6d4f;}.cls-8{fill:#f5b6a8;letter-spacing:.17em;}.cls-2{letter-spacing:.17em;}.cls-3{letter-spacing:.17em;}.cls-9{font-size:25px;font-weight:700;}.cls-4{letter-spacing:.2em;}.cls-5{letter-spacing:.12em;}.cls-6{letter-spacing:.14em;}</style>
</defs>
<path class="cls-7" d="m138.13,73.08c-1.82-3.9-5.25-8.3-10.27-13.2,4.02-7.04,6.03-13.67,6.03-19.89,0-7.98-2.17-15.4-6.5-22.25-5.28-8.3-13.01-13.67-23.19-16.12C99.68.57,92.26.03,81.95.03h-5.94C68.29-.03,63.82,0,62.63.13c-.05,0-.1.01-.15.02,6.52.21,11.48.7,14.83,1.49,10.18,2.45,17.91,7.82,23.19,16.12,4.34,6.85,6.5,14.27,6.5,22.25,0,6.22-2.01,12.85-6.03,19.89,5.03,4.9,8.45,9.3,10.27,13.2,2.58,5.53,3.86,11.34,3.86,17.44,0,11.44-4.34,21.02-13.01,28.75-4.65,4.15-9.39,6.85-14.23,8.11-3.52.88-9.05,1.32-16.59,1.32h26.89c7.54,0,13.07-.44,16.59-1.32,4.84-1.26,9.58-3.96,14.23-8.11,8.67-7.73,13.01-17.31,13.01-28.75,0-6.1-1.29-11.91-3.86-17.44Z"/>
<path class="cls-7" d="m87.38,59.89c5.03,4.9,8.45,9.3,10.27,13.2,2.58,5.53,3.86,11.34,3.86,17.44,0,11.44-4.34,21.02-13.01,28.75-4.65,4.15-9.39,6.85-14.23,8.11-3.52.88-9.05,1.32-16.59,1.32H23.85c-8.11,0-14.14-2.11-18.1-6.32-2.83-3.02-4.56-6.32-5.18-9.9-.31-1.7-.47-5.56-.47-11.59L0,21.71C-.12,13.92,3.02,7.92,9.43,3.71,12.45,1.7,16.69.5,22.16.13,23.35,0,27.81-.03,35.54.03h5.94c10.31,0,17.72.53,22.25,1.6,10.18,2.45,17.91,7.82,23.19,16.12,4.34,6.85,6.5,14.26,6.5,22.25,0,6.22-2.01,12.85-6.03,19.89Z"/>
<g>
<path class="cls-7" d="m174.49,95.58v-62.74h10.32c6.27,0,11.33,1.33,15.19,3.99,3.86,2.66,5.78,6.99,5.78,12.98,0,5.44-2.05,9.52-6.16,12.23,3.66.89,6.56,2.83,8.7,5.82,2.14,3,3.2,6.41,3.2,10.24,0,5.94-2.08,10.34-6.24,13.19-4.16,2.86-9.57,4.28-16.23,4.28h-14.56Zm6.99-56.25v21.14h2.66c2.33,0,4.24-.11,5.74-.33,1.5-.22,3-.67,4.49-1.33,1.5-.67,2.61-1.75,3.33-3.25.72-1.5,1.08-3.41,1.08-5.74,0-4.33-1.18-7.16-3.54-8.49-2.36-1.33-6.03-2-11.03-2h-2.75Zm0,27.13v22.63h6.99c10.71,0,16.06-3.83,16.06-11.48s-5.66-11.15-16.98-11.15h-6.08Z"/>
<path class="cls-7" d="m238.4,95.58v-62.74h32.54v6.49h-25.55v18.64h24.8v6.49h-24.8v24.63h25.55v6.49h-32.54Z"/>
<path class="cls-7" d="m299.48,95.58v-62.74h10.32c6.27,0,11.33,1.33,15.19,3.99,3.86,2.66,5.78,6.99,5.78,12.98,0,5.44-2.05,9.52-6.16,12.23,3.66.89,6.56,2.83,8.7,5.82,2.14,3,3.2,6.41,3.2,10.24,0,5.94-2.08,10.34-6.24,13.19-4.16,2.86-9.57,4.28-16.23,4.28h-14.56Zm6.99-56.25v21.14h2.66c2.33,0,4.24-.11,5.74-.33,1.5-.22,3-.67,4.49-1.33,1.5-.67,2.61-1.75,3.33-3.25.72-1.5,1.08-3.41,1.08-5.74,0-4.33-1.18-7.16-3.54-8.49-2.36-1.33-6.03-2-11.03-2h-2.75Zm0,27.13v22.63h6.99c10.71,0,16.06-3.83,16.06-11.48s-5.66-11.15-16.98-11.15h-6.08Z"/>
<path class="cls-7" d="m363.39,95.58v-62.74h32.54v6.49h-25.55v18.64h24.8v6.49h-24.8v24.63h25.55v6.49h-32.54Z"/><path class="cls-7" d="m424.47,95.58v-62.74h10.32c6.27,0,11.33,1.33,15.19,3.99,3.86,2.66,5.78,6.99,5.78,12.98,0,5.44-2.05,9.52-6.16,12.23,3.66.89,6.56,2.83,8.7,5.82,2.14,3,3.2,6.41,3.2,10.24,0,5.94-2.08,10.34-6.24,13.19-4.16,2.86-9.57,4.28-16.23,4.28h-14.56Zm6.99-56.25v21.14h2.66c2.33,0,4.24-.11,5.74-.33,1.5-.22,3-.67,4.49-1.33,1.5-.67,2.61-1.75,3.33-3.25.72-1.5,1.08-3.41,1.08-5.74,0-4.33-1.18-7.16-3.54-8.49-2.36-1.33-6.03-2-11.03-2h-2.75Zm0,27.13v22.63h6.99c10.71,0,16.06-3.83,16.06-11.48s-5.66-11.15-16.98-11.15h-6.08Z"/>
<path class="cls-7" d="m494.83,41.28c6.41-6.35,14.11-9.53,23.09-9.53s16.69,3.18,23.09,9.53c6.41,6.35,9.61,14.02,9.61,23.01s-3.2,16.63-9.61,22.93c-6.41,6.3-14.11,9.45-23.09,9.45s-16.69-3.15-23.09-9.45c-6.41-6.3-9.61-13.94-9.61-22.93s3.2-16.66,9.61-23.01Zm41.32,4.58c-4.99-5.07-11.07-7.61-18.22-7.61s-13.23,2.54-18.22,7.61c-4.99,5.08-7.49,11.19-7.49,18.35s2.51,13.2,7.53,18.31c5.02,5.11,11.08,7.66,18.18,7.66s13.16-2.55,18.18-7.66c5.02-5.11,7.53-11.21,7.53-18.31s-2.5-13.27-7.49-18.35Z"/>
<path class="cls-7" d="m583.58,32.84v37.36c0,2.39.01,4.08.04,5.08.03,1,.26,2.43.71,4.29.44,1.86,1.11,3.4,2,4.62,1.33,1.83,3.18,3.29,5.53,4.37,2.36,1.08,4.73,1.62,7.12,1.62s4.53-.5,6.78-1.5c2.25-1,4.09-2.36,5.53-4.08.94-1.16,1.66-2.59,2.16-4.28.5-1.69.78-3.11.83-4.24.05-1.14.08-2.76.08-4.87v-38.36h6.99v39.28c0,3.99-.35,7.3-1.04,9.9-.69,2.61-2.18,5.11-4.45,7.49-4.44,4.77-10.07,7.16-16.89,7.16-6.44,0-11.85-2.14-16.23-6.41-2.5-2.39-4.15-4.96-4.95-7.74-.8-2.77-1.21-6.24-1.21-10.4v-39.28h6.99Z"/>
<path class="cls-7" d="m667.04,39.33v56.25h-6.99v-56.25h-15.14v-6.49h37.45v6.49h-15.31Z"/>
<path class="cls-7" d="m713.31,32.84v62.74h-6.99v-62.74h6.99Z"/>
<path class="cls-7" d="m749.67,59.71l26.71-26.88h9.4l-29.46,29.21,30.46,33.54h-9.65l-25.71-28.79-1.75,1.75v27.04h-6.99v-62.74h6.99v26.88Z"/>
</g>
<text class="cls-9" transform="translate(174.37 128.54)">
<tspan class="cls-2" x="0" y="0">THE P</tspan>
<tspan class="cls-4" x="91" y="0">L</tspan>
<tspan class="cls-6" x="108.65" y="0">A</tspan>
<tspan class="cls-1" x="129.97" y="0">CE </tspan>
<tspan class="cls-5" x="182.42" y="0">T</tspan>
<tspan class="cls-3" x="198.75" y="0">O BE</tspan>
<tspan class="cls-8" x="274.15" y="0">BE</tspan>
</text>
</svg>