<?xml version="1.0" encoding="UTF-8"?>
<svg id="Calque_1" data-name="Calque 1" xmlns="http://www.w3.org/2000/svg" viewBox="0 0 786.79 129.34">
  <defs>
    <style>
      .cls-1 {
        fill: #504e8b;
      }
    </style>
  </defs>
  <g>
    <path class="cls-1" d="m188.25,110.74h4.95l-9.23,18.6-9.2-18.6h4.92l4.27,10.45,4.28-10.45Z"/>
    <path class="cls-1" d="m202.58,110.74v17.5h-4.05v-17.5h4.05Zm-1.25,0h8.83v3.47h-8.83v-3.47Zm0,6.6h8.33v3.4h-8.33v-3.4Zm0,7.43h8.83v3.47h-8.83v-3.47Z"/>
    <path class="cls-1" d="m233.25,110.74v18.38l-12.1-10.72v9.85h-4.05v-18.38l12.07,10.72v-9.85h4.08Z"/>
    <path class="cls-1" d="m238.7,110.74h13.85v3.78h-4.83v13.72h-4.23v-13.72h-4.8v-3.78Z"/>
    <path class="cls-1" d="m262.03,110.74v17.5h-4.05v-17.5h4.05Zm-1.25,0h8.83v3.47h-8.83v-3.47Zm0,6.6h8.33v3.4h-8.33v-3.4Zm0,7.43h8.83v3.47h-8.83v-3.47Z"/>
    <path class="cls-1" d="m279.66,123.74c.44.47.93.83,1.45,1.08s1.08.38,1.66.38c.62,0,1.12-.15,1.52-.46.4-.31.6-.73.6-1.26,0-.45-.12-.81-.35-1.09-.23-.28-.61-.54-1.12-.79-.52-.25-1.2-.53-2.05-.85-.42-.15-.9-.36-1.44-.62s-1.05-.61-1.54-1.04c-.48-.43-.88-.94-1.2-1.55-.32-.61-.48-1.35-.48-2.21,0-1.03.27-1.92.81-2.67s1.27-1.32,2.2-1.71c.92-.39,1.95-.59,3.09-.59s2.18.19,3.04.58c.86.38,1.57.87,2.14,1.45.57.58,1,1.17,1.3,1.78l-3.23,1.8c-.25-.42-.54-.78-.86-1.09-.33-.31-.68-.55-1.08-.72s-.81-.26-1.26-.26c-.6,0-1.06.13-1.38.39s-.47.58-.47.96.15.75.46,1.05c.31.3.75.57,1.32.82.58.25,1.27.52,2.09.8.62.23,1.19.5,1.72.81s1,.68,1.41,1.11c.41.43.73.93.96,1.5s.35,1.22.35,1.95c0,.88-.18,1.67-.54,2.36s-.84,1.27-1.45,1.74c-.61.47-1.3.82-2.08,1.06s-1.57.36-2.39.36c-1.13,0-2.19-.2-3.16-.61s-1.82-.96-2.54-1.66c-.72-.7-1.27-1.47-1.67-2.3l2.95-2.12c.35.63.75,1.18,1.19,1.65Z"/>
    <path class="cls-1" d="m310.9,110.74v17.5h-4.23v-17.5h4.23Zm-1.58,0h3.42c1.48,0,2.73.23,3.74.69,1.01.46,1.77,1.11,2.29,1.96.52.85.77,1.88.77,3.07s-.26,2.18-.77,3.04c-.52.86-1.28,1.52-2.29,1.97-1.01.46-2.25.69-3.74.69h-3.42v-3.47h3.42c.85,0,1.52-.19,2-.58.48-.38.73-.93.73-1.65s-.24-1.29-.73-1.67c-.48-.38-1.15-.58-2-.58h-3.42v-3.47Z"/>
    <path class="cls-1" d="m329.98,110.74v17.5h-4.23v-17.5h4.23Zm-1.58,0h3.73c1.5,0,2.75.24,3.75.72,1,.48,1.76,1.15,2.27,2.01s.77,1.85.77,2.99-.26,2.1-.77,2.96-1.27,1.53-2.27,2.01-2.25.72-3.75.72h-3.73v-3.27h3.42c.57,0,1.05-.09,1.46-.26.41-.17.72-.43.94-.78.22-.34.32-.75.32-1.24s-.11-.9-.32-1.24c-.22-.34-.53-.6-.94-.79-.41-.18-.9-.27-1.46-.27h-3.42v-3.58Zm6.1,9.58l5.48,7.92h-4.95l-4.92-7.92h4.4Z"/>
    <path class="cls-1" d="m349.73,110.74v17.5h-4.3v-17.5h4.3Z"/>
    <path class="cls-1" d="m368.53,110.74h4.95l-9.23,18.6-9.2-18.6h4.92l4.27,10.45,4.28-10.45Z"/>
    <path class="cls-1" d="m382.85,110.74v17.5h-4.05v-17.5h4.05Zm-1.25,0h8.83v3.47h-8.83v-3.47Zm0,6.6h8.33v3.4h-8.33v-3.4Zm0,7.43h8.83v3.47h-8.83v-3.47Z"/>
    <path class="cls-1" d="m401.43,110.74v17.5h-4.05v-17.5h4.05Zm-1.25,0h8.82v3.47h-8.82v-3.47Zm0,6.6h8.32v3.4h-8.32v-3.4Zm0,7.43h8.82v3.47h-8.82v-3.47Z"/>
    <path class="cls-1" d="m419.06,123.74c.44.47.92.83,1.45,1.08.53.25,1.08.38,1.66.38.62,0,1.12-.15,1.52-.46.4-.31.6-.73.6-1.26,0-.45-.12-.81-.35-1.09-.23-.28-.61-.54-1.12-.79s-1.2-.53-2.05-.85c-.42-.15-.9-.36-1.44-.62s-1.05-.61-1.54-1.04c-.48-.43-.88-.94-1.2-1.55-.32-.61-.47-1.35-.47-2.21,0-1.03.27-1.92.81-2.67.54-.75,1.27-1.32,2.2-1.71.93-.39,1.95-.59,3.09-.59s2.18.19,3.04.58c.86.38,1.57.87,2.14,1.45.57.58,1,1.17,1.3,1.78l-3.22,1.8c-.25-.42-.54-.78-.86-1.09-.33-.31-.68-.55-1.08-.72s-.81-.26-1.26-.26c-.6,0-1.06.13-1.38.39s-.47.58-.47.96.15.75.46,1.05c.31.3.75.57,1.33.82s1.27.52,2.09.8c.62.23,1.19.5,1.72.81s1,.68,1.41,1.11c.41.43.73.93.96,1.5s.35,1.22.35,1.95c0,.88-.18,1.67-.54,2.36s-.84,1.27-1.45,1.74-1.3.82-2.07,1.06c-.78.24-1.57.36-2.39.36-1.13,0-2.19-.2-3.16-.61-.97-.41-1.82-.96-2.54-1.66-.72-.7-1.28-1.47-1.67-2.3l2.95-2.12c.35.63.75,1.18,1.19,1.65Z"/>
    <path class="cls-1" d="m449.22,117.69h2.83c.48,0,.9-.08,1.24-.23.34-.15.6-.36.79-.64.18-.28.28-.61.28-1.01,0-.6-.2-1.05-.61-1.35-.41-.3-.97-.45-1.69-.45h-1.75v10.95h2.15c.55,0,1.04-.07,1.48-.21.43-.14.78-.38,1.04-.7s.39-.77.39-1.34c0-.37-.08-.68-.22-.95-.15-.27-.36-.48-.62-.65-.27-.17-.57-.29-.91-.36s-.72-.11-1.14-.11h-3.22v-2.3h3.7c.85,0,1.67.09,2.47.28s1.53.48,2.17.89c.65.41,1.17.92,1.56,1.55s.59,1.38.59,2.26c0,1.17-.28,2.11-.84,2.83s-1.35,1.25-2.36,1.59c-1.02.34-2.22.51-3.6.51h-6.85v-17.5h6.43c1.22,0,2.29.16,3.21.49s1.66.82,2.2,1.48c.54.66.81,1.49.81,2.49,0,.92-.27,1.7-.81,2.35-.54.65-1.28,1.15-2.2,1.49-.92.34-2,.51-3.21.51h-3.28v-1.85Z"/>
    <path class="cls-1" d="m470.22,110.74v17.5h-4.05v-17.5h4.05Zm-1.25,0h8.82v3.47h-8.82v-3.47Zm0,6.6h8.32v3.4h-8.32v-3.4Zm0,7.43h8.82v3.47h-8.82v-3.47Z"/>
    <path class="cls-1" d="m487.9,117.69h2.83c.48,0,.9-.08,1.24-.23.34-.15.6-.36.79-.64.18-.28.28-.61.28-1.01,0-.6-.2-1.05-.61-1.35-.41-.3-.97-.45-1.69-.45h-1.75v10.95h2.15c.55,0,1.04-.07,1.48-.21.43-.14.78-.38,1.04-.7s.39-.77.39-1.34c0-.37-.08-.68-.22-.95-.15-.27-.36-.48-.62-.65-.27-.17-.57-.29-.91-.36s-.72-.11-1.14-.11h-3.22v-2.3h3.7c.85,0,1.67.09,2.47.28s1.53.48,2.17.89c.65.41,1.17.92,1.56,1.55s.59,1.38.59,2.26c0,1.17-.28,2.11-.84,2.83s-1.35,1.25-2.36,1.59c-1.02.34-2.22.51-3.6.51h-6.85v-17.5h6.43c1.22,0,2.29.16,3.21.49s1.66.82,2.2,1.48c.54.66.81,1.49.81,2.49,0,.92-.27,1.7-.81,2.35-.54.65-1.28,1.15-2.2,1.49-.92.34-2,.51-3.21.51h-3.28v-1.85Z"/>
    <path class="cls-1" d="m508.9,110.74v17.5h-4.05v-17.5h4.05Zm-1.25,0h8.82v3.47h-8.82v-3.47Zm0,6.6h8.32v3.4h-8.32v-3.4Zm0,7.43h8.82v3.47h-8.82v-3.47Z"/>
  </g>
  <path class="cls-1" d="m138.13,73.08c-1.82-3.9-5.25-8.3-10.27-13.2,4.02-7.04,6.03-13.67,6.03-19.89,0-7.98-2.17-15.4-6.5-22.25-5.28-8.3-13.01-13.67-23.19-16.12C99.68.57,92.26.03,81.95.03h-5.94C68.29-.03,63.82,0,62.63.13c-.05,0-.1.01-.15.02,6.52.21,11.48.7,14.83,1.49,10.18,2.45,17.91,7.82,23.19,16.12,4.34,6.85,6.5,14.27,6.5,22.25,0,6.22-2.01,12.85-6.03,19.89,5.03,4.9,8.45,9.3,10.27,13.2,2.58,5.53,3.86,11.34,3.86,17.44,0,11.44-4.34,21.02-13.01,28.75-4.65,4.15-9.39,6.85-14.23,8.11-3.52.88-9.05,1.32-16.59,1.32h26.89c7.54,0,13.07-.44,16.59-1.32,4.84-1.26,9.58-3.96,14.23-8.11,8.67-7.73,13.01-17.31,13.01-28.75,0-6.1-1.29-11.91-3.86-17.44Z"/>
  <path class="cls-1" d="m87.38,59.89c5.03,4.9,8.45,9.3,10.27,13.2,2.58,5.53,3.86,11.34,3.86,17.44,0,11.44-4.34,21.02-13.01,28.75-4.65,4.15-9.39,6.85-14.23,8.11-3.52.88-9.05,1.32-16.59,1.32H23.85c-8.11,0-14.14-2.11-18.1-6.32-2.83-3.02-4.56-6.32-5.18-9.9-.31-1.7-.47-5.56-.47-11.59L0,21.71C-.12,13.92,3.02,7.92,9.43,3.71,12.45,1.7,16.69.5,22.16.13,23.35,0,27.81-.03,35.54.03h5.94c10.31,0,17.72.53,22.25,1.6,10.18,2.45,17.91,7.82,23.19,16.12,4.34,6.85,6.5,14.26,6.5,22.25,0,6.22-2.01,12.85-6.03,19.89Z"/>
  <g>
    <path class="cls-1" d="m174.49,95.58v-62.74h10.32c6.27,0,11.33,1.33,15.19,3.99,3.86,2.66,5.78,6.99,5.78,12.98,0,5.44-2.05,9.52-6.16,12.23,3.66.89,6.56,2.83,8.7,5.82,2.14,3,3.2,6.41,3.2,10.24,0,5.94-2.08,10.34-6.24,13.19-4.16,2.86-9.57,4.28-16.23,4.28h-14.56Zm6.99-56.25v21.14h2.66c2.33,0,4.24-.11,5.74-.33,1.5-.22,3-.67,4.49-1.33,1.5-.67,2.61-1.75,3.33-3.25.72-1.5,1.08-3.41,1.08-5.74,0-4.33-1.18-7.16-3.54-8.49-2.36-1.33-6.03-2-11.03-2h-2.75Zm0,27.13v22.63h6.99c10.71,0,16.06-3.83,16.06-11.48s-5.66-11.15-16.98-11.15h-6.08Z"/>
    <path class="cls-1" d="m238.4,95.58v-62.74h32.54v6.49h-25.55v18.64h24.8v6.49h-24.8v24.63h25.55v6.49h-32.54Z"/>
    <path class="cls-1" d="m299.48,95.58v-62.74h10.32c6.27,0,11.33,1.33,15.19,3.99,3.86,2.66,5.78,6.99,5.78,12.98,0,5.44-2.05,9.52-6.16,12.23,3.66.89,6.56,2.83,8.7,5.82,2.14,3,3.2,6.41,3.2,10.24,0,5.94-2.08,10.34-6.24,13.19-4.16,2.86-9.57,4.28-16.23,4.28h-14.56Zm6.99-56.25v21.14h2.66c2.33,0,4.24-.11,5.74-.33,1.5-.22,3-.67,4.49-1.33,1.5-.67,2.61-1.75,3.33-3.25.72-1.5,1.08-3.41,1.08-5.74,0-4.33-1.18-7.16-3.54-8.49-2.36-1.33-6.03-2-11.03-2h-2.75Zm0,27.13v22.63h6.99c10.71,0,16.06-3.83,16.06-11.48s-5.66-11.15-16.98-11.15h-6.08Z"/>
    <path class="cls-1" d="m363.39,95.58v-62.74h32.54v6.49h-25.55v18.64h24.8v6.49h-24.8v24.63h25.55v6.49h-32.54Z"/>
    <path class="cls-1" d="m424.47,95.58v-62.74h10.32c6.27,0,11.33,1.33,15.19,3.99,3.86,2.66,5.78,6.99,5.78,12.98,0,5.44-2.05,9.52-6.16,12.23,3.66.89,6.56,2.83,8.7,5.82,2.14,3,3.2,6.41,3.2,10.24,0,5.94-2.08,10.34-6.24,13.19-4.16,2.86-9.57,4.28-16.23,4.28h-14.56Zm6.99-56.25v21.14h2.66c2.33,0,4.24-.11,5.74-.33,1.5-.22,3-.67,4.49-1.33,1.5-.67,2.61-1.75,3.33-3.25.72-1.5,1.08-3.41,1.08-5.74,0-4.33-1.18-7.16-3.54-8.49-2.36-1.33-6.03-2-11.03-2h-2.75Zm0,27.13v22.63h6.99c10.71,0,16.06-3.83,16.06-11.48s-5.66-11.15-16.98-11.15h-6.08Z"/>
    <path class="cls-1" d="m494.83,41.28c6.41-6.35,14.11-9.53,23.09-9.53s16.69,3.18,23.09,9.53c6.41,6.35,9.61,14.02,9.61,23.01s-3.2,16.63-9.61,22.93c-6.41,6.3-14.11,9.45-23.09,9.45s-16.69-3.15-23.09-9.45c-6.41-6.3-9.61-13.94-9.61-22.93s3.2-16.66,9.61-23.01Zm41.32,4.58c-4.99-5.07-11.07-7.61-18.22-7.61s-13.23,2.54-18.22,7.61c-4.99,5.08-7.49,11.19-7.49,18.35s2.51,13.2,7.53,18.31c5.02,5.11,11.08,7.66,18.18,7.66s13.16-2.55,18.18-7.66c5.02-5.11,7.53-11.21,7.53-18.31s-2.5-13.27-7.49-18.35Z"/>
    <path class="cls-1" d="m583.58,32.84v37.36c0,2.39.01,4.08.04,5.08.03,1,.26,2.43.71,4.29.44,1.86,1.11,3.4,2,4.62,1.33,1.83,3.18,3.29,5.53,4.37,2.36,1.08,4.73,1.62,7.12,1.62s4.53-.5,6.78-1.5c2.25-1,4.09-2.36,5.53-4.08.94-1.16,1.66-2.59,2.16-4.28.5-1.69.78-3.11.83-4.24.05-1.14.08-2.76.08-4.87v-38.36h6.99v39.28c0,3.99-.35,7.3-1.04,9.9-.69,2.61-2.18,5.11-4.45,7.49-4.44,4.77-10.07,7.16-16.89,7.16-6.44,0-11.85-2.14-16.23-6.41-2.5-2.39-4.15-4.96-4.95-7.74-.8-2.77-1.21-6.24-1.21-10.4v-39.28h6.99Z"/>
    <path class="cls-1" d="m667.04,39.33v56.25h-6.99v-56.25h-15.14v-6.49h37.45v6.49h-15.31Z"/>
    <path class="cls-1" d="m713.31,32.84v62.74h-6.99v-62.74h6.99Z"/>
    <path class="cls-1" d="m749.67,59.71l26.71-26.88h9.4l-29.46,29.21,30.46,33.54h-9.65l-25.71-28.79-1.75,1.75v27.04h-6.99v-62.74h6.99v26.88Z"/>
  </g>
</svg>