<?xml version="1.0" encoding="UTF-8"?><svg id="Calque_1" xmlns="http://www.w3.org/2000/svg" viewBox="0 0 786.79 129.01"><defs><style>.cls-1{fill:#f5b6a8;}.cls-2{fill:#ed6d4f;}</style></defs><path class="cls-2" d="m138.13,73.08c-1.82-3.9-5.25-8.3-10.27-13.2,4.02-7.04,6.03-13.67,6.03-19.89,0-7.98-2.17-15.4-6.5-22.25-5.28-8.3-13.01-13.67-23.19-16.12C99.68.57,92.26.03,81.95.03h-5.94C68.29-.03,63.82,0,62.63.13c-.05,0-.1.01-.15.02,6.52.21,11.48.7,14.83,1.49,10.18,2.45,17.91,7.82,23.19,16.12,4.34,6.85,6.5,14.27,6.5,22.25,0,6.22-2.01,12.85-6.03,19.89,5.03,4.9,8.45,9.3,10.27,13.2,2.58,5.53,3.86,11.34,3.86,17.44,0,11.44-4.34,21.02-13.01,28.75-4.65,4.15-9.39,6.85-14.23,8.11-3.52.88-9.05,1.32-16.59,1.32h26.89c7.54,0,13.07-.44,16.59-1.32,4.84-1.26,9.58-3.96,14.23-8.11,8.67-7.73,13.01-17.31,13.01-28.75,0-6.1-1.29-11.91-3.86-17.44Z"/><path class="cls-2" d="m87.38,59.89c5.03,4.9,8.45,9.3,10.27,13.2,2.58,5.53,3.86,11.34,3.86,17.44,0,11.44-4.34,21.02-13.01,28.75-4.65,4.15-9.39,6.85-14.23,8.11-3.52.88-9.05,1.32-16.59,1.32H23.85c-8.11,0-14.14-2.11-18.1-6.32-2.83-3.02-4.56-6.32-5.18-9.9-.31-1.7-.47-5.56-.47-11.59L0,21.71C-.12,13.92,3.02,7.92,9.43,3.71,12.45,1.7,16.69.5,22.16.13,23.35,0,27.81-.03,35.54.03h5.94c10.31,0,17.72.53,22.25,1.6,10.18,2.45,17.91,7.82,23.19,16.12,4.34,6.85,6.5,14.26,6.5,22.25,0,6.22-2.01,12.85-6.03,19.89Z"/><g><path class="cls-2" d="m174.49,95.58v-62.74h10.32c6.27,0,11.33,1.33,15.19,3.99,3.86,2.66,5.78,6.99,5.78,12.98,0,5.44-2.05,9.52-6.16,12.23,3.66.89,6.56,2.83,8.7,5.82,2.14,3,3.2,6.41,3.2,10.24,0,5.94-2.08,10.34-6.24,13.19-4.16,2.86-9.57,4.28-16.23,4.28h-14.56Zm6.99-56.25v21.14h2.66c2.33,0,4.24-.11,5.74-.33,1.5-.22,3-.67,4.49-1.33,1.5-.67,2.61-1.75,3.33-3.25.72-1.5,1.08-3.41,1.08-5.74,0-4.33-1.18-7.16-3.54-8.49-2.36-1.33-6.03-2-11.03-2h-2.75Zm0,27.13v22.63h6.99c10.71,0,16.06-3.83,16.06-11.48s-5.66-11.15-16.98-11.15h-6.08Z"/><path class="cls-2" d="m238.4,95.58v-62.74h32.54v6.49h-25.55v18.64h24.8v6.49h-24.8v24.63h25.55v6.49h-32.54Z"/><path class="cls-2" d="m299.48,95.58v-62.74h10.32c6.27,0,11.33,1.33,15.19,3.99,3.86,2.66,5.78,6.99,5.78,12.98,0,5.44-2.05,9.52-6.16,12.23,3.66.89,6.56,2.83,8.7,5.82,2.14,3,3.2,6.41,3.2,10.24,0,5.94-2.08,10.34-6.24,13.19-4.16,2.86-9.57,4.28-16.23,4.28h-14.56Zm6.99-56.25v21.14h2.66c2.33,0,4.24-.11,5.74-.33,1.5-.22,3-.67,4.49-1.33,1.5-.67,2.61-1.75,3.33-3.25.72-1.5,1.08-3.41,1.08-5.74,0-4.33-1.18-7.16-3.54-8.49-2.36-1.33-6.03-2-11.03-2h-2.75Zm0,27.13v22.63h6.99c10.71,0,16.06-3.83,16.06-11.48s-5.66-11.15-16.98-11.15h-6.08Z"/><path class="cls-2" d="m363.39,95.58v-62.74h32.54v6.49h-25.55v18.64h24.8v6.49h-24.8v24.63h25.55v6.49h-32.54Z"/><path class="cls-2" d="m424.47,95.58v-62.74h10.32c6.27,0,11.33,1.33,15.19,3.99,3.86,2.66,5.78,6.99,5.78,12.98,0,5.44-2.05,9.52-6.16,12.23,3.66.89,6.56,2.83,8.7,5.82,2.14,3,3.2,6.41,3.2,10.24,0,5.94-2.08,10.34-6.24,13.19-4.16,2.86-9.57,4.28-16.23,4.28h-14.56Zm6.99-56.25v21.14h2.66c2.33,0,4.24-.11,5.74-.33,1.5-.22,3-.67,4.49-1.33,1.5-.67,2.61-1.75,3.33-3.25.72-1.5,1.08-3.41,1.08-5.74,0-4.33-1.18-7.16-3.54-8.49-2.36-1.33-6.03-2-11.03-2h-2.75Zm0,27.13v22.63h6.99c10.71,0,16.06-3.83,16.06-11.48s-5.66-11.15-16.98-11.15h-6.08Z"/><path class="cls-2" d="m494.83,41.28c6.41-6.35,14.11-9.53,23.09-9.53s16.69,3.18,23.09,9.53c6.41,6.35,9.61,14.02,9.61,23.01s-3.2,16.63-9.61,22.93c-6.41,6.3-14.11,9.45-23.09,9.45s-16.69-3.15-23.09-9.45c-6.41-6.3-9.61-13.94-9.61-22.93s3.2-16.66,9.61-23.01Zm41.32,4.58c-4.99-5.07-11.07-7.61-18.22-7.61s-13.23,2.54-18.22,7.61c-4.99,5.08-7.49,11.19-7.49,18.35s2.51,13.2,7.53,18.31c5.02,5.11,11.08,7.66,18.18,7.66s13.16-2.55,18.18-7.66c5.02-5.11,7.53-11.21,7.53-18.31s-2.5-13.27-7.49-18.35Z"/><path class="cls-2" d="m583.58,32.84v37.36c0,2.39.01,4.08.04,5.08.03,1,.26,2.43.71,4.29.44,1.86,1.11,3.4,2,4.62,1.33,1.83,3.18,3.29,5.53,4.37,2.36,1.08,4.73,1.62,7.12,1.62s4.53-.5,6.78-1.5c2.25-1,4.09-2.36,5.53-4.08.94-1.16,1.66-2.59,2.16-4.28.5-1.69.78-3.11.83-4.24.05-1.14.08-2.76.08-4.87v-38.36h6.99v39.28c0,3.99-.35,7.3-1.04,9.9-.69,2.61-2.18,5.11-4.45,7.49-4.44,4.77-10.07,7.16-16.89,7.16-6.44,0-11.85-2.14-16.23-6.41-2.5-2.39-4.15-4.96-4.95-7.74-.8-2.77-1.21-6.24-1.21-10.4v-39.28h6.99Z"/><path class="cls-2" d="m667.04,39.33v56.25h-6.99v-56.25h-15.14v-6.49h37.45v6.49h-15.31Z"/><path class="cls-2" d="m713.31,32.84v62.74h-6.99v-62.74h6.99Z"/><path class="cls-2" d="m749.67,59.71l26.71-26.88h9.4l-29.46,29.21,30.46,33.54h-9.65l-25.71-28.79-1.75,1.75v27.04h-6.99v-62.74h6.99v26.88Z"/></g><g><path class="cls-2" d="m174.52,111.04h13v3.22h-4.73v14.28h-3.57v-14.28h-4.7v-3.22Z"/><path class="cls-2" d="m197.42,111.04v17.5h-3.58v-17.5h3.58Zm-2.4,6.58h12.85v3.22h-12.85v-3.22Zm14.15-6.58v17.5h-3.58v-17.5h3.58Z"/><path class="cls-2" d="m220.7,111.04v17.5h-3.45v-17.5h3.45Zm-1.15,0h8.82v3.03h-8.82v-3.03Zm0,6.72h8.32v2.98h-8.32v-2.98Zm0,7.75h8.82v3.03h-8.82v-3.03Z"/><path class="cls-2" d="m251.57,111.04v17.5h-3.58v-17.5h3.58Zm-1.4,0h3.47c1.38,0,2.56.23,3.54.67.98.45,1.72,1.09,2.24,1.92.52.83.77,1.83.77,2.98s-.26,2.12-.77,2.96c-.52.84-1.26,1.49-2.24,1.94-.98.45-2.15.68-3.54.68h-3.47v-3.03h3.47c.95,0,1.7-.22,2.25-.65.55-.43.83-1.07.83-1.9s-.27-1.49-.83-1.91c-.55-.42-1.3-.64-2.25-.64h-3.47v-3.03Z"/><path class="cls-2" d="m270.85,111.04v14.38h6.98v3.12h-10.55v-17.5h3.58Z"/><path class="cls-2" d="m289.3,122.74l.08.8-2.3,5h-4.02l8.88-18.52,8.88,18.52h-4.05l-2.25-4.85.05-.9-2.62-6.08-2.62,6.03Zm-1.52-1h8.4l.43,2.83h-9.25l.42-2.83Z"/><path class="cls-2" d="m309.91,122.8c.52.86,1.21,1.52,2.06,1.97.85.46,1.77.69,2.77.69.83,0,1.58-.11,2.23-.33.65-.22,1.24-.51,1.76-.88.52-.37.98-.77,1.36-1.2v4.02c-.72.57-1.5,1.01-2.34,1.33-.84.32-1.9.47-3.19.47s-2.57-.22-3.71-.65c-1.14-.43-2.13-1.06-2.98-1.88-.84-.82-1.49-1.78-1.95-2.89s-.69-2.34-.69-3.69.23-2.58.69-3.69,1.11-2.07,1.95-2.89c.84-.82,1.83-1.44,2.98-1.88,1.14-.43,2.38-.65,3.71-.65s2.35.16,3.19.48c.84.32,1.62.76,2.34,1.33v4.02c-.38-.43-.84-.83-1.36-1.2-.53-.37-1.11-.66-1.76-.88s-1.39-.33-2.23-.33c-1,0-1.92.23-2.77.69s-1.54,1.11-2.06,1.96c-.52.85-.79,1.86-.79,3.03s.26,2.15.79,3.01Z"/><path class="cls-2" d="m331.4,111.04v17.5h-3.45v-17.5h3.45Zm-1.15,0h8.82v3.03h-8.82v-3.03Zm0,6.72h8.32v2.98h-8.32v-2.98Zm0,7.75h8.82v3.03h-8.82v-3.03Z"/><path class="cls-2" d="m356.95,111.04h13v3.22h-4.73v14.28h-3.57v-14.28h-4.7v-3.22Z"/><path class="cls-2" d="m374.72,116.12c.47-1.11,1.12-2.07,1.95-2.89s1.81-1.45,2.94-1.89c1.12-.44,2.35-.66,3.66-.66s2.56.22,3.67.66c1.12.44,2.1,1.07,2.94,1.89.84.82,1.49,1.78,1.95,2.89.46,1.11.69,2.33.69,3.66s-.23,2.54-.69,3.66c-.46,1.12-1.1,2.1-1.93,2.94-.82.83-1.8,1.48-2.92,1.94-1.12.46-2.36.69-3.71.69s-2.59-.23-3.71-.69c-1.12-.46-2.1-1.1-2.94-1.94-.83-.83-1.48-1.81-1.92-2.94-.45-1.12-.68-2.35-.68-3.66s.23-2.55.7-3.66Zm3.77,6.64c.47.87,1.11,1.55,1.92,2.05s1.77.75,2.85.75,2.03-.25,2.85-.75,1.45-1.18,1.91-2.05c.46-.87.69-1.86.69-2.97s-.22-2.11-.67-2.97c-.45-.87-1.08-1.55-1.9-2.05-.82-.5-1.77-.75-2.88-.75s-2.03.25-2.85.75-1.46,1.18-1.92,2.05c-.47.87-.7,1.86-.7,2.97s.23,2.11.7,2.97Z"/><path class="cls-2" d="m414.07,118.04h2.83c.52,0,.97-.08,1.35-.25.38-.17.68-.41.89-.72.21-.32.31-.69.31-1.12,0-.67-.23-1.18-.69-1.53-.46-.35-1.08-.53-1.86-.53h-1.93v11.8h2.3c.6,0,1.14-.09,1.62-.26.48-.17.86-.45,1.14-.84.28-.38.41-.88.41-1.47,0-.43-.08-.8-.24-1.11-.16-.31-.38-.57-.68-.78-.29-.21-.63-.36-1.01-.45-.38-.09-.8-.14-1.25-.14h-3.2v-1.95h3.52c.85,0,1.66.09,2.44.27.78.18,1.47.47,2.09.86.62.39,1.1.9,1.46,1.51.36.62.54,1.36.54,2.23,0,1.15-.27,2.09-.81,2.82-.54.73-1.3,1.28-2.29,1.62-.98.35-2.12.53-3.43.53h-6.2v-17.5h5.82c1.17,0,2.19.16,3.08.49.88.33,1.58.81,2.08,1.46.5.65.75,1.47.75,2.47,0,.88-.25,1.64-.75,2.28s-1.19,1.11-2.08,1.44-1.91.49-3.08.49h-3.15v-1.62Z"/><path class="cls-2" d="m434.92,111.04v17.5h-3.45v-17.5h3.45Zm-1.15,0h8.83v3.03h-8.83v-3.03Zm0,6.72h8.33v2.98h-8.33v-2.98Zm0,7.75h8.83v3.03h-8.83v-3.03Z"/><path class="cls-1" d="m453.1,118.04h2.83c.52,0,.97-.08,1.35-.25.38-.17.68-.41.89-.72.21-.32.31-.69.31-1.12,0-.67-.23-1.18-.69-1.53-.46-.35-1.08-.53-1.86-.53h-1.93v11.8h2.3c.6,0,1.14-.09,1.62-.26.48-.17.86-.45,1.14-.84.28-.38.41-.88.41-1.47,0-.43-.08-.8-.24-1.11-.16-.31-.38-.57-.68-.78-.29-.21-.63-.36-1.01-.45-.38-.09-.8-.14-1.25-.14h-3.2v-1.95h3.52c.85,0,1.66.09,2.44.27.78.18,1.47.47,2.09.86.62.39,1.1.9,1.46,1.51.36.62.54,1.36.54,2.23,0,1.15-.27,2.09-.81,2.82-.54.73-1.3,1.28-2.29,1.62-.98.35-2.12.53-3.43.53h-6.2v-17.5h5.82c1.17,0,2.19.16,3.08.49.88.33,1.58.81,2.08,1.46.5.65.75,1.47.75,2.47,0,.88-.25,1.64-.75,2.28s-1.19,1.11-2.08,1.44-1.91.49-3.08.49h-3.15v-1.62Z"/><path class="cls-1" d="m473.95,111.04v17.5h-3.45v-17.5h3.45Zm-1.15,0h8.83v3.03h-8.83v-3.03Zm0,6.72h8.33v2.98h-8.33v-2.98Zm0,7.75h8.83v3.03h-8.83v-3.03Z"/></g></svg>