<?xml version="1.0" encoding="UTF-8"?>
<svg id="Calque_1" xmlns="http://www.w3.org/2000/svg" viewBox="0 0 140.7 140.7">
    <defs>
        <style>.cls-1{fill:#ed6d4f;}</style>
    </defs>
    <path class="cls-1"
        d="m138.13,73.08c-1.82-3.9-5.25-8.3-10.27-13.2,4.02-7.04,6.03-13.67,6.03-19.89,0-7.98-2.17-15.4-6.5-22.25-5.28-8.3-13.01-13.67-23.19-16.12C99.68.57,92.26.03,81.95.03h-5.94C68.29-.03,63.82,0,62.63.13c-.05,0-.1.01-.15.02,6.52.21,11.48.7,14.83,1.49,10.18,2.45,17.91,7.82,23.19,16.12,4.34,6.85,6.5,14.27,6.5,22.25,0,6.22-2.01,12.85-6.03,19.89,5.03,4.9,8.45,9.3,10.27,13.2,2.58,5.53,3.86,11.34,3.86,17.44,0,11.44-4.34,21.02-13.01,28.75-4.65,4.15-9.39,6.85-14.23,8.11-3.52.88-9.05,1.32-16.59,1.32h26.89c7.54,0,13.07-.44,16.59-1.32,4.84-1.26,9.58-3.96,14.23-8.11,8.67-7.73,13.01-17.31,13.01-28.75,0-6.1-1.29-11.91-3.86-17.44Z" />
    <path class="cls-1"
        d="m87.38,59.89c5.03,4.9,8.45,9.3,10.27,13.2,2.58,5.53,3.86,11.34,3.86,17.44,0,11.44-4.34,21.02-13.01,28.75-4.65,4.15-9.39,6.85-14.23,8.11-3.52.88-9.05,1.32-16.59,1.32H23.85c-8.11,0-14.14-2.11-18.1-6.32-2.83-3.02-4.56-6.32-5.18-9.9-.31-1.7-.47-5.56-.47-11.59L0,21.71C-.12,13.92,3.02,7.92,9.43,3.71,12.45,1.7,16.69.5,22.16.13,23.35,0,27.81-.03,35.54.03h5.94c10.31,0,17.72.53,22.25,1.6,10.18,2.45,17.91,7.82,23.19,16.12,4.34,6.85,6.5,14.26,6.5,22.25,0,6.22-2.01,12.85-6.03,19.89Z" />
</svg>
