<?xml version="1.0" encoding="UTF-8"?><svg id="Calque_1" xmlns="http://www.w3.org/2000/svg" viewBox="0 0 591.92 774.13"><path d="m523.92,91.92C463.17,19.56,364.18-11.14,272.25,3.6,83.37,33.88-61.31,254.37,63.81,425.02c14.14,19.29,30.72,36.46,49.96,50.7,12.39,9.17,13.58,7.82,8.33,21.51-5.74,14.95-16.19,29.56-23.79,43.81-31.65,59.4-66,117.9-96.15,178-3.18,6.35-3.28,15.64,2.67,20.68,17.62,14.94,38.85,21.56,58.99,32.28,7.59,4.04,19.29,2.49,23.35-6.12,36.57-77.62,71.75-155.11,116.56-228.38,57.44,29.97,144.41,9.89,198.81-13.47,73.45-31.55,133.81-88.52,168.1-160.81,41.39-97,20.63-191.08-46.71-271.3Zm-192.87,394.41c-86.2,9.45-178.98-31.12-229.36-102.02-23.86-33.57-37.2-73.53-34.83-114.91,2.52-43.9,28.2-84.37,54.05-118.57C190.49,58.74,316.99,4.77,420.23,73.14c79.22,57.95,130.85,159.27,102.85,257.88-24.06,84.71-105.89,145.88-192.02,155.32Z"/><path d="m297.14,68.75C199.08,103.65,35.22,251.23,130.88,362.93c14.31,16.71,38.36-7.53,24.14-24.14-40.05-46.77-.27-115.62,32.3-154.78,31.53-37.9,72.55-65.86,118.9-82.36,20.55-7.31,11.69-40.31-9.07-32.92Z"/><path d="m217.46,395.3c-2.04-.61-4.07-1.27-6.05-2.05-.44-.26-3.26-1.56-3.66-1.78-1.81-.96-3.57-1.98-5.29-3.09-.98-.63-1.95-1.29-2.9-1.97,1.1.94.87.75-.7-.54-6.91-5.62-17.47-7.27-24.14,0-5.73,6.24-7.4,18.12,0,24.14,10.16,8.27,21.06,14.45,33.67,18.21,8.55,2.55,18.98-3.06,21-11.92,2.09-9.18-2.76-18.26-11.92-21Z"/></svg>