<?xml version="1.0" encoding="UTF-8"?><svg id="Calque_1" xmlns="http://www.w3.org/2000/svg" viewBox="0 0 339.46 775.13"><path class="cls-1" d="m297.75,740.03c7.01-62.9,13.88-125.16,20.9-187.41,4.95-43.95-13.24-80.43-36.36-115.45-5.26-7.96-15.39-17.69-4.13-25.71,12.14-8.65,17.09,5.43,21.81,13.13,16.3,26.57,37.1,52.31,38.22,84.56,1.24,35.87-2.01,72-4.88,107.89-3.74,46.85-8.85,93.59-13.88,140.32-.59,5.53-4.34,10.71-6.63,16.06-4.91-2.22-9.73-4.71-14.78-6.56-2.81-1.03-6.16-1.85-9.02-1.35-75.39,13.1-150.76,9.54-226.25.75-14.3-1.67-22.27-6.94-25.56-21.36-9.89-43.42-22.4-86.31-30.48-130.05-9.41-51-9.57-101,17.87-149.13,20.3-35.62,23.33-76.72,19.57-117.64-.38-4.09-2.66-9.78-5.83-11.56-28.73-16.13-35.05-41.98-31.36-71.88,1.79-14.54,4.97-28.98,8.56-43.2,1.95-7.74,7.2-14.58,16.49-11.45,9.15,3.09,6.21,10.58,4.9,17.95-3.3,18.56-7.21,37.28-7.64,56.02-.55,23.94,18.15,40.16,41.93,36.63,14.71-2.19,28.86-8.46,43.09-13.38,7.45-2.58,15.31-6.21,19.4,3.54,3.96,9.41-3.03,13.97-10.69,16.69-18.15,6.45-36.4,12.6-55.36,19.13-1.2,19.93-.26,42.55-4.49,64.15-4.67,23.87-11.98,47.77-21.96,69.91-11.37,25.22-18.55,50.31-17.88,78.12,1.18,48.88,13,95.71,25.25,142.54,2.76,10.54,4.42,21.48,8.27,31.58,1.79,4.69,7.27,10.7,11.68,11.24,73.5,9.1,147.06,12.54,220.45-1.36,3.19-.6,6.25-1.93,8.79-2.73Z"/><path class="cls-1" d="m28.63,128.83c5.1-38.09,9.83-76.25,15.76-114.21.76-4.83,7.83-8.66,11.97-12.96,3.05,5.52,9.17,11.35,8.64,16.5-3.53,34.92-8.29,69.73-13.07,104.51-1.38,10.01.88,17.22,9.93,22.64,24.29,14.55,48.4,29.42,72.35,44.54,8.23,5.19,14.51,3.08,21.81-2.1,16.96-12.03,35.2-22.36,51.39-35.3,6.91-5.52,11.89-15.28,14.5-24.08,5.92-19.95,9.22-40.69,15-60.7,1.39-4.82,8.39-11.47,12.58-11.3,8.74.35,10.24,8.09,8.28,16.12-6.18,25.31-11.5,50.87-18.85,75.83-2.29,7.78-8.79,15.63-15.48,20.55-18.64,13.71-38.62,25.57-57.63,38.8-12.39,8.62-24.51,11.78-38.11,3.28-28.82-18-57.75-35.82-86.55-53.86-10.4-6.51-14.15-16.14-12.54-28.28Z"/><path class="cls-1" d="m232.62,329.03c15.4-4.14,31.23-7.15,46.1-12.71,19.62-7.33,28.01-24.39,31.66-43.91,1.47-7.88.41-16.34,2.56-23.94,1.38-4.85,6.55-8.62,10.03-12.88,3.85,4.12,10.95,8.25,10.94,12.36-.04,13.11-1.36,26.57-4.69,39.24-6.08,23.14-19.73,41.63-42.71,49.62-17.19,5.98-35.5,9.17-53.57,11.92-8.78,1.34-21.51,1.98-21.48-11.66.03-13.57,12.09-9.9,21.17-8.05Z"/></svg>
