<?xml version="1.0" encoding="UTF-8"?>

<svg id="Calque_1" xmlns="http://www.w3.org/2000/svg" viewBox="0 0 585.5 475.13">
<defs>
<style>
.cls-1,.cls-2{fill:white;}.cls-3{fill:currentColor;opacity:0.25}.cls-2{stroke:currentColor;stroke-miterlimit:10;stroke-width:4px;}.cls-4{fill:currentColor;}</style>
</defs>
<path class="cls-4" d="m345.05,449.16c-13.42-.94-34.1.07-53.57-4.3-33.18-7.45-51.31-36.03-46.76-68.77,5.26-37.81,11.8-75.46,18.68-113.01,2.94-16.02-5.76-27.46-11.99-40.25-14.87-30.51-30.57-60.69-43.75-91.93-11.26-26.69-11.69-53.95,5.34-79.63,8.07-12.17,18.79-21.65,32.22-25.33,26.99-7.41,54.39-13.8,82-18.3C353.3,3.39,379.84.35,406.21.01c27.44-.36,53.33,8.35,75.31,25.49,41.64,32.46,59.16,75.76,54.88,127.91-.84,10.29-4.89,20.28-6.41,30.56-.54,3.67.76,9.29,3.36,11.47,17.58,14.77,31.34,32.19,40,53.51,10.92,26.87,14.97,54.28,10.14,83.38-3.16,19.05-10.61,35.77-21.57,50.83-21.24,29.2-48.1,50.82-85.59,54.53-41.41,4.1-82.92,7.28-131.29,11.46Z"/>
<path class="cls-4" d="m224.12,387.24c-.78-13.06-10.37-23.54-22.14-28.27-13-5.23-27.8-1.89-39.34,5.33-11.35,7.09-20.24,17.8-25.51,30.06s-7.04,24.83-5.22,37.61c.89,6.22,2.77,12.28,5.59,17.9,2.96,5.91,7.09,11.73,13.43,14.29,3.07,1.24,6.52,1.24,9.46-.37,2.52-1.38,4.38-3.85,5-6.66,1.29-5.76-1.25-11.98-4.22-16.81-3.53-5.75-7.83-11.29-12.36-16.28-4.55-5.02-9.83-9.6-15.93-12.64-14.11-7.05-29.99-4.42-44.04,1.36-7.28,3-14.23,6.7-21.08,10.56-6.84,3.85-13.56,7.9-20.16,12.16-13.24,8.54-25.97,17.88-38.1,27.93-2.96,2.45-5.89,4.95-8.78,7.49-1.02.89-.91,2.62,0,3.54,1.01,1.01,2.52.89,3.54,0,22.07-19.38,46.32-36.24,72.17-50.18,12.36-6.66,26.23-13.07,40.62-12.11,13.22.88,23.41,9.33,31.45,19.2,2.04,2.5,3.95,5.11,5.81,7.75,1.62,2.31,3.19,4.62,4.39,7.18,1.02,2.18,1.85,4.67,2,6.97s-.18,4.11-1.81,5.54c-4.3,3.78-10.36-1.35-13.1-4.85-3.38-4.32-5.7-9.71-7.25-14.94-6.63-22.38,1.05-48.09,18.08-63.84,9.4-8.69,22.03-14.75,35.06-13.61,10.76.94,21.54,8.12,25.71,18.22.98,2.37,1.57,4.91,1.72,7.47.19,3.2,5.19,3.22,5,0h0Z"/>
<path class="cls-3" d="m467.4,198.81c-3.47.12-6.66-.44-9.7-1.77-1.46-.64-2.68-1.55-3.72-2.67-2.6-2.8-2.62-6.57-.11-9.43,1.83-2.08,4.29-3.31,6.91-4.11,6.06-1.85,12.15-1.85,18.12.43.84.32,1.61.82,2.37,1.31,4.04,2.61,4.69,8.2,1.38,11.65-1.27,1.32-2.88,2.16-4.6,2.78-3.46,1.23-7.01,2.1-10.65,1.81Z"/>
<path class="cls-3" d="m319.78,179.69c5.14.57,10.01,1.23,14.26,4.16,4.34,2.99,4.19,9.66-.13,12.32-2.49,1.53-5.09,2.43-8.05,2.74-3.03.32-6.03.25-9.02-.09-4.03-.46-7.59-1.89-10.36-4.81-2.75-2.9-2.67-6.95.14-9.64,1.29-1.24,2.7-2.22,4.5-2.88,2.86-1.06,5.79-1.54,8.66-1.79Z"/>
<path class="cls-1" d="m424.75,231.7c5.82-.21,12.31-.53,18.81-.66,2.68-.05,5.37.21,8.04.52,2.31.26,3.08,1.09,3.14,3.43.57,21.81-5.7,40.85-24,55.09-11.3,8.8-23.82,11.5-37.8,7.34-12.29-3.66-22.78-10.02-31.14-19.5-3.09-3.51-5.33-7.48-6.48-11.94-2.59-10.03-2.4-20.06.12-30.09.47-1.89,1.66-2.29,3.39-2.32,8.07-.17,16.14-.35,24.21-.6,12.1-.39,24.19-.85,36.29-1.26,1.57-.05,3.14,0,5.4,0Zm-21.69,64.34c1.66-.09,3.74-.1,5.79-.32,4.9-.52,9.69-1.62,14.2-3.54,2.63-1.12,5.38-2.63,5.12-5.88-.24-3-2.4-4.83-5.45-5.6-1-.25-1.94-.73-2.94-.95-10.25-2.19-20.5-2.22-30.73.07-2.26.5-4.46,1.29-6.35,2.68-2.42,1.78-2.82,4.91-.93,7.26,1.48,1.84,3.56,2.83,5.71,3.73,4.84,2.02,9.97,2.48,15.57,2.55Z"/>
<path class="cls-2" d="m444.51,109.95c5.29.17,10,2.82,14.36,8.82,4.3,5.92,8.1,13.24,11.06,22.96.61,2,1.19,4.04,1.49,6.47.33,2.71-.09,5.69-1.02,7.34-.89,1.58-2.3,1.77-3.18-.07-.76-1.6-1.36-3.67-2-5.59-3.96-11.94-8.84-20.59-15.05-24.25-4.53-2.67-9.03-1.68-13.46,1.48-5.73,4.08-10.89,10.96-15.76,19.25-.74,1.26-1.48,2.59-2.29,3.51-.94,1.06-2.15.1-2.74-1.89-.58-1.94-.72-4.14-.24-6.24.32-1.41.76-2.83,1.28-3.8,7.6-14.04,15.73-25.3,25.48-27.63.79-.19,1.59-.27,2.06-.35Z"/>
<path class="cls-2" d="m330.98,117.61c4.9-.22,9.34,1.82,13.6,6.02,3.75,3.69,6.95,9.33,9.72,16.44.54,1.38,1.04,2.97,1.37,4.68.5,2.54.11,5.8-.72,7.54-.94,1.95-2.07,2.3-3.16.71-.58-.84-1.12-1.9-1.58-3.09-5.47-14.14-12.44-19.01-20.11-18.29-9.04.85-17.41,7.42-24.92,19.95-.47.78-.92,1.65-1.43,2.23-1.1,1.25-2.39.44-3.07-1.76-.67-2.18-.69-5.45.13-7.65.68-1.82,1.48-3.44,2.31-4.86,4.6-7.87,9.7-13.18,15.06-17.15,4.27-3.16,8.61-5.09,12.81-4.76Z"/>
</svg>
