<?xml version="1.0" encoding="UTF-8"?>
<svg id="Calque_1" xmlns="http://www.w3.org/2000/svg" viewBox="0 0 696.1 561.4">
<defs>
<style>
.cls-1,.cls-2,.cls-3{fill:white;}.cls-2{stroke-width:11px;}.cls-2,.cls-3{stroke:currentColor;stroke-miterlimit:10;}.cls-4{fill:currentColor;opacity:0.25}.cls-3{stroke-width:2px;}.cls-5{fill:currentColor;}</style>
</defs>
<path class="cls-5" d="m374.86,256.91c21.57,21.03,36.26,39.9,44.08,56.61,11.05,23.72,16.58,48.66,16.58,74.81,0,49.06-18.6,90.17-55.8,123.33-19.95,17.79-40.3,29.38-61.06,34.78-15.1,3.77-38.82,5.66-71.17,5.66H102.32c-34.78,0-60.65-9.03-77.64-27.09-12.13-12.94-19.54-27.09-22.24-42.46-1.35-7.28-2.02-23.86-2.02-49.74L.02,93.14C-.52,59.71,12.96,33.97,40.45,15.9,53.39,7.28,71.59,2.16,95.04.54,100.16,0,119.3-.13,152.46.13h25.47c44.21,0,76.02,2.29,95.43,6.87,43.67,10.51,76.83,33.56,99.47,69.15,18.6,29.38,27.9,61.19,27.9,95.43,0,26.69-8.63,55.13-25.88,85.32Z"/>
<g>
<path class="cls-5" d="m673.03,406.76c7.44-16.53,14.3-31.83,21.22-47.11,2.05-4.53,3.57-9.39-2.16-11.84-5.78-2.47-8.01,2.2-10.04,6.67-7.4,16.31-14.83,32.62-22.54,48.78-1.12,2.35-3.57,5.23-5.82,5.65-6.3,1.18-12.81,1.21-20.12,1.76,2.18-17.02,4.26-33.31,6.52-51.01,6.38,0,13.43.18,20.46-.06,4.74-.17,10.13-.91,9.58-7.3-.52-6.1-5.85-6.48-10.62-6.13-31.6,2.36-63.38,1.93-94.85,6.42-16.67,2.38-33.47,3.83-50.17,6.06-4.7.63-6.49-1.09-8.51-5.09-7.42-14.69-15.02-29.28-22.6-43.88-.66-.02-1.33-.06-1.99-.15-4.22-.6-8.02.48-11.44,2.55,8.38,16.24,16.69,32.41,24.81,48.17-7.16,7.04-23.49-1.74-22.91,15.62-8.57,3.47-9.08,5.45-5.01,16.63,9.27,25.48,18.52,50.97,27.56,76.53,1.71,4.82,3.61,9.22,9.5,7.24,5.52-1.85,4.39-6.72,3.14-11.07-2.72-9.52-5.48-19.03-8.45-29.32,10.96-1.55,21.05-2.97,31.83-4.49,1.48,8.21,2.1,15.6,4.39,22.42.99,2.96,5.56,6.85,8.23,6.66,5.05-.37,6.25-4.84,4.9-9.96-1.64-6.25-2.65-12.67-4.16-20.16,9.67-.71,18.66-1.37,28.69-2.11,0,5.84-.88,10.67.29,14.93.87,3.18,4.37,5.63,6.7,8.4,2.22-2.96,5.63-5.64,6.37-8.93,1.09-4.83.28-10.09.28-15.62,10.87-.6,20.78-1.14,31.6-1.73-.68,7.12-1.32,13.01-1.77,18.92-.34,4.43.59,9.14,5.83,8.7,2.53-.21,6.02-4.11,6.82-6.98,1.93-6.94,2.53-14.26,3.68-21.57,6.08-.44,11.42-.83,17.85-1.29-.93,2.29-1.36,3.25-1.72,4.24-3.19,8.93-6.88,17.73-9.19,26.88-.62,2.44,2.97,5.95,4.63,8.96,2.63-2.02,6.44-3.5,7.67-6.17,3.4-7.35,5.95-15.14,8.41-22.88,2.9-9.11,7.45-15.4,18.36-14.02,2.88.36,6.37.19,8.78-1.16,3.06-1.71,5.3-4.88,7.89-7.42-2.86-1.88-5.52-4.76-8.63-5.38-3.93-.78-8.23.29-13.28.63Zm-180.08,16.48c-5.71-14.9-11.3-29.5-17.01-44.4,16.44-2.86,32.1-5.58,46.66-8.11.69,8.34,1.16,16.02,2.02,23.65.87,7.76,2.13,15.48,3.28,23.6-12.02,1.81-23.21,3.5-34.95,5.27Zm78.39-8.68c-8.64.73-17.42,1.72-26.23,1.96-1.43.04-3.95-3.08-4.27-5.02-1.54-9.34-2.42-18.78-3.72-28.16-.61-4.43-1.64-8.8-2.62-13.96,12.06-1.26,24.06-2.52,36.84-3.86v49.03Zm48.51-3.13c-11.03.7-21.98,1.4-33.96,2.17v-49.5c13.53-.95,26.94-1.89,40.73-2.85-2.31,17.12-4.48,33.16-6.77,50.18Z"/>
<path class="cls-5" d="m509.26,532.42c.75-10.02,3.01-20.81,14.6-26.57,4.65-2.31,9.98-3.49,12.76,2.23,2.61,5.36-1.96,7.35-6.06,9.5-7.89,4.13-11.03,16.74-6.42,24.33,3.43,5.65,9.72,7.58,15.53,4.75,10.19-4.96,12.48-19.65,4.81-27.88-1.75-1.88-2.93-7.24-1.89-8.15,2.16-1.89,6.92-3.46,8.92-2.28,3.95,2.32,7.94,6.07,9.81,10.18,5.78,12.77-2.12,33.07-14.6,39.58-18.39,9.6-37.43-2.69-37.46-25.68Z"/>
<path class="cls-5" d="m521.65,485.57c-1.32-1.48-3.54-3.97-5.75-6.46,2.75-2.43,5.27-6.6,8.29-7,20.94-2.76,41.97-4.97,63.01-6.87,13.76-1.25,27.59-1.73,41.39-2.47,4.44-.24,9.2,1.04,8.47,6.11-.39,2.71-4.92,6.58-7.89,6.88-34.5,3.47-69.05,6.35-103.6,9.39-.54.05-1.08.11-3.91.41Z"/>
<path class="cls-5" d="m628.83,506.88c6.6-5.08,13.74-2.81,17.49,7.3,4.21,11.39.13,21.38-7.03,30.15-6.78,8.3-15.92,11.02-26.29,8.54-11.31-2.7-18.05-12.57-17.07-24.32,1.06-12.68,10.27-23.79,21.01-24.48,3.39-.22,6.9,1.56,11.89,2.81Zm-.74,6.31c-3.78,1.53-8.02,2.07-10.37,4.46-3.51,3.56-6.72,8.15-8.01,12.87-.64,2.32,3.12,8.24,5.24,8.43,4.52.39,10.35-.58,13.7-3.36,8.38-6.95,7.45-15.58-.56-22.39Z"/>
</g>
<path class="cls-5" d="m382.87,319.85c3.11-16.13,17.99-25.77,32.37-31.26,9.12-3.48,19.32-6.76,29.17-6.19,7.79.46,15.48,4.97,16.68,13.14.49,3.33,4.7,5.15,7.65,4.34,3.57-.98,4.83-4.31,4.34-7.65-1.21-8.28-7.53-15.34-14.94-18.86-9.68-4.6-20.39-3.92-30.59-1.54-15.72,3.66-31.98,10.19-43.72,21.59-6.44,6.26-11.24,14.24-12.95,23.11-.63,3.29.93,6.71,4.34,7.65,3.04.84,7.01-1.03,7.65-4.34h0Z"/>
<path class="cls-5" d="m473.35,286.9c-5.32,2.16-10.52,4.42-14.88,8.26s-7.31,9.74-6.5,15.81c.74,5.54,3.96,10.94,9.26,13.18,2.75,1.16,5.85,1.43,8.71.42,3.19-1.13,5.56-3.18,7.5-5.91,1.3-1.84,2.16-3.93,3.09-5.97.49-1.07.99-2.14,1.58-3.16.28-.49.69-.95.94-1.45-.59,1.18-.76.92-.4.52.28-.31.55-.61.84-.9,2.33-2.28,2.46-6.54,0-8.79-2.5-2.3-6.31-2.43-8.79,0-2.97,2.91-4.42,6.62-6.18,10.29-.36.75-.74,1.48-1.16,2.19-.2.33-.5.65-.66,1,.02-.04,1.06-1.24.43-.57-.16.18-.32.36-.49.53s-.35.33-.52.49c-.43.41-.5-.02.58-.45-.27.11-.79.39-1.01.58.08-.07,1.53-.5.65-.29-.19.04-.4.11-.58.16-.55.17-.69-.24.8-.09-.22-.02-.48.01-.7.02-.28,0-.99-.1.15.04s.43.07.16-.02c-.17-.06-.35-.12-.52-.16-.69-.19,1.34.69.74.3-.23-.15-1.34-.94-.43-.18s-.24-.25-.44-.46c-.17-.17-.31-.38-.49-.55-.52-.51.8,1.18.43.55-.2-.35-.44-.67-.64-1.03-.1-.18-.18-.37-.28-.55-.38-.64.49,1.35.26.64-.15-.44-.31-.87-.43-1.33-.11-.4-.15-.82-.25-1.22.48,1.79.1.81.09.11,0-.41.07-.82.06-1.23.05,1.58-.22,1.26-.08.75.08-.3.14-.59.23-.89.06-.19.16-.39.21-.58-.3,1.33-.45,1.01-.19.53.23-.43.46-.86.72-1.27.13-.2.27-.4.41-.6.55-.84-.22.33-.31.4.45-.37.8-.92,1.22-1.33.39-.38.8-.75,1.22-1.1.19-.16.82-.71.09-.08-.78.67.07-.03.26-.17.98-.68,2-1.29,3.04-1.86s2.14-1.1,3.24-1.6c.58-.26,1.16-.5,1.74-.76-.1.04-1.41.58-.44.19.35-.14.69-.28,1.04-.42,1.56-.64,2.83-1.35,3.72-2.86.78-1.33,1.11-3.3.63-4.79-.94-2.9-4.42-5.66-7.65-4.34h0Z"/>
<path class="cls-1" d="m146.04,233.8c-18.98,0-34.35-16.59-34.21-37.25.14-21.17,15.59-36.94,34.49-36.89,18.38.04,34.06,16.36,34.04,36.99-.02,20.56-15.28,37.15-34.32,37.15Zm-.09-66.67c-.75.04-1.72.04-2.69.14-4.96.55-9.42,2.5-13.47,5.65-1.43,1.12-1.86,2.46-1.51,4.29.76,4.02,2.03,7.81,4.18,11.22,2.66,4.22,6.32,6.86,11.01,7.37,7.14.78,13.21-1.78,17.75-7.86,2.23-3,3.21-6.62,3.1-10.55-.06-2.13-.79-3.69-2.46-4.9-4.75-3.46-9.93-5.37-15.91-5.36Z"/>
<path class="cls-1" d="m241.46,157.3c18.54-.08,34.37,16.18,34.35,37.14-.03,20.29-15.23,36.89-34.04,37.08-18.89.19-34.52-16.38-34.52-36.99,0-21.15,15.18-37.05,34.21-37.23Zm.32,7.41c-6.08.1-11.55,1.98-16.46,5.8-1.4,1.09-1.93,2.37-1.6,4.25.75,4.36,2.2,8.38,4.61,11.98,2.3,3.44,5.39,5.76,9.24,6.48,7.62,1.43,14.06-1.12,19.01-7.53,2.19-2.83,3.14-6.33,3.2-10.07.04-2.46-.77-4.27-2.74-5.67-4.67-3.31-9.76-5.05-15.27-5.24Z"/>
<path class="cls-4" d="m289.5,265.35c-3.67.15-7.05-.54-10.27-2.17-1.55-.79-2.84-1.91-3.94-3.28-2.76-3.43-2.77-8.07-.11-11.58,1.94-2.55,4.54-4.06,7.31-5.04,6.41-2.27,12.86-2.27,19.18.52.89.39,1.71,1.01,2.51,1.61,4.28,3.2,4.96,10.07,1.46,14.31-1.34,1.63-3.05,2.66-4.87,3.41-3.66,1.51-7.42,2.58-11.27,2.22Z"/>
<path class="cls-4" d="m99.38,241.87c5.44.7,10.6,1.51,15.09,5.11,4.59,3.68,4.43,11.86-.14,15.12-2.63,1.88-5.39,2.98-8.52,3.36-3.2.39-6.38.3-9.55-.11-4.27-.56-8.04-2.32-10.96-5.9-2.91-3.57-2.83-8.53.15-11.84,1.37-1.52,2.86-2.73,4.76-3.54,3.03-1.3,6.13-1.89,9.17-2.2Z"/>
<path class="cls-2" d="m190.04,300.16c21.7.35,38.23,7.19,50.67,23.7,5.57,7.38,11.06,14.84,16.38,22.43,1.74,2.49,3.12,5.41,4.12,8.34,1.14,3.36-.41,7.23-3.13,9.29-2.68,2.03-5.47,1.95-8.31.39-2.71-1.49-4.51-4-6.32-6.52-4.01-5.57-8.2-11-12-16.73-14.01-21.17-33.43-25.39-55.58-20.82-9.68,2-18.85,5.61-26.95,11.95-1.31,1.02-2.73,1.95-4.22,2.62-2.74,1.23-5.96.23-7.98-2.23-2.05-2.49-2.42-5.83-1.04-8.87,1.67-3.67,4.66-5.89,7.66-7.99,9.98-7.01,20.96-11.41,32.62-13.7,5.44-1.06,11-1.47,14.1-1.87Z"/>
<path class="cls-3" d="m119.28,146.48c-1.99.06-3.91-.34-5.71-1.2-.87-.42-1.71-1.04-2.4-1.75-1.03-1.07-1.17-2.9-.49-4.19.67-1.27,2.27-2.17,3.6-1.49,4.66,2.4,9.01.68,13.36-.95,6.26-2.35,11.26-6.6,15.14-12.33,2.22-3.28,4.2-6.75,6.26-10.16.99-1.64,1.87-3.36,2.85-5.01.53-.88,1.11-1.75,1.79-2.49,1.28-1.38,2.87-1.64,4.2-.86,1.36.81,1.98,2.39,1.57,4.28-.19.87-.49,1.74-.9,2.51-3.29,6.13-6.58,12.27-10.7,17.82-6.61,8.9-15.39,13.69-25.66,15.56-.96.17-1.94.17-2.92.25Z"/>
<path class="cls-3" d="m262.11,143.59c-3.61.14-6.52-.11-9.43-.54-7.89-1.16-14.19-5.04-18.48-12.45-2.92-5.03-5.13-10.34-5.81-16.3-.12-1.06-.19-2.09.12-3.12.43-1.45,1.37-2.25,2.71-2.47,1.3-.22,2.85.79,3.3,2.21.32.99.45,2.05.63,3.08.81,4.67,2.73,8.81,5.15,12.73,2.71,4.4,6.56,6.85,11.24,7.92,2.18.5,4.39.83,6.63.79,2.78-.04,5.57-.04,8.36-.03.97,0,1.96,0,2.9.22,1.6.37,2.75,1.9,2.83,3.49.08,1.58-.91,3.14-2.54,3.7-1.05.36-2.17.49-3.27.68-.41.07-.83.06-1.25.07-1.25,0-2.51,0-3.08,0Z"/>
<path class="cls-5" d="m374.86,256.91c21.57,21.03,36.26,39.9,44.08,56.61,11.05,23.72,16.58,48.66,16.58,74.81,0,49.06-18.6,90.17-55.8,123.33-19.95,17.79-40.3,29.38-61.06,34.78-15.1,3.77-38.82,5.66-71.17,5.66H102.32c-34.78,0-60.65-9.03-77.64-27.09-12.13-12.94-19.54-27.09-22.24-42.46-1.35-7.28-2.02-23.86-2.02-49.74L.02,93.14C-.52,59.71,12.96,33.97,40.45,15.9,53.39,7.28,71.59,2.16,95.04.54,100.16,0,119.3-.13,152.46.13h25.47c44.21,0,76.02,2.29,95.43,6.87,43.67,10.51,76.83,33.56,99.47,69.15,18.6,29.38,27.9,61.19,27.9,95.43,0,26.69-8.63,55.13-25.88,85.32Z"/>
<g>
<path class="cls-5" d="m673.03,406.76c7.44-16.53,14.3-31.83,21.22-47.11,2.05-4.53,3.57-9.39-2.16-11.84-5.78-2.47-8.01,2.2-10.04,6.67-7.4,16.31-14.83,32.62-22.54,48.78-1.12,2.35-3.57,5.23-5.82,5.65-6.3,1.18-12.81,1.21-20.12,1.76,2.18-17.02,4.26-33.31,6.52-51.01,6.38,0,13.43.18,20.46-.06,4.74-.17,10.13-.91,9.58-7.3-.52-6.1-5.85-6.48-10.62-6.13-31.6,2.36-63.38,1.93-94.85,6.42-16.67,2.38-33.47,3.83-50.17,6.06-4.7.63-6.49-1.09-8.51-5.09-7.42-14.69-15.02-29.28-22.6-43.88-.66-.02-1.33-.06-1.99-.15-4.22-.6-8.02.48-11.44,2.55,8.38,16.24,16.69,32.41,24.81,48.17-7.16,7.04-23.49-1.74-22.91,15.62-8.57,3.47-9.08,5.45-5.01,16.63,9.27,25.48,18.52,50.97,27.56,76.53,1.71,4.82,3.61,9.22,9.5,7.24,5.52-1.85,4.39-6.72,3.14-11.07-2.72-9.52-5.48-19.03-8.45-29.32,10.96-1.55,21.05-2.97,31.83-4.49,1.48,8.21,2.1,15.6,4.39,22.42.99,2.96,5.56,6.85,8.23,6.66,5.05-.37,6.25-4.84,4.9-9.96-1.64-6.25-2.65-12.67-4.16-20.16,9.67-.71,18.66-1.37,28.69-2.11,0,5.84-.88,10.67.29,14.93.87,3.18,4.37,5.63,6.7,8.4,2.22-2.96,5.63-5.64,6.37-8.93,1.09-4.83.28-10.09.28-15.62,10.87-.6,20.78-1.14,31.6-1.73-.68,7.12-1.32,13.01-1.77,18.92-.34,4.43.59,9.14,5.83,8.7,2.53-.21,6.02-4.11,6.82-6.98,1.93-6.94,2.53-14.26,3.68-21.57,6.08-.44,11.42-.83,17.85-1.29-.93,2.29-1.36,3.25-1.72,4.24-3.19,8.93-6.88,17.73-9.19,26.88-.62,2.44,2.97,5.95,4.63,8.96,2.63-2.02,6.44-3.5,7.67-6.17,3.4-7.35,5.95-15.14,8.41-22.88,2.9-9.11,7.45-15.4,18.36-14.02,2.88.36,6.37.19,8.78-1.16,3.06-1.71,5.3-4.88,7.89-7.42-2.86-1.88-5.52-4.76-8.63-5.38-3.93-.78-8.23.29-13.28.63Zm-180.08,16.48c-5.71-14.9-11.3-29.5-17.01-44.4,16.44-2.86,32.1-5.58,46.66-8.11.69,8.34,1.16,16.02,2.02,23.65.87,7.76,2.13,15.48,3.28,23.6-12.02,1.81-23.21,3.5-34.95,5.27Zm78.39-8.68c-8.64.73-17.42,1.72-26.23,1.96-1.43.04-3.95-3.08-4.27-5.02-1.54-9.34-2.42-18.78-3.72-28.16-.61-4.43-1.64-8.8-2.62-13.96,12.06-1.26,24.06-2.52,36.84-3.86v49.03Zm48.51-3.13c-11.03.7-21.98,1.4-33.96,2.17v-49.5c13.53-.95,26.94-1.89,40.73-2.85-2.31,17.12-4.48,33.16-6.77,50.18Z"/>
<path class="cls-5" d="m509.26,532.42c.75-10.02,3.01-20.81,14.6-26.57,4.65-2.31,9.98-3.49,12.76,2.23,2.61,5.36-1.96,7.35-6.06,9.5-7.89,4.13-11.03,16.74-6.42,24.33,3.43,5.65,9.72,7.58,15.53,4.75,10.19-4.96,12.48-19.65,4.81-27.88-1.75-1.88-2.93-7.24-1.89-8.15,2.16-1.89,6.92-3.46,8.92-2.28,3.95,2.32,7.94,6.07,9.81,10.18,5.78,12.77-2.12,33.07-14.6,39.58-18.39,9.6-37.43-2.69-37.46-25.68Z"/>
<path class="cls-5" d="m521.65,485.57c-1.32-1.48-3.54-3.97-5.75-6.46,2.75-2.43,5.27-6.6,8.29-7,20.94-2.76,41.97-4.97,63.01-6.87,13.76-1.25,27.59-1.73,41.39-2.47,4.44-.24,9.2,1.04,8.47,6.11-.39,2.71-4.92,6.58-7.89,6.88-34.5,3.47-69.05,6.35-103.6,9.39-.54.05-1.08.11-3.91.41Z"/>
<path class="cls-5" d="m628.83,506.88c6.6-5.08,13.74-2.81,17.49,7.3,4.21,11.39.13,21.38-7.03,30.15-6.78,8.3-15.92,11.02-26.29,8.54-11.31-2.7-18.05-12.57-17.07-24.32,1.06-12.68,10.27-23.79,21.01-24.48,3.39-.22,6.9,1.56,11.89,2.81Zm-.74,6.31c-3.78,1.53-8.02,2.07-10.37,4.46-3.51,3.56-6.72,8.15-8.01,12.87-.64,2.32,3.12,8.24,5.24,8.43,4.52.39,10.35-.58,13.7-3.36,8.38-6.95,7.45-15.58-.56-22.39Z"/>
</g>
<path class="cls-5" d="m382.87,319.85c3.11-16.13,17.99-25.77,32.37-31.26,9.12-3.48,19.32-6.76,29.17-6.19,7.79.46,15.48,4.97,16.68,13.14.49,3.33,4.7,5.15,7.65,4.34,3.57-.98,4.83-4.31,4.34-7.65-1.21-8.28-7.53-15.34-14.94-18.86-9.68-4.6-20.39-3.92-30.59-1.54-15.72,3.66-31.98,10.19-43.72,21.59-6.44,6.26-11.24,14.24-12.95,23.11-.63,3.29.93,6.71,4.34,7.65,3.04.84,7.01-1.03,7.65-4.34h0Z"/>
<path class="cls-5" d="m473.35,286.9c-5.32,2.16-10.52,4.42-14.88,8.26s-7.31,9.74-6.5,15.81c.74,5.54,3.96,10.94,9.26,13.18,2.75,1.16,5.85,1.43,8.71.42,3.19-1.13,5.56-3.18,7.5-5.91,1.3-1.84,2.16-3.93,3.09-5.97.49-1.07.99-2.14,1.58-3.16.28-.49.69-.95.94-1.45-.59,1.18-.76.92-.4.52.28-.31.55-.61.84-.9,2.33-2.28,2.46-6.54,0-8.79-2.5-2.3-6.31-2.43-8.79,0-2.97,2.91-4.42,6.62-6.18,10.29-.36.75-.74,1.48-1.16,2.19-.2.33-.5.65-.66,1,.02-.04,1.06-1.24.43-.57-.16.18-.32.36-.49.53s-.35.33-.52.49c-.43.41-.5-.02.58-.45-.27.11-.79.39-1.01.58.08-.07,1.53-.5.65-.29-.19.04-.4.11-.58.16-.55.17-.69-.24.8-.09-.22-.02-.48.01-.7.02-.28,0-.99-.1.15.04s.43.07.16-.02c-.17-.06-.35-.12-.52-.16-.69-.19,1.34.69.74.3-.23-.15-1.34-.94-.43-.18s-.24-.25-.44-.46c-.17-.17-.31-.38-.49-.55-.52-.51.8,1.18.43.55-.2-.35-.44-.67-.64-1.03-.1-.18-.18-.37-.28-.55-.38-.64.49,1.35.26.64-.15-.44-.31-.87-.43-1.33-.11-.4-.15-.82-.25-1.22.48,1.79.1.81.09.11,0-.41.07-.82.06-1.23.05,1.58-.22,1.26-.08.75.08-.3.14-.59.23-.89.06-.19.16-.39.21-.58-.3,1.33-.45,1.01-.19.53.23-.43.46-.86.72-1.27.13-.2.27-.4.41-.6.55-.84-.22.33-.31.4.45-.37.8-.92,1.22-1.33.39-.38.8-.75,1.22-1.1.19-.16.82-.71.09-.08-.78.67.07-.03.26-.17.98-.68,2-1.29,3.04-1.86s2.14-1.1,3.24-1.6c.58-.26,1.16-.5,1.74-.76-.1.04-1.41.58-.44.19.35-.14.69-.28,1.04-.42,1.56-.64,2.83-1.35,3.72-2.86.78-1.33,1.11-3.3.63-4.79-.94-2.9-4.42-5.66-7.65-4.34h0Z"/>
<path class="cls-1" d="m146.04,233.8c-18.98,0-34.35-16.59-34.21-37.25.14-21.17,15.59-36.94,34.49-36.89,18.38.04,34.06,16.36,34.04,36.99-.02,20.56-15.28,37.15-34.32,37.15Zm-.09-66.67c-.75.04-1.72.04-2.69.14-4.96.55-9.42,2.5-13.47,5.65-1.43,1.12-1.86,2.46-1.51,4.29.76,4.02,2.03,7.81,4.18,11.22,2.66,4.22,6.32,6.86,11.01,7.37,7.14.78,13.21-1.78,17.75-7.86,2.23-3,3.21-6.62,3.1-10.55-.06-2.13-.79-3.69-2.46-4.9-4.75-3.46-9.93-5.37-15.91-5.36Z"/>
<path class="cls-1" d="m241.46,157.3c18.54-.08,34.37,16.18,34.35,37.14-.03,20.29-15.23,36.89-34.04,37.08-18.89.19-34.52-16.38-34.52-36.99,0-21.15,15.18-37.05,34.21-37.23Zm.32,7.41c-6.08.1-11.55,1.98-16.46,5.8-1.4,1.09-1.93,2.37-1.6,4.25.75,4.36,2.2,8.38,4.61,11.98,2.3,3.44,5.39,5.76,9.24,6.48,7.62,1.43,14.06-1.12,19.01-7.53,2.19-2.83,3.14-6.33,3.2-10.07.04-2.46-.77-4.27-2.74-5.67-4.67-3.31-9.76-5.05-15.27-5.24Z"/>
<path class="cls-4" d="m289.5,265.35c-3.67.15-7.05-.54-10.27-2.17-1.55-.79-2.84-1.91-3.94-3.28-2.76-3.43-2.77-8.07-.11-11.58,1.94-2.55,4.54-4.06,7.31-5.04,6.41-2.27,12.86-2.27,19.18.52.89.39,1.71,1.01,2.51,1.61,4.28,3.2,4.96,10.07,1.46,14.31-1.34,1.63-3.05,2.66-4.87,3.41-3.66,1.51-7.42,2.58-11.27,2.22Z"/>
<path class="cls-4" d="m99.38,241.87c5.44.7,10.6,1.51,15.09,5.11,4.59,3.68,4.43,11.86-.14,15.12-2.63,1.88-5.39,2.98-8.52,3.36-3.2.39-6.38.3-9.55-.11-4.27-.56-8.04-2.32-10.96-5.9-2.91-3.57-2.83-8.53.15-11.84,1.37-1.52,2.86-2.73,4.76-3.54,3.03-1.3,6.13-1.89,9.17-2.2Z"/>
<path class="cls-2" d="m190.04,300.16c21.7.35,38.23,7.19,50.67,23.7,5.57,7.38,11.06,14.84,16.38,22.43,1.74,2.49,3.12,5.41,4.12,8.34,1.14,3.36-.41,7.23-3.13,9.29-2.68,2.03-5.47,1.95-8.31.39-2.71-1.49-4.51-4-6.32-6.52-4.01-5.57-8.2-11-12-16.73-14.01-21.17-33.43-25.39-55.58-20.82-9.68,2-18.85,5.61-26.95,11.95-1.31,1.02-2.73,1.95-4.22,2.62-2.74,1.23-5.96.23-7.98-2.23-2.05-2.49-2.42-5.83-1.04-8.87,1.67-3.67,4.66-5.89,7.66-7.99,9.98-7.01,20.96-11.41,32.62-13.7,5.44-1.06,11-1.47,14.1-1.87Z"/>
<path class="cls-3" d="m119.28,146.48c-1.99.06-3.91-.34-5.71-1.2-.87-.42-1.71-1.04-2.4-1.75-1.03-1.07-1.17-2.9-.49-4.19.67-1.27,2.27-2.17,3.6-1.49,4.66,2.4,9.01.68,13.36-.95,6.26-2.35,11.26-6.6,15.14-12.33,2.22-3.28,4.2-6.75,6.26-10.16.99-1.64,1.87-3.36,2.85-5.01.53-.88,1.11-1.75,1.79-2.49,1.28-1.38,2.87-1.64,4.2-.86,1.36.81,1.98,2.39,1.57,4.28-.19.87-.49,1.74-.9,2.51-3.29,6.13-6.58,12.27-10.7,17.82-6.61,8.9-15.39,13.69-25.66,15.56-.96.17-1.94.17-2.92.25Z"/>
<path class="cls-3" d="m262.11,143.59c-3.61.14-6.52-.11-9.43-.54-7.89-1.16-14.19-5.04-18.48-12.45-2.92-5.03-5.13-10.34-5.81-16.3-.12-1.06-.19-2.09.12-3.12.43-1.45,1.37-2.25,2.71-2.47,1.3-.22,2.85.79,3.3,2.21.32.99.45,2.05.63,3.08.81,4.67,2.73,8.81,5.15,12.73,2.71,4.4,6.56,6.85,11.24,7.92,2.18.5,4.39.83,6.63.79,2.78-.04,5.57-.04,8.36-.03.97,0,1.96,0,2.9.22,1.6.37,2.75,1.9,2.83,3.49.08,1.58-.91,3.14-2.54,3.7-1.05.36-2.17.49-3.27.68-.41.07-.83.06-1.25.07-1.25,0-2.51,0-3.08,0Z"/>
</svg>