<?xml version="1.0" encoding="UTF-8"?>
<svg id="Calque_1" xmlns="http://www.w3.org/2000/svg" viewBox="0 0 551.2 552.09">
<defs>
<style>.cls-1{fill:white;opacity:0.25;}.cls-2{fill:#fff;stroke:#currentColor;stroke-miterlimit:10;stroke-width:12px;}.cls-3{fill:currentColor;}.cls-4{fill:none;stroke:#fff;stroke-linecap:round;stroke-linejoin:round;stroke-width:4px;}</style>
</defs>
<path class="cls-3" d="m433.5,256.91c21.57,21.03,36.26,39.9,44.08,56.61,11.05,23.72,16.58,48.66,16.58,74.81,0,49.06-18.6,90.17-55.8,123.33-19.95,17.79-40.3,29.38-61.06,34.78-15.1,3.77-38.82,5.66-71.17,5.66h-145.17c-34.78,0-60.65-9.03-77.64-27.09-12.13-12.94-19.54-27.09-22.24-42.46-1.35-7.28-2.02-23.86-2.02-49.74l-.4-339.67c-.54-33.43,12.94-59.17,40.44-77.23,12.94-8.63,31.14-13.75,54.59-15.37C158.8,0,177.94-.13,211.1.13h25.47c44.21,0,76.02,2.29,95.43,6.87,43.67,10.51,76.83,33.56,99.47,69.15,18.6,29.38,27.9,61.19,27.9,95.43,0,26.69-8.63,55.13-25.88,85.32Z"/>
<path class="cls-2" d="m307.63,314.86c-1.89,2.44-3.89,7.45-7.06,8.39-3.13.93-7.55-2.04-11.2-3.74-1.28-.6-2.02-2.48-2.88-3.85-19.24-30.7-48.43-31.09-69.42-1.3-2.88,4.09-8.16,6.46-12.32,9.62-2.06-6.71-7.15-14.23-5.64-19.98,4.98-18.91,34.92-35.72,59.03-35.16,20.48.47,42.13,17.69,47.66,37.93.57,2.09.96,4.23,1.82,8.09Z"/>
<path class="cls-2" d="m215.99,201.53c-24.37,9.68-51.12,1.47-61.16-17.11-2.77-5.13-2.81-16.69.47-19.24,6.86-5.32,12.8-.14,17.44,7.73,9.82,16.68,23.63,17.4,36.71,3.31,2.89-3.11,5.92-8.12,9.18-8.38,5.66-.45,13.08.5,16.79,4.04,2.24,2.14.66,11.86-2.36,15.42-5.76,6.79-13.78,11.61-17.08,14.23Z"/>
<path class="cls-1" d="m349.35,258.77c-4.14.17-7.96-.61-11.59-2.48-1.75-.9-3.2-2.18-4.45-3.76-3.11-3.93-3.13-9.24-.13-13.25,2.19-2.92,5.13-4.65,8.26-5.77,7.24-2.6,14.52-2.6,21.66.6,1.01.45,1.93,1.16,2.83,1.84,4.83,3.67,5.6,11.52,1.65,16.37-1.52,1.86-3.44,3.04-5.5,3.9-4.13,1.73-8.38,2.95-12.73,2.54Z"/>
<path class="cls-1" d="m153.84,231.91c6.15.8,11.97,1.73,17.04,5.84,5.19,4.21,5.01,13.57-.16,17.3-2.97,2.15-6.09,3.41-9.62,3.85-3.62.45-7.21.35-10.78-.13-4.82-.64-9.08-2.66-12.38-6.75-3.29-4.08-3.19-9.76.17-13.54,1.55-1.74,3.23-3.12,5.37-4.05,3.42-1.49,6.93-2.16,10.35-2.52Z"/>
<g>
<path class="cls-4" d="m157.34,140.44s24.46,1.33,32.66-19.07"/>
<path class="cls-4" d="m347.34,140.44s-24.46,1.33-32.66-19.07"/>
</g>
<path class="cls-2" d="m334.73,201.92c-24.37,9.68-51.12,1.47-61.16-17.11-2.77-5.13-2.81-16.69.47-19.24,6.86-5.32,12.8-.14,17.44,7.73,9.82,16.68,23.63,17.4,36.71,3.31,2.89-3.11,5.92-8.12,9.18-8.38,5.66-.45,13.08.5,16.79,4.04,2.24,2.14.66,11.86-2.36,15.42-5.76,6.79-13.78,11.61-17.08,14.23Z"/>
<path class="cls-3" d="m454.9,292.69c10.13-9.7,26.77-11.56,40.15-12.82,7.19-.68,15.12-.87,21.56,2.91,6.02,3.54,9.43,10.06,10.81,16.73,3.56,17.27-5.23,35.15-8.74,51.75-3.22,15.24-3.49,31.37,4.59,45.21,3.89,6.67,14.27.63,10.36-6.06-19.69-33.74,21.26-72.35.48-106.53-9.18-15.1-26.06-17.64-42.29-15.66-15.94,1.94-33.32,4.41-45.4,15.98-5.59,5.35,2.9,13.83,8.49,8.49h0Z"/>
<path class="cls-3" d="m546.42,399.18c.93-9.3-11.43-12.63-17.39-7.01-5.51,5.2-7.53,16.46-5.72,23.61,2.16,8.58,11.42,12.68,19.21,8.4,9.73-5.35,9.38-16.47,7.91-26.02-1.17-7.61-12.74-4.38-11.57,3.19.46,3.01,1.27,7.08-.09,9.98-.75,1.6-2.36,3.53-3.75,1.92-1.03-1.19-.17-4.63.09-6.01.23-1.22.53-2.46.92-3.64.19-.78.47-1.51.87-2.2-1.15-.24-1.97-.99-2.47-2.22-.77,7.68,11.24,7.62,12,0h0Z"/>
<path class="cls-3" d="m98.92,312.85c-5.78-13.91-16.53-23.72-29.26-31.38-6.44-3.88-13.2-7.23-20.01-10.41-7.45-3.48-15.25-6.48-23.61-4.92-15.65,2.93-24.64,18.24-25.87,33.06-1.5,18.03,6.27,35.66,12.37,52.18,6.8,18.41,12.95,38.49,5.13,57.59-2.92,7.14,8.68,10.25,11.57,3.19,12.33-30.12-5.35-59.81-13.69-88.26-3.86-13.16-7.03-30.65,4.1-41.3s25.81-.62,36.77,5.19c12.28,6.52,25.35,14.86,30.92,28.25,2.92,7.03,14.54,3.95,11.57-3.19h0Z"/>
<path class="cls-3" d="m34.65,427.65c.83-5.72,1.2-11.66-1.94-16.81-2.46-4.03-7.09-6.97-11.86-6.99-10.14-.03-16.79,12.28-16.94,21.24s6.19,16.75,15.36,16.16c8.28-.53,15.54-7.33,13.31-15.97-1.92-7.47-13.5-4.31-11.57,3.19,0-.02.89-.53-.24.14-.62.37-1.58.77-2.31.71-2.15-.18-2.6-2.26-2.56-4.23.05-2.67,1.56-6.95,3.9-8.51,3.87-2.59,3.57,5.82,3.28,7.89-.47,3.23.8,6.41,4.19,7.38,2.81.81,6.92-.99,7.38-4.19h0Z"/>
</svg>