<?xml version="1.0" encoding="UTF-8"?><svg id="Calque_1" xmlns="http://www.w3.org/2000/svg" viewBox="0 0 683.03 601.78"><path d="m683.03,198.11c-6.77,12.37-18.18,24.26-19.51,37.19-5.55,53.84-10.17,107.95-10.99,162.03-.61,40.1-16.73,67.03-50.24,87.58-37.78,23.17-74.1,48.73-110.66,73.83-15.87,10.89-32.22,23.89-47.97,3.05-17.26-22.83-1.7-39.62,16.2-52.27,34.2-24.15,68.57-48.28,104.57-69.56,22.01-13.01,28.82-29.23,29.92-53.78,2.55-56.49,6.09-113.16,13.7-169.16,8.89-65.38,19.44-69.71,74.98-41.09v22.18Z"/><path d="m144.93,132.53c89.67,9.14,174.21,15.81,258.14,26.95,61.09,8.11,79.19,30.76,73.26,92.61-7.4,77.06-18.9,153.81-31.65,230.19-1.83,10.95-20.53,19.09-31.43,28.53-8.28-12.81-24.62-26.39-23.46-38.29,5.6-57.43,16.19-114.37,24.48-171.55,11.66-80.48,11.68-82.39-67.63-91.57-61.17-7.08-122.98-8.65-184.5-12.77-26.15-1.75-54.73-.37-52.59-39.79.16-2.9-2.66-6.46-4.95-8.93-33.35-35.92-33.1-38.96,6.09-65.08Q259.8-16.54,432.89,30.18c57.1,15.33,115.12,27.52,171.6,44.78,13.89,4.24,23.42,22.71,34.96,34.64-14.86,7.29-31.39,22.99-44.3,20.44-61.56-12.14-122.14-29.22-183.06-44.57-19.13-4.82-38.92-7.92-57.24-14.88-84.77-32.23-146.24,11.51-209.92,61.94Z"/><path d="m58.24,499.8c28.09,5.82,52.88,12.59,78.13,15.89,78.1,10.18,156.49,18.21,234.45,29.32,11.43,1.63,21.11,15.46,31.6,23.65-8.48,10.43-15.35,27.32-25.78,29.89-19.39,4.78-41.18,3.58-61.37.7-85.36-12.19-170.7-24.73-255.64-39.5C3.29,549.96-2.35,538.09.63,482.75c4.3-79.81,5.63-159.78,8.52-239.68.58-15.94-2.2-34.48,4.99-47.02,7.57-13.22,25.23-20.68,38.48-30.65,6.82,13.66,19.88,27.51,19.46,40.94-3.03,96.83-8.79,193.57-13.84,293.47Z"/></svg>