<?xml version="1.0" encoding="UTF-8"?><svg id="Calque_1" xmlns="http://www.w3.org/2000/svg" viewBox="0 0 609.37 770"><path class="cls-1" d="m421.3,61.51c-18.6,28.98-48.65,46.06-82.21,58.21-34.77,12.59-64.76,8.16-93.15-18.38-21.99-20.55-38.9-43.77-53.22-71.18-14.94,14.04-28.65,27.28-42.74,40.09-44.45,40.39-84.65,84.54-119.21,133.73-3.67,5.23-7.28,11.23-12.42,14.46-4.08,2.56-10.48,1.42-15.85,1.92-.26-5.38-2.94-12.73-.41-15.83,31.83-39.04,63.2-78.57,97.18-115.69,25.91-28.3,55.17-53.57,83.37-79.73,13.16-12.2,19.19-10.82,26.91,5.44,14.51,30.56,33.9,57.12,60.68,78.18,12.15,9.55,25.58,14.5,40.55,11.25,38.67-8.4,72.61-24.76,95.17-59.44,9.12-14.02,14.53-14.23,28.29-5.32,46.03,29.83,95.17,53.62,146.01,74,33.8,13.55,32.34,13.02,20.41,46.86-16.02,45.45-29.43,91.81-44.1,137.74-2.85,8.93-6.12,17.76-9.59,26.47-3.13,7.85-8.98,11.11-17.44,8.67-23.75-6.85-47.52-13.67-71.26-20.56-7.77-2.25-15.91-5.25-12.16-15.53,3.49-9.6,11.9-7.87,19.63-5.64,20.81,6.01,41.6,12.07,64,18.57,18.03-57.92,35.48-113.97,52.58-168.91-52.76-26.01-106.2-52.35-161-79.37Z"/><path class="cls-1" d="m285.49,743.24c45.68-24.61,87.29-52.84,125.2-86.37,3.69-3.26,6.88-8.98,7.26-13.79,5.71-71.51,11.25-143.03,16.05-214.61,1.74-25.98,1.46-52.09,1.98-78.14.16-8.16.77-16.66,11.29-16.58,10.42.08,11.65,8.68,11.2,16.74-4.39,78.43-8.89,156.86-13.5,235.29-1.18,20.03-1.97,40.17-4.78,59.99-1.22,8.56-5.12,18.6-11.23,24.29-41.19,38.35-88.16,68.74-137.45,95.56-12.64,6.88-19.47,3.17-26.14-10.51-31.04-63.63-62.33-127.14-93.69-190.62-3.39-6.87-6.84-14.1-11.89-19.69-16.21-17.95-15.56-37.62-10.44-59.7,13-56.12,24.47-112.6,36.42-168.97,1.41-6.66.85-13.95,3.31-20.11,1.68-4.22,7.24-9.89,10.64-9.62,3.78.3,8.94,6.11,10.12,10.44,1.47,5.4.1,11.87-1.1,17.66-13.25,63.5-26.83,126.94-39.89,190.49-.99,4.84-.14,11.15,2.26,15.43,39.6,70.74,80.62,140.74,111.01,216.21.78,1.94,1.91,3.74,3.4,6.63Z"/><path class="cls-1" d="m341.96,256.45c-5.59,87.76-11.18,175.53-16.77,263.29-.11,1.7-.22,3.42-.54,5.09-1.38,7.42-5.07,14.42-13.18,11.73-4.14-1.37-8.85-9.26-8.68-14.03.93-26.01,3.77-51.94,5.1-77.93,4.41-86.55,8.39-173.13,12.7-259.69.47-9.54-.54-22.69,13.38-21.63,13.72,1.04,9.01,13.82,9.04,22.67.07,23.47.02,46.94.02,70.41-.36.03-.72.06-1.08.09Z"/><path class="cls-1" d="m54.76,210.96c2.17,1.26,6.22,2.85,9.32,5.52,27.17,23.42,54.32,46.88,81.11,70.73,5.98,5.33,11.7,11.68,15.23,18.72,1.81,3.6.09,11.84-2.95,14.17-2.83,2.17-11.17,1.1-14.29-1.67-30.9-27.46-61.22-55.57-91.69-83.51-2.51-2.3-5.45-4.38-7.24-7.17-4.75-7.4.11-16.54,10.52-16.8Z"/><path class="cls-1" d="m403.12,220.05c-8.1,15.67-15.28,30.62-23.7,44.83-1.35,2.28-9.31,3.12-12.18,1.35-2.99-1.84-5.91-8.64-4.72-11.59,5.58-13.77,12.04-27.28,19.51-40.11,1.74-2.98,8.89-4.4,13.14-3.77,2.88.43,5.05,5.69,7.95,9.29Z"/><path class="cls-1" d="m355.25,465.76c5.64-10.86,9.5-20.51,15.46-28.61,2.25-3.06,10.16-4.51,14.01-2.98,2.76,1.1,5.22,9.03,4.06,12.75-2.76,8.84-6.96,17.53-12.2,25.16-2.15,3.13-9.1,5.45-12.75,4.37-3.59-1.07-5.77-6.91-8.59-10.68Z"/><path class="cls-1" d="m358.44,330.27c5.7-10.91,9.81-20.71,15.81-29.16,1.88-2.64,10.14-3.67,13.15-1.76,2.97,1.89,4.95,8.96,3.9,12.81-2.2,8.05-5.89,16.02-10.58,22.93-2.26,3.33-8.55,6.26-12.31,5.57-3.58-.66-6.26-6.26-9.96-10.39Z"/></svg>
