<?xml version="1.0" encoding="UTF-8"?><svg id="Calque_1" xmlns="http://www.w3.org/2000/svg" viewBox="0 0 745.67 598.58"><path d="m142.79,449.04c75.14-26.64,150.46-35.24,228.42-32.92,0-13.89,1.25-28.9-.21-43.64-6.6-66.35,20.62-121.93,80.32-151.96,32.15-16.17,64.4-2.17,92.44,16.48,45.5,30.26,58.84,75.61,59.14,127.83.1,16.67,6.71,33.97,13.66,49.5,1.99,4.45,15.69,5.21,23.93,4.97,15.18-.44,30.42-4.88,45.42-3.99,19.06,1.13,23.29-8.3,20.84-23.5-3.77-23.33-9.63-46.33-12.98-69.7-1.81-12.61.99-25.84-.44-38.55-4.14-36.82-9.48-73.5-14.14-110.26-2.16-17.06-9.96-25.59-28.69-25.09-77.74,2.06-155.55,2.13-233.26,4.85-98.14,3.43-196.23,8.55-294.32,13.36-17.94.88-35.77,3.8-56.81,6.12,2.04,10.82,3.97,20.41,5.66,30.05,12.44,70.75,25.42,141.42,36.53,212.39,1.43,9.14-6.93,19.81-10.76,29.77-9.85-8.35-23.39-14.78-28.93-25.38-29.97-57.32-24.1-122.21-36.43-183.35-7.98-39.59-17.81-78.96-29.47-117.62-9.02-29.89,5.08-51.33,35.39-46.3,7.17,1.19,15.55,9.57,18.76,16.72,4.62,10.29,5.01,22.48,7.79,36.87,197.03-24.5,395.8-16.29,595.93-20.64V38.18c-63.63,0-124.68-.06-185.73.03-22.6.03-45.23-.27-67.79.79-82.89,3.87-165.75,8.62-248.65,12.24-29.83,1.3-59.78.97-89.63,0-7.05-.23-15.36-4.5-20.57-9.53-12.98-12.52-9.19-24.89,8.63-27.08,18.69-2.3,37.76-1.33,56.61-2.68,43.51-3.12,86.93-8.2,130.49-9.86C298.29.02,352.76-.33,407.17.26c61.72.67,123.41,3.42,185.12,4.82,21.05.48,42.24-1.94,63.15-.29,26.6,2.09,42.2,24.53,45.2,50.93,5.57,48.99,15.15,97.5,21.65,146.4,8.27,62.26,16.96,124.55,22.03,187.11,4.08,50.43,1.85,50.83-48.53,58.03-15.11,2.16-30.45,3.77-45.68,3.72-18.43-.06-22.87,6.77-17.48,24.18,6.59,21.31,11.86,43.12,16.25,65,4.1,20.43-4.5,34.02-25.92,37.04-43.56,6.14-87.15,12.17-130.82,17.46-19.43,2.36-39.09,3.69-58.66,3.92-27.34.32-37.89-12.56-39.18-39.93-1.32-28.1-4.56-56.2-8.66-84.05-2.24-15.22-10.9-22.7-29.12-20.76-32.39,3.44-65.31,1.97-97.7,5.41-19.13,2.04-37.78,9.24-56.46,14.71-26.25,7.69-44.67-2.26-59.55-24.91Zm266.53-76.25c3.93,33.45,7.05,64.2,11.32,94.78,2.38,17.11,7.75,33.82,9.88,50.94,6.94,55.87.56,47.61,49.69,44.61,38.95-2.38,78.78-.51,115.27-17.83,5.88-2.79,14.42-11.97,13.31-15.62-8.95-29.31-20.14-57.93-30.12-86.94-2.35-6.84-1.96-14.61-4.21-21.51-5.45-16.7-8.45-44.99-18.2-47.67-46.16-12.69-94.17-11.25-146.93-.77Zm148.18-44.45c1.43-29.18-13.7-52.49-39.8-68.47-9.82-6.01-24.77-12.26-34.04-8.97-30.23,10.72-52.94,31.97-63.39,63.36-1.1,3.3,5.89,13.38,9.28,13.46,41.59.95,83.21.62,127.96.62Z"/><path d="m504.23,419.08c-12.33,15.9,8.68,26.92,14.65,42.24,3.41,8.77,9.09,17.56,9.27,26.43.19,9.24-5.01,18.59-7.85,27.9-9.92-5.54-24.38-8.68-28.83-17.11-9.47-17.94-13.54-38.68-20.3-58.11-1.27-3.65-4.55-6.7-7.25-9.73-9.64-10.82-22.28-22.39-11.71-37.27,5.53-7.78,19.22-15.42,27.89-14.13,17.15,2.54,27.71,15.3,24.14,39.78Z"/></svg>