<?xml version="1.0" encoding="UTF-8"?><svg id="Calque_1" xmlns="http://www.w3.org/2000/svg" viewBox="0 0 759.83 498.48"><path d="m461.04,147.67c23.94,1.52,30.53,25.05,49.1,35.67,4.93-10.76,9.37-21.34,14.62-31.45,1.91-3.68,5.77-6.24,8.74-9.31,2.7,5.28,8.38,11.41,7.5,15.68-1.95,9.47-6.21,18.66-11.35,26.74-5.47,8.6-2.76,13.94,4.44,20.64,4.58,4.27,7.82,10.37,10.46,16.1.91,1.98-1.11,6.13-3.1,7.77-1.02.84-5.38-1.12-7.43-2.8-5.44-4.48-10.45-9.51-17.3-15.87-3.44,6.04-5.38,11.11-8.76,14.87-2.86,3.19-7.38,4.87-11.17,7.22-1.61-5.59-5.93-12.37-4.36-16.55,7.71-20.56,8.17-20.22-9.06-37.03-7.29-7.12-14.33-14.54-20.95-22.26-1.53-1.78-.87-5.36-1.39-9.43Z"/><path d="m759.83,307.64c-1.75-16.37-11.64-21.98-24.43-25.44-34.93-9.44-33.53-9.82-38.03-45.82-1.06-8.45-14.01-20.13-22.65-21.1-14-1.58-13.85,11.65-11.45,23.16.84,4.02-.27,8.53-.52,13.44-16.96-1.08-33.04-9.01-51.37-9.5-1.39,1.55-2.75,3.13-4.29,4.56-1.62,1.5-3.36,2.71-5.15,3.78.21,5,1.3,10.09,2.88,15.11,1.88,1.8,3.66,3.76,5.38,5.84,1.82.83,3.66,1.55,5.55,2.05,48.52,12.72,48.74,11.94,50.84,63.2.12,3.02-1.43,6.65-.33,9.02.76,1.65,1.59,3.26,2.39,4.89,2.06,1.28,4.49,2.38,7.33,3.27,4.99-.33,10-.53,15.03-.56.25-.23.56-.43.82-.66.76-2.65,1.85-5.19,3.28-7.53.8-14.81,1.63-30.08,2.53-46.55l57.9,15.14c1.16-2.32,2.58-4.44,4.3-6.31Z"/><path d="m728.11,117.13c3.83-16.01-3.62-24.61-14.52-32.15-29.76-20.58-28.31-20.47-20.51-55.9,1.83-8.31-6.47-23.65-14.28-27.46-12.66-6.17-16.95,6.35-18.54,17.99-.56,4.07-3.11,7.95-4.99,12.5-15.62-6.69-28.13-19.54-45.24-26.13-1.83,1-3.64,2.03-5.57,2.86-2.03.87-4.07,1.44-6.12,1.83-1.47,4.79-2.14,9.94-2.34,15.21,1.17,2.33,2.2,4.77,3.12,7.31,1.44,1.39,2.93,2.69,4.55,3.79,41.47,28.22,41.94,27.55,26.78,76.56-.89,2.89-3.57,5.79-3.33,8.39.17,1.81.4,3.61.62,5.41,1.52,1.9,3.43,3.75,5.82,5.54,4.82,1.36,9.6,2.85,14.35,4.5.32-.13.67-.22.99-.34,1.6-2.24,3.48-4.28,5.6-6,5.71-13.69,11.6-27.8,17.95-43.02l49.5,33.63c1.87-1.8,3.92-3.32,6.17-4.51Z"/><path d="m79.33,350.84c-20.81,0-38.57,2.22-55.32-.9-8.89-1.66-16.06-12.58-24-19.32,8.83-6.52,16.85-15.21,26.74-18.89,7.84-2.91,18.09-.43,27.07.98,24.1,3.77,36.19-5.47,34.63-32.83-13.46,0-28.22,2.96-40.88-.91-10.63-3.25-18.81-14.47-28.08-22.16,9.55-5.56,19.57-16.51,28.57-15.74,37.96,3.27,61.15-9.65,88.53-39.77C222.86,106.38,332.67,55.87,464,62.47c9.14.46,24.29,11.97,25.15,19.63,1.95,17.32-13.71,19.69-28.02,18.92-108.69-5.88-198.31,38.23-278.74,106.11-7.55,6.37-13.79,14.3-20.45,21.69-2.02,2.24-3.39,5.05-6.27,9.47,69.84,2.53,137.44,4.93,205.04,7.48,10.76.41,22.57-.95,31.88,3.12,7.15,3.12,14.58,13.2,15.23,20.75.41,4.76-11.23,14.79-17.86,15.15-24.82,1.35-49.8-.2-74.72-.87-53.13-1.43-106.25-3.27-159.39-4.36-26.31-.54-26.32.04-29.42,31.53,3.64.73,7.43,2.09,11.26,2.18,94.69,2.1,189.38,3.96,284.07,6.17,16.46.38,41.06-5.83,41.42,18.53.39,26.37-25.41,20.77-42.39,20.53-90.55-1.27-181.08-3.52-271.62-5.38-8.91-.18-17.82-.02-26.43-.02-4.05,35.31,8.88,61.15,40.38,76.73,50.99,25.23,104.88,38.58,161.64,25.51,34.37-7.92,67.6-20.69,101.62-30.32,6.22-1.76,16.57-1.32,19.99,2.54,4.38,4.94,6.75,15.59,4.38,21.57-3,7.59-10.53,16.31-18.01,18.76-76.35,24.97-152.81,43.92-234,18.67-67.33-20.94-117.77-54.17-119.42-135.71Z"/></svg>