<?xml version="1.0" encoding="UTF-8"?><svg id="Calque_1" xmlns="http://www.w3.org/2000/svg" viewBox="0 0 612.04 775.49"><g><path d="m0,231.83c3.36-3.3,6.51-9.2,10.12-9.5,27.32-2.27,29.91-25.04,38.58-43.74,29.06-62.72,72.19-114.04,130.49-151.08,61.75-39.24,127.25-30.39,193.05-11.09,9.3,2.73,20.38,4.49,29.44,2.11,95-24.94,175.58,21.29,203.02,117.6,3.03,10.65,5.73,21.54,7.01,32.5,1.64,13.92-2.5,28.41-18.31,26.99-7.69-.69-19.06-14.14-20.39-23.07-6.33-42.49-27.51-75.7-58.78-103.11-22.34-19.57-48.8-25.06-80.97-17.21,9.21,11.92,18.49,22.12,25.59,33.67,6.12,9.97,12.15,21.15,13.62,32.4.96,7.29-6.34,15.68-9.94,23.57-8.27-4.03-18.84-6.06-24.35-12.47-13.78-16.02-25.01-34.22-37.76-51.17-8.16-10.84-17.51-10.09-29.01-3.38-43.82,25.58-78.76,60.28-112.21,105.74,39.05-4.76,73.06-9.09,107.11-13,38.62-4.44,77.26-8.71,115.93-12.62,14.05-1.42,29.88-.51,30.91,17.34,1.02,17.65-14.59,19.77-28.62,21.4-76.44,8.92-152.69,20.73-229.38,25.41-22,1.34-33.93,47.24-60.98,12.37-24.22,3.33-48.47,6.39-72.64,10.07-29.01,4.42-57.81,11.15-86.96,13.19C23.42,255.54,11.55,246.14,0,241.38c0-3.18,0-6.37,0-9.55ZM330.71,47.45c-97.5-29.81-222.83,48.68-249.34,161.19,24.21-4.21,47.3-10.32,70.68-11.81,37.08-2.37,62.2-17.45,84.69-49.02,26.62-37.37,62.85-67.86,93.97-100.36Z"/><path d="m0,494.51c1.64-53.87,3.12-107.74,5.02-161.6.42-11.82-.04-24.59,4.39-35.01,2.76-6.48,14.1-12.96,21.29-12.64,5.23.23,14.42,11.69,14.26,17.96-2.72,111.97-6.05,223.93-10.65,335.83C33.28,664.41,22.68,668.51,0,656.9,0,602.77,0,548.64,0,494.51Z"/><path d="m534.22,687.26c-4.99-39.73-9.49-75.86-14.06-111.98-10.75-85.09-22.29-170.1-31.91-255.32-3.55-31.48-3.04-63.47-3.55-95.24-.21-13.28,6.04-25.88,20.67-22.16,7.46,1.89,16.29,14.59,17.3,23.24,10.17,87.48,18.96,175.12,27.92,262.73,6.29,61.54,12.18,123.12,18.51,184.66.41,3.97,3.04,7.74,4.73,11.56,3.47,7.85,11.58,17.52,9.35,23.04-2.77,6.89-13.55,13.49-21.71,14.75-39.19,6.06-78.6,10.85-118.05,15.04-119.1,12.66-238.26,24.79-357.38,37.27-14.27,1.49-29.37,1.72-32.64-15.21-3.6-18.64,12.12-21.79,25.93-23.27,115.13-12.32,230.3-24.27,345.44-36.53,36.97-3.94,73.87-8.47,109.44-12.58Z"/></g><path d="m264.28,444.79c21.12-13.26,39.37-29.42,60.66-37.02,34.94-12.47,61.69,10.02,59.93,47.16-.55,11.59-2.93,23.96-7.9,34.31-20.85,43.39-52.62,76.65-98.04,93.9-9.03,3.43-23.98.46-32.36-5.23-42.35-28.73-73.47-67.73-89.98-116.18-5.02-14.72-5.73-36.8,2.03-48.64,11.81-18.02,34.91-12.86,52.04-3.77,19.91,10.57,37.86,24.85,53.63,35.48Zm-63.43-1.15c-2.26,2.2-4.52,4.41-6.78,6.61,15.13,41.28,41.59,73.55,78.68,98.85,31.27-30.46,71.41-51.6,74.09-103.46-30.07-1.62-41.39,17.91-51.87,38.37-12.49,24.41-26.16,26.08-45.39,6.4-15.73-16.09-32.45-31.21-48.73-46.76Z"/></svg>