<?xml version="1.0" encoding="UTF-8"?><svg id="Calque_1" xmlns="http://www.w3.org/2000/svg" viewBox="0 0 741.91 766"><path class="cls-1" d="m248.12,1c3.77,9.22,11.05,18.55,10.78,27.65-2.93,99.49-7.02,198.95-10.89,298.41-.18,4.54.22,10.37-2.31,13.3-4.94,5.72-11.76,9.82-17.79,14.59-4.38-6.39-12.71-12.9-12.52-19.15,1.45-45.75,5.05-91.42,7.1-137.15,2.23-49.72,3.55-99.49,5.14-149.24.16-4.97-.58-9.96-1-16.34-32.44.17-59.3,12.61-82.63,31.24-15.39,12.29-29.53,27.46-40.33,43.91-26.14,39.79-46.77,82.37-56.69,129.62-11.7,55.71-20.72,111.4-10.75,168.48,4.22,24.16,3.79,22.6,27.49,23.23,45.61,1.22,91.19,4.21,136.75,7.03,27.41,1.7,54.72,5.99,82.12,6.46,71.54,1.24,143.1,1.37,214.66,1.1,16.47-.06,37.23,1.76,48.03-7.07,8.64-7.06,6.22-28.91,6.89-44.28,2.16-49.74,3.52-99.51,5.07-149.27.14-4.39-.54-8.8-1.21-18.7-10.83,11.56-18.77,19.84-26.5,28.31-44.37,48.59-88.74,97.19-132.99,145.89-7.39,8.14-15.93,12.85-25.31,5.09-9.54-7.9-6.56-17.82.72-25.72,28.69-31.15,57.87-61.84,86.62-92.94,16.68-18.04,32.89-36.52,51.74-57.5-7.46-.89-12.07-2.05-16.64-1.9-54.91,1.82-109.82,3.86-164.72,5.79-4.54.16-9.93,1.57-13.44-.34-5.01-2.73-11.43-7.59-12.08-12.26-.63-4.53,4.1-12.2,8.55-14.5,6.76-3.5,15.28-4.67,23.1-4.92,61.77-1.94,123.55-3.92,185.34-4.66,13.78-.17,23.48-3.29,32.48-14.12,42.88-51.62,88.81-100.29,143.51-139.76,8.16-5.89,17.69-11.26,27.32-13.15,5.12-1.01,15.08,4.79,16.85,9.68,1.68,4.67-2.67,15.12-7.41,17.94-53.94,32.17-95.6,77.73-137.11,123.54-5.75,6.35-11.15,13-13.68,15.96,2.49,16.39,6.37,29.37,6.11,42.27-1.32,67.51-3.84,134.99-5.58,202.5-.42,16.24-7.62,27.07-23.65,28.48-36.95,3.25-74.01,5.2-111.04,7.42-8.99.54-18.04.08-32.19.08,14.88,30.25,29,57.34,41.62,85.1,9.88,21.75,18.9,44.04,25.89,66.83,1.36,4.42-7.08,15.07-13.29,18-20.88,9.85-32.37,26.49-26.93,48.35,2.04,8.18,9.56,17.62,17.02,20.88,4.94,2.16,15.87-4.02,21.23-9.36,10.61-10.55,13.75-23.91,10.79-39.54-1.11-5.83,3.69-15.7,8.79-18.78,3.55-2.15,14.62,2.29,18.14,6.95,14.63,19.41,1.84,61.82-23.66,82.46-22.32,18.07-48.19,16.47-67.67-4.2-27.36-29.04-20.17-87.92,13.36-109.4,3.25-2.08,6.55-4.1,8.12-5.09-20.88-45.62-41.09-90.28-62.02-134.6-1.81-3.83-8.3-7.56-12.73-7.69-38.89-1.16-77.83-2.17-116.71-1.37-6.19.13-14.87,8.32-17.81,14.84-14.28,31.75-27.11,64.16-40.21,96.44-8.58,21.12-16.75,42.41-25.11,63.62,31.92,22.58,36.68,42.81,18.39,78.23-15.17,29.38-49.95,44.23-79.94,34.13-19.55-6.58-29.79-20.28-30.59-40.92-1.35-34.69,17.93-62.85,49-77.66,9.38-4.47,17.62-15.87,21.79-25.99,19.74-47.99,37.9-96.63,58.29-149.38-37.28-2.88-73.34-6.39-109.49-8.17-20.52-1.01-41.18.93-61.78,1.37-17.52.38-26.83-7.93-30.75-25.51-15.32-68.73-8.86-136.41,6.67-204.11,12.44-54.25,34.08-104.17,66.38-149.42,24.3-34.04,55.91-58.53,95.63-72.35,6.3-2.19,12.12-5.77,18.17-8.71,17.18,0,34.35,0,51.53,0Zm-115.61,731.91c17.62-.06,30.46-10.56,36.58-29.92,5.21-16.52,2.07-22.5-14.42-27.45-18.87-5.67-37.76,12.07-40.38,37.21-1.46,14.05,4.66,20.21,18.22,20.16Z"/></svg>
