<?xml version="1.0" encoding="UTF-8"?><svg id="Calque_1" xmlns="http://www.w3.org/2000/svg" viewBox="0 0 765.8 520.51"><path d="m765.8,314.99c-3.45,6.3-9.25,12.35-9.93,18.94-2.82,27.41-5.18,54.96-5.6,82.49-.31,20.42-8.52,34.13-25.58,44.59-19.23,11.8-37.73,24.81-56.34,37.59-8.08,5.55-16.4,12.16-24.42,1.56-8.79-11.62-.87-20.17,8.25-26.61,17.41-12.3,34.91-24.58,53.24-35.42,11.21-6.62,14.67-14.88,15.23-27.38,1.3-28.76,3.1-57.61,6.97-86.12,4.52-33.29,9.9-35.49,38.17-20.92v11.29Z"/><path d="m372.86,258.61c-31.62,14.83-62.18,28.78-92.22,43.76-3.52,1.76-5.61,9.09-5.98,14.01-2.85,38.14-4.77,76.35-7.66,114.48-2.52,33.22-11.28,40.07-44.68,36.17-38.67-4.51-77.42-8.63-115.88-14.52-7.31-1.12-18.5-9.2-19.13-15.01-1.48-13.66,11.35-14.78,21.5-13.74,35.61,3.63,71.14,8.07,106.69,12.24,6.12.72,12.22,1.64,20.75,2.8,1.73-24.31,3.44-47.19,4.96-70.08,1.49-22.44,2.78-44.89,4.26-69.05-30.97-3.71-60.78-6.72-90.39-11.03-21.09-3.07-42.3-6.61-62.65-12.65-6.59-1.96-10.61-12.52-15.81-19.15,7.92-2.94,16.33-9.29,23.7-8.27,48.39,6.76,96.55,15.11,147.28,23.35,4.27-46.2,8.2-88.85,12.67-137.2-25.91,0-50.23.86-74.46-.2-37.63-1.64-75.22-4.31-112.77-7.26-6.46-.51-13.74-3.3-18.58-7.43-3.37-2.87-5.79-11.15-4-14.66,2.25-4.42,9.38-9.32,14.15-9.07,67.06,3.54,134.1,7.73,201.11,12.22,17.35,1.16,25.27,11.53,23.82,31.6-2.39,33.14-5.88,66.19-8.79,99.29-.87,9.87-1.32,19.77-2.31,34.97,25.21-14.08,46.32-27.25,68.63-37.93,22.74-10.88,32.22-26.33,31.58-52.15-.63-25.43,4.12-51.07,7.48-76.49.95-7.19,3.86-15.26,8.6-20.44,3.58-3.92,12.8-6.76,17.13-4.81,4.35,1.95,8.6,10.73,8.03,15.99-4.56,42.19-11.67,84.15-15.29,126.4-4.39,51.21-7.02,102.62-8.62,153.99-.68,21.75-7.33,35.14-29.43,41.41-13.64,3.87-25.55,13.57-39.08,18.23-6.09,2.09-14.23-1.76-21.43-2.91,2.45-7.41,2.72-17.44,7.82-21.68,9.44-7.84,21.13-14.2,32.92-17.71,16.43-4.89,19.51-14.41,19.83-30.17.74-36.01,4.05-71.97,6.27-107.29Z"/><path d="m491.84,281.6c45.65,4.65,88.69,8.05,131.43,13.72,31.1,4.13,40.32,15.66,37.3,47.15-3.77,39.23-9.62,78.31-16.11,117.2-.93,5.57-10.45,9.72-16,14.53-4.21-6.52-12.53-13.44-11.94-19.49,2.85-29.24,8.24-58.23,12.46-87.34,5.94-40.98,5.94-41.95-34.43-46.62-31.14-3.61-62.61-4.4-93.94-6.5-13.31-.89-27.86-.19-26.77-20.26.08-1.48-1.35-3.29-2.52-4.55-16.98-18.29-16.85-19.83,3.1-33.13q75.91-50.6,164.04-26.81c29.07,7.81,58.61,14.01,87.37,22.8,7.07,2.16,11.93,11.56,17.8,17.63-7.57,3.71-15.98,11.71-22.55,10.41-31.34-6.18-62.19-14.88-93.2-22.69-9.74-2.45-19.82-4.03-29.14-7.58-43.16-16.41-74.46,5.86-106.88,31.54Z"/><path d="m447.71,468.6c14.3,2.96,26.92,6.41,39.78,8.09,39.76,5.18,79.68,9.27,119.37,14.93,5.82.83,10.75,7.87,16.09,12.04-4.32,5.31-7.82,13.91-13.12,15.22-9.87,2.43-20.96,1.82-31.24.35-43.46-6.21-86.91-12.59-130.16-20.11-28.69-4.99-31.56-11.03-30.04-39.2,2.19-40.64,2.87-81.35,4.34-122.03.29-8.12-1.12-17.56,2.54-23.94,3.86-6.73,12.85-10.53,19.59-15.61,3.47,6.95,10.12,14,9.91,20.84-1.54,49.3-4.47,98.55-7.05,149.41Z"/><path d="m223.14,29.11c-36.23,11.65-74.48,23.77-112.58,36.33-10.7,3.53-20.7,10.35-31.55,11.84-6.75.93-14.49-5.32-21.79-8.35,3.93-6.16,6.56-15.98,12-17.91C118.84,33.37,168.8,16.66,219.05.9c7.56-2.37,17.46.43,25.69,2.84,48.17,14.14,96.27,28.53,144.09,43.81,7.38,2.36,16.25,8.49,18.94,15.1,4.38,10.75-7.74,18.5-22.78,14.18-43.42-12.46-86.64-25.62-129.94-38.47-9.59-2.85-19.22-5.58-31.91-9.25Z"/><path d="m1.2,399.49c3.24-94.45,6.47-188.9,9.76-283.34.15-4.36-.69-10.14,1.69-12.77,5.27-5.81,12.3-10.02,18.61-14.89,3.6,6.23,10.46,12.55,10.3,18.69-1.72,67.54-4.18,135.06-7.19,202.56-1.7,38.13-4.86,76.2-7.18,114.31-.62,10.26-2.64,19.42-15.41,19.06C-1.16,442.75.02,432.72.04,423.88c.02-8.14,0-16.28,0-24.42.39.01.77.02,1.16.03Z"/></svg>