<?xml version="1.0" encoding="UTF-8"?><svg id="Calque_1" xmlns="http://www.w3.org/2000/svg" viewBox="0 0 379.89 760"><path class="cls-1" d="m280.59,530.63c-1.58-18.29-3.03-35.2-4.7-54.49-15.39,2.37-29.38,4.27-43.27,6.76-7.97,1.43-16.09,2.69-19.14-6.84-3.3-10.28,4.01-15.41,12.42-17.24,15.21-3.32,30.69-5.42,47.44-8.26-1-10.45-1.98-20.71-3.11-32.54-11.15,0-21.51.95-31.57-.37-5.56-.73-10.63-5.25-15.93-8.06,3.7-5.24,6.46-13.6,11.3-15.08,10.15-3.1,21.39-2.59,32.47-3.58,1.62-14.62,3.05-29.65,5.04-44.62,1.1-8.27,4.89-15.36,14.66-13.8,9.92,1.59,10.32,9.56,9.46,17.8-1.41,13.58-2.55,27.19-3.88,41.59,12.17.81,22.04,1.25,31.86,2.18,9.72.92,17.13,5.5,15.22,16.36-1.86,10.62-9.92,10.61-18.96,8.79-7.27-1.46-14.92-.95-24.17-1.4,2.31,26.07,3.6,50.67,6.82,75.02,10.59,80.17,16.59,160.51,12.09,241.43-1.13,20.4-7.36,26.21-27.57,24.43-51.64-4.55-103.35-8.48-154.9-13.87-14.47-1.51-28.67-6.71-42.7-11.14-22.88-7.22-35.32-23.1-36.69-47.41-.78-13.83-2.36-27.64-2.48-41.47-.76-84.09-1.26-168.19-1.68-252.28-.05-9.53.14-19.21,1.73-28.56,1.5-8.8,7.1-15.28,17.09-12.88,9.8,2.35,9.42,9.86,7.94,18.29-1.71,9.8-2.67,19.89-2.59,29.84.68,82.64,1.6,165.28,2.64,247.92.14,10.97,1.26,21.93,2.12,32.88,1.7,21.5,5.98,27.53,27.29,32.3,23.6,5.28,47.41,10.35,71.4,12.96,36.83,4,73.89,5.82,113.03,8.72,1.2-60.22,6.32-119-5.81-178.92-14.18,1.99-27.23,4-40.32,5.59-5.64.69-12.07,2.24-16.9.3-5.24-2.11-9.04-7.82-13.47-11.97,4.41-4.02,8.33-10.66,13.31-11.58,17.65-3.28,35.66-4.61,54.52-6.79Z"/><path class="cls-1" d="m309.13,196.14c16.22,4.31,31.27,6.77,45.06,12.38,15.4,6.27,25.68,18.02,24.63,36.51-1.05,18.36-13.66,27.37-28.72,31.62-24.17,6.82-48.75,12.92-73.56,16.52-48.94,7.1-98.16,12.31-147.26,18.25-8.48,1.03-17.36,1.03-18.92-9.81-1.56-10.85,7.13-13.79,15.43-14.83,42.93-5.39,86.02-9.62,128.83-15.81,28.14-4.07,56.02-10.26,83.74-16.71,5.86-1.36,10.49-8.02,15.68-12.24-5.12-4.59-9.58-11.69-15.49-13.23-11.27-2.93-23.35-3.44-35.11-3.58-18.61-.22-24.31-6.12-20.87-24.46,2.63-14.07,6.3-27.94,8.85-42.03,5.58-30.88-6.95-48.78-37.5-54.1-10.31-1.8-20.62-3.79-31.02-4.74-11.78-1.08-16.75-7.62-17.34-18.69-.53-10.01.11-20.26-1.96-29.94-1.5-6.99-5.13-14.9-10.36-19.42-13.29-11.48-26.18-7.89-29.87,9.12-3.15,14.51-3.63,30.1-2.34,44.95,1.15,13.29-.66,20.08-14.52,25.99-19.95,8.51-31.96,27.37-38.95,47.29-6.86,19.57-10.93,40.34-14.15,60.92-2.17,13.82-7.2,20.4-21.74,20.31-21.06-.13-40.19,14.7-44.63,35.04-1.29,5.91.69,15.27,4.81,19.05,7.76,7.12,17.91,11.85,27.56,16.57,5.88,2.87,13.66,2.48,18.74,6.14,4.03,2.9,7.56,10.03,6.95,14.71-.42,3.22-8.74,8.3-12.78,7.67-23.82-3.7-47.12-10.32-61.92-31.29-5.4-7.64-9.33-18.18-9.39-27.42-.19-28.62,29.19-60.74,57.44-64.29,7.33-.92,10.61-2.77,11.41-10.86,4.64-46.63,22.91-86.19,60.64-115.58,2.76-2.15,3.17-7.99,3.73-12.24,2.05-15.44,2.08-31.36,5.97-46.28,3.75-14.4,11.58-28.05,28.87-30.08,20.3-2.38,39.17,3.06,49.49,21.28,6.72,11.87,8.94,26.78,11.01,40.66,1.23,8.22,1.92,13.37,11.68,13.7,7.53.26,15.06,2.12,22.47,3.77,38.57,8.55,58.8,38.02,52.73,77.11-2.04,13.15-4.99,26.15-7.31,38.09Z"/></svg>
