<?xml version="1.0" encoding="UTF-8"?><svg id="Calque_1" xmlns="http://www.w3.org/2000/svg" viewBox="0 0 769.34 653.62"><defs><style>.cls-1{fill:#ed6d4f;}</style></defs><path class="cls-1" d="m768.67,273.38c.13-8.16.21-16.64.21-25.51v-35.49c.38-46.19.19-72.85-.56-79.99-2.25-32.67-9.39-58.02-21.4-76.04C721.75,18.05,685.89-.73,639.32.02L166.17.59c-36.05,0-59.14.94-69.28,2.82-21.4,3.76-41.12,14.08-59.14,30.98C12.58,58.04,0,94.09,0,142.53v202.22c0,12.84.24,24.6.67,35.49-.13,8.16-.21,16.64-.21,25.51v35.49c-.38,46.19-.19,72.85.56,79.99,2.25,32.67,9.39,58.02,21.4,76.04,25.16,38.3,61.02,57.08,107.59,56.33l473.15-.56c36.05,0,59.14-.94,69.28-2.82,21.4-3.76,41.12-14.08,59.14-30.98,25.16-23.66,37.74-59.71,37.74-108.15v-202.22c0-12.84-.24-24.6-.67-35.49Z"/></svg>