<?xml version="1.0" encoding="UTF-8"?><svg id="Calque_1" xmlns="http://www.w3.org/2000/svg" viewBox="0 0 668.38 696.06"><path d="m654.77,206.03c-1.84-4.95-3.36-10-4.41-15.25-3.98-11.38-8.28-22.58-13.62-33.22-4.84-9.67-11.24-18.33-17.99-26.78-12.94-14.21-25.87-28.41-38.99-42.45-.36-.39-.66-.79-1.01-1.19-21.1-16.6-42.19-32.29-64.83-45.19C433.98-3.62,347.17-6.56,256.58,7.32,147.88,23.97,71.73,79.97,25.13,176.67c-52.68,109.33-21.12,218.46,81.23,285.36,29.83,19.5,62.47,34.74,98.81,54.66-12.72,18.02-22.36,41.04-39.58,54.14-38.52,29.29-81.26,52.98-121.25,80.44-10.03,6.89-16.2,19.39-24.14,29.32,11.71,5.41,23.43,15.5,35.12,15.46,68.58-.23,134.2-15.51,194.46-48.7,9.15-5.04,12.59-20.42,18.67-31.01-11.37-.65-23.86-4.67-33.89-1.32-29.79,9.96-58.61,22.83-83.9,32.99,29.46-40.73,62.34-79.31,87.03-122.54,18.86-33.03,9.38-41.43-26.82-53.48-79.41-26.43-146.87-68.88-167.64-156.51-20.56-86.77,20.35-153.52,80.95-210.11,59.96-55.99,136.54-74.01,213.94-70.22,143.95,7.05,263.49,63.29,287.47,215.74,10.94,69.56,12.46,138.32-43.57,191.88-62.2,59.45-136.67,80.65-222.08,63.74-11.61-2.3-25.08,4.74-37.69,7.45,9.84,9.51,18.16,24.51,29.76,27.7,122.96,33.86,321.15-43.2,316.29-227.41-.91-34.52-10.47-68.72-13.4-103.3-.13-1.57-.11-3.26-.13-4.93Z"/><path d="m274.65,194.41c-.34-1.93-.67-3.86-.93-5.8l.71,5.32c-.49-3.72-.72-7.47-.24-11.2l-.71,5.32c.3-2.07.82-4.07,1.61-6.01l-2.02,4.78c.8-1.85,1.81-3.56,3.04-5.16l-3.13,4.05c1.53-1.94,3.31-3.64,5.26-5.16l-4.05,3.13c3.34-2.56,7.06-4.54,10.92-6.19l-4.78,2.02c10.8-4.56,22.53-6.73,34.09-8.28l-5.32.71c24.24-3.22,48.77-4.62,73.22-4.48,6.62.04,13.4-.15,19.97.71l-5.32-.71c1.91.27,3.77.68,5.56,1.4l-4.78-2.02c1.07.46,2.06,1.03,2.98,1.73l-4.05-3.13c.72.59,1.36,1.24,1.93,1.98l-3.13-4.05c.58.8,1.05,1.65,1.44,2.55l-2.02-4.78c.56,1.4.89,2.85,1.1,4.34l-.71-5.32c.57,4.45.54,9.04.42,13.51s-.51,9.24-1.12,13.83l.71-5.32c-1.69,12.36-5.12,24.41-9.96,35.89l2.02-4.78c-5.6,13.18-13.01,25.51-21.74,36.85l3.13-4.05c-10.77,13.94-23.46,26.3-37.36,37.08l4.05-3.13c-5.22,4.03-10.55,7.92-15.76,11.98-3.81,2.97-7.55,6.08-10.79,9.67-2.51,2.79-4.88,5.79-6.92,8.94-2.24,3.47-3.87,7.46-5.24,11.32-.79,2.23-1.31,4.53-1.66,6.86-.59,4.04-1.16,8.05-1.14,12.13.04,7.15,1.25,14.29,2.32,21.34.62,2.6,1.81,4.87,3.58,6.8,1.41,2.18,3.28,3.89,5.61,5.15,2.3,1.46,4.77,2.25,7.44,2.37,2.66.6,5.32.48,7.98-.36,4.84-1.57,9.51-4.57,11.95-9.19l2.02-4.78c.95-3.54.95-7.09,0-10.63-.25-1.66-.49-3.31-.72-4.97l.71,5.32c-.77-5.79-1.24-11.64-.52-17.46l-.71,5.32c.41-3.04,1.16-6.01,2.32-8.85l-2.02,4.78c1.14-2.68,2.62-5.15,4.39-7.46l-3.13,4.05c3.73-4.75,8.39-8.65,13.14-12.33l-4.05,3.13c6.48-5,13.13-9.78,19.5-14.94,5.05-4.1,9.93-8.41,14.59-12.95,10-9.72,18.98-20.51,26.95-31.94,3.38-4.85,6.52-9.86,9.38-15.03,3.54-6.4,6.48-13.04,9.32-19.78,4.29-10.22,7.49-20.9,9.3-31.84,2.32-13.97,3.45-28.12,1.25-42.17-.63-3.99-2.18-8.06-4.51-11.36-3.08-4.35-5.01-6.26-9.39-9.38-2.55-1.81-5.66-2.96-8.58-3.94-1.45-.48-2.94-.76-4.44-.99-3.36-.5-6.68-.96-10.07-1.11-3.67-.17-7.36-.22-11.03-.27-14.94-.2-29.89.21-44.8,1.22-15.71,1.07-31.51,2.6-47.02,5.33-5.96,1.05-11.89,2.36-17.66,4.19-4.25,1.35-8.35,3.07-12.44,4.85-2.44,1.06-4.83,2.25-7.1,3.65-6.9,4.25-12.72,9.61-17.13,16.43-1.71,2.64-2.89,5.75-4.01,8.64-.6,1.56-1.05,3.16-1.33,4.81-.81,4.77-1.36,9.4-.95,14.2s1.17,9.53,2,14.24c.62,2.6,1.81,4.87,3.58,6.8,1.41,2.18,3.28,3.89,5.61,5.15,2.3,1.46,4.77,2.25,7.44,2.37,2.66.6,5.32.48,7.98-.36,4.84-1.57,9.51-4.57,11.95-9.19l2.02-4.78c.95-3.54.95-7.09,0-10.63h0Z"/><path d="m311.04,436.41c4.49,0,9.2-1.95,12.37-5.13,1.71-1.59,2.91-3.46,3.62-5.63,1.1-2.09,1.6-4.33,1.51-6.74-.2-4.53-1.69-9.22-5.13-12.37s-7.63-5.13-12.37-5.13c-4.49,0-9.2,1.95-12.37,5.13-1.71,1.59-2.91,3.46-3.62,5.63-1.1,2.09-1.6,4.33-1.51,6.74.2,4.53,1.69,9.22,5.13,12.37s7.63,5.13,12.37,5.13h0Z"/></svg>